<?xml version="1.0" standalone="no"?>
 <!DOCTYPE svg PUBLIC "-//W3C//DTD SVG 1.1//EN" 
 "http://www.w3.org/Graphics/SVG/1.1/DTD/svg11.dtd"> 
<svg xmlns="http://www.w3.org/2000/svg" version="1.1" 
    width="41.9989cm" height="29.7002cm" viewBox="0 0 165350 116930 ">
<title>SVG Picture created as Nodu-B_SilkS.svg date 2020/12/31 16:24:13 </title>
  <desc>Picture generated by PCBNEW </desc>
<g style="fill:#000000; fill-opacity:1;stroke:#000000; stroke-opacity:1;
stroke-linecap:round; stroke-linejoin:round; "
 transform="translate(0 0) scale(1 1)">
</g>
<g style="fill:#000000; fill-opacity:0.0; 
stroke:#000000; stroke-width:-0.000393701; stroke-opacity:1; 
stroke-linecap:round; stroke-linejoin:round;">
</g>
<g style="fill:#000000; fill-opacity:0.0; 
stroke:#000000; stroke-width:47.2441; stroke-opacity:1; 
stroke-linecap:round; stroke-linejoin:round;">
<path d="M23814 24041
L23313 24542
" />
<path d="M24315 25544
L24816 25043
" />
<path d="M24816 25043
L24774 25002
" />
<path d="M24315 25544
L24273 25503
" />
<path d="M23313 24542
L23355 24584
" />
<path d="M23814 24041
L23856 24083
" />
<circle cx="19416.6" cy="27490.2" r="222.711" /> 
</g>
<g style="fill:#000000; fill-opacity:0.0; 
stroke:#000000; stroke-width:59.0551; stroke-opacity:1; 
stroke-linecap:round; stroke-linejoin:round;">
<path d="M21643 24608
L21455 24796
" />
<path d="M18762 27490
L18922 27330
" />
<path d="M18762 27490
L18950 27678
" />
<path d="M24525 27490
L24337 27302
" />
<path d="M21643 24608
L21831 24796
" />
<path d="M21643 30371
L21455 30183
" />
<path d="M21643 30371
L21831 30183
" />
<path d="M18922 27330
L18567 26975
" />
<path d="M24525 27490
L24337 27678
" />
</g>
<g style="fill:#000000; fill-opacity:0.0; 
stroke:#000000; stroke-width:47.2441; stroke-opacity:1; 
stroke-linecap:round; stroke-linejoin:round;">
<path d="M19683 16175
L19548 16175
" />
<path d="M19683 15773
L19548 15773
" />
<path d="M15749 15793
L15884 15793
" />
<path d="M15749 16194
L15884 16194
" />
<path d="M11580 24486
L11580 24351
" />
<path d="M11982 24486
L11982 24351
" />
<path d="M12328 24486
L12328 24351
" />
<path d="M12730 24486
L12730 24351
" />
<path d="M22838 31193
L22743 31098
" />
<path d="M23122 30909
L23027 30814
" />
<path d="M25444 26216
L25579 26216
" />
<path d="M25444 26618
L25579 26618
" />
<path d="M17289 18534
L17289 18060
" />
<path d="M18005 18534
L18005 18060
" />
<path d="M18120 16998
L16958 16998
" />
<path d="M17175 15777
L18120 15777
" />
<path d="M18911 25297
L18816 25202
" />
<path d="M19195 25013
L19100 24918
" />
<path d="M20435 31206
L20340 31301
" />
<path d="M20151 30922
L20056 31017
" />
<path d="M23068 23931
L23163 23835
" />
<path d="M23352 24215
L23447 24119
" />
<path d="M25454 27348
L25589 27348
" />
<path d="M25454 27750
L25589 27750
" />
<path d="M17616 26667
L17481 26667
" />
<path d="M17616 26265
L17481 26265
" />
<path d="M113279 42309
L113279 42883
" />
<path d="M112035 42309
L112035 42883
" />
<path d="M113279 42309
L112913 42309
" />
<path d="M112035 42309
L112401 42309
" />
<path d="M94217 42309
L94217 42883
" />
<path d="M92972 42309
L92972 42883
" />
<path d="M94217 42309
L93850 42309
" />
<path d="M92972 42309
L93339 42309
" />
<path d="M51404 42309
L51404 42883
" />
<path d="M50160 42309
L50160 42883
" />
<path d="M51404 42309
L51038 42309
" />
<path d="M50160 42309
L50526 42309
" />
<path d="M21092 42309
L21092 42883
" />
<path d="M19847 42309
L19847 42883
" />
<path d="M21092 42309
L20725 42309
" />
<path d="M19847 42309
L20214 42309
" />
<path d="M115154 33148
L115154 33722
" />
<path d="M113910 33148
L113910 33722
" />
<path d="M115154 33148
L114788 33148
" />
<path d="M113910 33148
L114276 33148
" />
<path d="M102654 34809
L102654 35383
" />
<path d="M101410 34809
L101410 35383
" />
<path d="M102654 34809
L102288 34809
" />
<path d="M101410 34809
L101776 34809
" />
<path d="M87654 34809
L87654 35383
" />
<path d="M86410 34809
L86410 35383
" />
<path d="M87654 34809
L87288 34809
" />
<path d="M86410 34809
L86776 34809
" />
<path d="M72654 34809
L72654 35383
" />
<path d="M71410 34809
L71410 35383
" />
<path d="M72654 34809
L72288 34809
" />
<path d="M71410 34809
L71776 34809
" />
<path d="M57654 34809
L57654 35383
" />
<path d="M56410 34809
L56410 35383
" />
<path d="M57654 34809
L57288 34809
" />
<path d="M56410 34809
L56776 34809
" />
<path d="M42654 34809
L42654 35383
" />
<path d="M41410 34809
L41410 35383
" />
<path d="M42654 34809
L42288 34809
" />
<path d="M41410 34809
L41776 34809
" />
<path d="M27029 34809
L27029 35383
" />
<path d="M25785 34809
L25785 35383
" />
<path d="M27029 34809
L26663 34809
" />
<path d="M25785 34809
L26151 34809
" />
<path d="M116202 25242
L116202 25816
" />
<path d="M114958 25242
L114958 25816
" />
<path d="M116202 25242
L115836 25242
" />
<path d="M114958 25242
L115324 25242
" />
<path d="M98904 27291
L98904 27866
" />
<path d="M97660 27291
L97660 27866
" />
<path d="M98904 27291
L98538 27291
" />
<path d="M97660 27291
L98026 27291
" />
<path d="M83904 27291
L83904 27866
" />
<path d="M82660 27291
L82660 27866
" />
<path d="M83904 27291
L83538 27291
" />
<path d="M82660 27291
L83026 27291
" />
<path d="M68904 27291
L68904 27866
" />
<path d="M67660 27291
L67660 27866
" />
<path d="M68904 27291
L68538 27291
" />
<path d="M67660 27291
L68026 27291
" />
<path d="M53904 27291
L53904 27866
" />
<path d="M52660 27291
L52660 27866
" />
<path d="M53904 27291
L53538 27291
" />
<path d="M52660 27291
L53026 27291
" />
<path d="M38904 27291
L38904 27866
" />
<path d="M37660 27291
L37660 27866
" />
<path d="M38904 27291
L38538 27291
" />
<path d="M37660 27291
L38026 27291
" />
<path d="M21011 33124
L21011 32549
" />
<path d="M22255 33124
L22255 32549
" />
<path d="M21011 33124
L21377 33124
" />
<path d="M22255 33124
L21889 33124
" />
<path d="M113279 19398
L113279 19972
" />
<path d="M112035 19398
L112035 19972
" />
<path d="M113279 19398
L112913 19398
" />
<path d="M112035 19398
L112401 19398
" />
<path d="M97029 19791
L97029 20366
" />
<path d="M95785 19791
L95785 20366
" />
<path d="M97029 19791
L96663 19791
" />
<path d="M95785 19791
L96151 19791
" />
<path d="M82029 19791
L82029 20366
" />
<path d="M80785 19791
L80785 20366
" />
<path d="M82029 19791
L81663 19791
" />
<path d="M80785 19791
L81151 19791
" />
<path d="M67029 19791
L67029 20366
" />
<path d="M65785 19791
L65785 20366
" />
<path d="M67029 19791
L66663 19791
" />
<path d="M65785 19791
L66151 19791
" />
<path d="M52029 19791
L52029 20366
" />
<path d="M50785 19791
L50785 20366
" />
<path d="M52029 19791
L51663 19791
" />
<path d="M50785 19791
L51151 19791
" />
<path d="M37029 19791
L37029 20366
" />
<path d="M35785 19791
L35785 20366
" />
<path d="M37029 19791
L36663 19791
" />
<path d="M35785 19791
L36151 19791
" />
<path d="M21084 19001
L21084 19576
" />
<path d="M19840 19001
L19840 19576
" />
<path d="M21084 19001
L20718 19001
" />
<path d="M19840 19001
L20206 19001
" />
<path d="M108279 12326
L108279 12901
" />
<path d="M107035 12326
L107035 12901
" />
<path d="M108279 12326
L107913 12326
" />
<path d="M107035 12326
L107401 12326
" />
<path d="M93279 12326
L93279 12901
" />
<path d="M92035 12326
L92035 12901
" />
<path d="M93279 12326
L92913 12326
" />
<path d="M92035 12326
L92401 12326
" />
<path d="M78279 12326
L78279 12901
" />
<path d="M77035 12326
L77035 12901
" />
<path d="M78279 12326
L77913 12326
" />
<path d="M77035 12326
L77401 12326
" />
<path d="M63279 12326
L63279 12901
" />
<path d="M62035 12326
L62035 12901
" />
<path d="M63279 12326
L62913 12326
" />
<path d="M62035 12326
L62401 12326
" />
<path d="M48279 12326
L48279 12901
" />
<path d="M47035 12326
L47035 12901
" />
<path d="M48279 12326
L47913 12326
" />
<path d="M47035 12326
L47401 12326
" />
<path d="M33279 12326
L33279 12901
" />
<path d="M32035 12326
L32035 12901
" />
<path d="M33279 12326
L32913 12326
" />
<path d="M32035 12326
L32401 12326
" />
<path d="M21251 11974
L21251 12549
" />
<path d="M20007 11974
L20007 12549
" />
<path d="M21251 11974
L20885 11974
" />
<path d="M20007 11974
L20374 11974
" />
</g>
<g style="fill:#000000; fill-opacity:0.0; 
stroke:#000000; stroke-width:59.0551; stroke-opacity:1; 
stroke-linecap:round; stroke-linejoin:round;">
<path d="M28396 25798
L28527 25610
" />
<path d="M28621 25798
L28621 25404
L28471 25404
L28434 25423
L28415 25441
L28396 25479
L28396 25535
L28415 25573
L28434 25591
L28471 25610
L28621 25610
" />
<path d="M28227 25591
L28096 25591
" />
<path d="M28040 25798
L28227 25798
L28227 25404
L28040 25404
" />
<path d="M27890 25779
L27834 25798
L27740 25798
L27702 25779
L27684 25760
L27665 25723
L27665 25685
L27684 25648
L27702 25629
L27740 25610
L27815 25591
L27852 25573
L27871 25554
L27890 25516
L27890 25479
L27871 25441
L27852 25423
L27815 25404
L27721 25404
L27665 25423
" />
<path d="M27496 25591
L27365 25591
" />
<path d="M27309 25798
L27496 25798
L27496 25404
L27309 25404
" />
<path d="M27196 25404
L26971 25404
" />
<path d="M27084 25798
L27084 25404
" />
<path d="M20044 16363
L20185 16363
L20199 16504
L20185 16490
L20157 16476
L20087 16476
L20059 16490
L20044 16504
L20030 16532
L20030 16602
L20044 16631
L20059 16645
L20087 16659
L20157 16659
L20185 16645
L20199 16631
" />
<path d="M19904 16631
L19890 16645
L19904 16659
L19918 16645
L19904 16631
L19904 16659
" />
<path d="M19609 16659
L19777 16659
" />
<path d="M19693 16659
L19693 16363
L19721 16406
L19749 16434
L19777 16448
" />
<path d="M19482 16659
L19482 16363
" />
<path d="M19454 16546
L19370 16659
" />
<path d="M19370 16462
L19482 16574
" />
<path d="M19257 16659
L19187 16659
L19187 16602
L19215 16588
L19243 16560
L19257 16518
L19257 16448
L19243 16406
L19215 16377
L19173 16363
L19116 16363
L19074 16377
L19046 16406
L19032 16448
L19032 16518
L19046 16560
L19074 16588
L19102 16602
L19102 16659
L19032 16659
" />
<path d="M16245 16383
L16386 16383
L16400 16524
L16386 16510
L16358 16496
L16287 16496
L16259 16510
L16245 16524
L16231 16552
L16231 16622
L16245 16650
L16259 16664
L16287 16678
L16358 16678
L16386 16664
L16400 16650
" />
<path d="M16105 16650
L16091 16664
L16105 16678
L16119 16664
L16105 16650
L16105 16678
" />
<path d="M15809 16678
L15978 16678
" />
<path d="M15894 16678
L15894 16383
L15922 16425
L15950 16453
L15978 16467
" />
<path d="M15683 16678
L15683 16383
" />
<path d="M15655 16566
L15570 16678
" />
<path d="M15570 16482
L15683 16594
" />
<path d="M15458 16678
L15388 16678
L15388 16622
L15416 16608
L15444 16580
L15458 16538
L15458 16467
L15444 16425
L15416 16397
L15374 16383
L15317 16383
L15275 16397
L15247 16425
L15233 16467
L15233 16538
L15247 16580
L15275 16608
L15303 16622
L15303 16678
L15233 16678
" />
<path d="M11096 24025
L11082 24039
L11068 24067
L11068 24138
L11082 24166
L11096 24180
L11124 24194
L11152 24194
L11195 24180
L11363 24011
L11363 24194
" />
<path d="M11096 24306
L11082 24320
L11068 24348
L11068 24419
L11082 24447
L11096 24461
L11124 24475
L11152 24475
L11195 24461
L11363 24292
L11363 24475
" />
<path d="M11363 24588
L11363 24658
L11307 24658
L11293 24630
L11265 24602
L11223 24588
L11152 24588
L11110 24602
L11082 24630
L11068 24672
L11068 24728
L11082 24770
L11110 24798
L11152 24812
L11223 24812
L11265 24798
L11293 24770
L11307 24742
L11363 24742
L11363 24812
" />
<path d="M12927 24025
L12913 24039
L12899 24067
L12899 24138
L12913 24166
L12927 24180
L12955 24194
L12983 24194
L13025 24180
L13194 24011
L13194 24194
" />
<path d="M12927 24306
L12913 24320
L12899 24348
L12899 24419
L12913 24447
L12927 24461
L12955 24475
L12983 24475
L13025 24461
L13194 24292
L13194 24475
" />
<path d="M13194 24588
L13194 24658
L13138 24658
L13124 24630
L13096 24602
L13053 24588
L12983 24588
L12941 24602
L12913 24630
L12899 24672
L12899 24728
L12913 24770
L12941 24798
L12983 24812
L13053 24812
L13096 24798
L13124 24770
L13138 24742
L13194 24742
L13194 24812
" />
<path d="M22692 31731
L22811 31851
" />
<path d="M22752 31791
L22960 31582
L22950 31632
L22950 31672
L22960 31701
" />
<path d="M22772 31393
L22752 31373
L22722 31363
L22702 31363
L22672 31373
L22622 31403
L22573 31453
L22543 31503
L22533 31532
L22533 31552
L22543 31582
L22563 31602
L22593 31612
L22612 31612
L22642 31602
L22692 31572
L22742 31522
L22772 31473
L22781 31443
L22781 31423
L22772 31393
" />
<path d="M22404 31443
L22612 31234
" />
<path d="M22463 31343
L22324 31363
" />
<path d="M22463 31224
L22463 31383
" />
<path d="M22245 31284
L22195 31234
L22235 31194
L22264 31204
L22304 31204
L22344 31184
L22394 31135
L22414 31095
L22414 31055
L22394 31015
L22354 30976
L22314 30956
L22274 30956
L22235 30976
L22185 31025
L22165 31065
L22165 31105
L22175 31135
L22135 31174
L22085 31125
" />
<path d="M25856 26029
L26025 26029
" />
<path d="M25940 26029
L25940 25733
L25968 25776
L25996 25804
L26025 25818
" />
<path d="M25673 25733
L25645 25733
L25617 25748
L25603 25762
L25589 25790
L25575 25846
L25575 25916
L25589 25973
L25603 26001
L25617 26015
L25645 26029
L25673 26029
L25701 26015
L25715 26001
L25729 25973
L25743 25916
L25743 25846
L25729 25790
L25715 25762
L25701 25748
L25673 25733
" />
<path d="M25448 26029
L25448 25733
" />
<path d="M25420 25916
L25336 26029
" />
<path d="M25336 25832
L25448 25944
" />
<path d="M25223 26029
L25153 26029
L25153 25973
L25181 25958
L25209 25930
L25223 25888
L25223 25818
L25209 25776
L25181 25748
L25139 25733
L25082 25733
L25040 25748
L25012 25776
L24998 25818
L24998 25888
L25012 25930
L25040 25958
L25068 25973
L25068 26029
L24998 26029
" />
<path d="M16769 17762
L16769 17622
L16910 17608
L16895 17622
L16881 17650
L16881 17720
L16895 17748
L16910 17762
L16938 17776
L17008 17776
L17036 17762
L17050 17748
L17064 17720
L17064 17650
L17050 17622
L17036 17608
" />
<path d="M16769 17959
L16769 17987
L16783 18016
L16797 18030
L16825 18044
L16881 18058
L16952 18058
L17008 18044
L17036 18030
L17050 18016
L17064 17987
L17064 17959
L17050 17931
L17036 17917
L17008 17903
L16952 17889
L16881 17889
L16825 17903
L16797 17917
L16783 17931
L16769 17959
" />
<path d="M16769 18241
L16769 18269
L16783 18297
L16797 18311
L16825 18325
L16881 18339
L16952 18339
L17008 18325
L17036 18311
L17050 18297
L17064 18269
L17064 18241
L17050 18212
L17036 18198
L17008 18184
L16952 18170
L16881 18170
L16825 18184
L16797 18198
L16783 18212
L16769 18241
" />
<path d="M17064 18465
L16867 18465
" />
<path d="M16895 18465
L16881 18480
L16867 18508
L16867 18550
L16881 18578
L16910 18592
L17064 18592
" />
<path d="M16910 18592
L16881 18606
L16867 18634
L16867 18676
L16881 18705
L16910 18719
L17064 18719
" />
<path d="M16980 18845
L16980 18986
" />
<path d="M17064 18817
L16769 18915
L17064 19014
" />
</g>
<g style="fill:#000000; fill-opacity:0.0; 
stroke:#000000; stroke-width:49.2126; stroke-opacity:1; 
stroke-linecap:round; stroke-linejoin:round;">
<path d="M18423 15500
L18423 15303
L18348 15303
L18329 15312
L18320 15322
L18310 15341
L18310 15369
L18320 15387
L18329 15397
L18348 15406
L18423 15406
" />
<path d="M18113 15500
L18179 15406
" />
<path d="M18226 15500
L18226 15303
L18151 15303
L18132 15312
L18123 15322
L18113 15341
L18113 15369
L18123 15387
L18132 15397
L18151 15406
L18226 15406
" />
<path d="M18057 15303
L17945 15303
" />
<path d="M18001 15500
L18001 15303
" />
<path d="M17767 15500
L17832 15406
" />
<path d="M17879 15500
L17879 15303
L17804 15303
L17785 15312
L17776 15322
L17767 15341
L17767 15369
L17776 15387
L17785 15397
L17804 15406
L17879 15406
" />
<path d="M17588 15303
L17682 15303
L17692 15397
L17682 15387
L17663 15378
L17617 15378
L17598 15387
L17588 15397
L17579 15416
L17579 15462
L17588 15481
L17598 15491
L17617 15500
L17663 15500
L17682 15491
L17692 15481
" />
<path d="M17523 15303
L17457 15500
L17392 15303
" />
<path d="M17288 15303
L17270 15303
L17251 15312
L17242 15322
L17232 15341
L17223 15378
L17223 15425
L17232 15462
L17242 15481
L17251 15491
L17270 15500
L17288 15500
L17307 15491
L17317 15481
L17326 15462
L17335 15425
L17335 15378
L17326 15341
L17317 15322
L17307 15312
L17288 15303
" />
<path d="M17139 15303
L17139 15462
L17129 15481
L17120 15491
L17101 15500
L17064 15500
L17045 15491
L17035 15481
L17026 15462
L17026 15303
" />
<path d="M16942 15322
L16932 15312
L16914 15303
L16867 15303
L16848 15312
L16839 15322
L16829 15341
L16829 15359
L16839 15387
L16951 15500
L16829 15500
" />
<path d="M16764 15303
L16632 15500
" />
<path d="M16632 15303
L16764 15500
" />
</g>
<g style="fill:#000000; fill-opacity:0.0; 
stroke:#000000; stroke-width:59.0551; stroke-opacity:1; 
stroke-linecap:round; stroke-linejoin:round;">
<path d="M18660 25731
L18780 25850
" />
<path d="M18720 25791
L18929 25582
L18919 25632
L18919 25672
L18929 25701
" />
<path d="M18710 25502
L18501 25711
" />
<path d="M18501 25512
L18471 25522
L18442 25512
" />
<path d="M18601 25612
L18571 25622
L18541 25612
L18501 25572
L18491 25542
L18501 25512
L18611 25403
" />
<path d="M18392 25244
L18462 25314
" />
<path d="M18352 25423
L18561 25214
L18462 25115
" />
<path d="M21053 31273
L21172 31153
" />
<path d="M21113 31213
L20904 31004
L20953 31014
L20993 31014
L21023 31004
" />
<path d="M20715 31193
L20695 31213
L20685 31243
L20685 31263
L20695 31293
L20725 31342
L20775 31392
L20824 31422
L20854 31432
L20874 31432
L20904 31422
L20924 31402
L20934 31372
L20934 31352
L20924 31322
L20894 31273
L20844 31223
L20794 31193
L20765 31183
L20745 31183
L20715 31193
" />
<path d="M20516 31392
L20496 31412
L20486 31442
L20486 31462
L20496 31492
L20526 31541
L20576 31591
L20625 31621
L20655 31631
L20675 31631
L20705 31621
L20725 31601
L20735 31571
L20735 31551
L20725 31521
L20695 31472
L20645 31422
L20596 31392
L20566 31382
L20546 31382
L20516 31392
" />
<path d="M20427 31621
L20566 31760
" />
<path d="M20446 31641
L20427 31641
L20397 31651
L20367 31680
L20357 31710
L20367 31740
L20476 31849
" />
<path d="M20198 31909
L20267 31839
" />
<path d="M20377 31949
L20168 31740
L20069 31839
" />
<path d="M23285 23407
L23405 23287
" />
<path d="M23345 23347
L23136 23138
L23186 23148
L23226 23148
L23255 23138
" />
<path d="M22947 23327
L22927 23347
L22917 23377
L22917 23397
L22927 23427
L22957 23476
L23007 23526
L23057 23556
L23086 23566
L23106 23566
L23136 23556
L23156 23536
L23166 23506
L23166 23486
L23156 23456
L23126 23407
L23076 23357
L23027 23327
L22997 23317
L22977 23317
L22947 23327
" />
<path d="M22748 23526
L22728 23546
L22718 23576
L22718 23596
L22728 23625
L22758 23675
L22808 23725
L22858 23755
L22888 23765
L22907 23765
L22937 23755
L22957 23735
L22967 23705
L22967 23685
L22957 23655
L22927 23606
L22878 23556
L22828 23526
L22798 23516
L22778 23516
L22748 23526
" />
<path d="M22659 23755
L22798 23894
" />
<path d="M22679 23775
L22659 23775
L22629 23784
L22599 23814
L22589 23844
L22599 23874
L22709 23983
" />
<path d="M22430 24043
L22500 23973
" />
<path d="M22609 24083
L22400 23874
L22301 23973
" />
<path d="M25978 27131
L26147 27131
" />
<path d="M26062 27131
L26062 26836
L26091 26878
L26119 26906
L26147 26920
" />
<path d="M25795 26836
L25767 26836
L25739 26850
L25725 26864
L25711 26892
L25697 26948
L25697 27019
L25711 27075
L25725 27103
L25739 27117
L25767 27131
L25795 27131
L25823 27117
L25838 27103
L25852 27075
L25866 27019
L25866 26948
L25852 26892
L25838 26864
L25823 26850
L25795 26836
" />
<path d="M25514 26836
L25486 26836
L25458 26850
L25444 26864
L25430 26892
L25416 26948
L25416 27019
L25430 27075
L25444 27103
L25458 27117
L25486 27131
L25514 27131
L25542 27117
L25556 27103
L25570 27075
L25584 27019
L25584 26948
L25570 26892
L25556 26864
L25542 26850
L25514 26836
" />
<path d="M25289 26934
L25289 27131
" />
<path d="M25289 26962
L25275 26948
L25247 26934
L25205 26934
L25177 26948
L25163 26976
L25163 27131
" />
<path d="M24924 26976
L25022 26976
" />
<path d="M25022 27131
L25022 26836
L24881 26836
" />
<path d="M17886 27151
L18055 27151
" />
<path d="M17971 27151
L17971 26856
L17999 26898
L18027 26926
L18055 26940
" />
<path d="M17703 26856
L17675 26856
L17647 26870
L17633 26884
L17619 26912
L17605 26968
L17605 27038
L17619 27095
L17633 27123
L17647 27137
L17675 27151
L17703 27151
L17732 27137
L17746 27123
L17760 27095
L17774 27038
L17774 26968
L17760 26912
L17746 26884
L17732 26870
L17703 26856
" />
<path d="M17478 26954
L17478 27249
" />
<path d="M17338 27109
L17324 27137
L17296 27151
" />
<path d="M17478 27109
L17464 27137
L17436 27151
L17380 27151
L17352 27137
L17338 27109
L17338 26954
" />
<path d="M17071 26996
L17169 26996
" />
<path d="M17169 27151
L17169 26856
L17028 26856
" />
<path d="M113016 43785
L113016 43489
L112945 43489
L112903 43503
L112875 43532
L112861 43560
L112847 43616
L112847 43658
L112861 43714
L112875 43742
L112903 43771
L112945 43785
L113016 43785
" />
<path d="M112748 43489
L112566 43489
L112664 43602
L112622 43602
L112594 43616
L112580 43630
L112566 43658
L112566 43728
L112580 43757
L112594 43771
L112622 43785
L112706 43785
L112734 43771
L112748 43757
" />
<path d="M112453 43517
L112439 43503
L112411 43489
L112341 43489
L112312 43503
L112298 43517
L112284 43546
L112284 43574
L112298 43616
L112467 43785
L112284 43785
" />
<path d="M93953 43785
L93953 43489
L93883 43489
L93841 43503
L93812 43532
L93798 43560
L93784 43616
L93784 43658
L93798 43714
L93812 43742
L93841 43771
L93883 43785
L93953 43785
" />
<path d="M93686 43489
L93503 43489
L93602 43602
L93559 43602
L93531 43616
L93517 43630
L93503 43658
L93503 43728
L93517 43757
L93531 43771
L93559 43785
L93644 43785
L93672 43771
L93686 43757
" />
<path d="M93222 43785
L93391 43785
" />
<path d="M93306 43785
L93306 43489
L93334 43532
L93362 43560
L93391 43574
" />
<path d="M51141 43785
L51141 43489
L51070 43489
L51028 43503
L51000 43532
L50986 43560
L50972 43616
L50972 43658
L50986 43714
L51000 43742
L51028 43771
L51070 43785
L51141 43785
" />
<path d="M50873 43489
L50691 43489
L50789 43602
L50747 43602
L50719 43616
L50705 43630
L50691 43658
L50691 43728
L50705 43757
L50719 43771
L50747 43785
L50831 43785
L50859 43771
L50873 43757
" />
<path d="M50508 43489
L50480 43489
L50452 43503
L50437 43517
L50423 43546
L50409 43602
L50409 43672
L50423 43728
L50437 43757
L50452 43771
L50480 43785
L50508 43785
L50536 43771
L50550 43757
L50564 43728
L50578 43672
L50578 43602
L50564 43546
L50550 43517
L50536 43503
L50508 43489
" />
<path d="M20828 43785
L20828 43489
L20758 43489
L20716 43503
L20687 43532
L20673 43560
L20659 43616
L20659 43658
L20673 43714
L20687 43742
L20716 43771
L20758 43785
L20828 43785
" />
<path d="M20547 43517
L20533 43503
L20505 43489
L20434 43489
L20406 43503
L20392 43517
L20378 43546
L20378 43574
L20392 43616
L20561 43785
L20378 43785
" />
<path d="M20237 43785
L20181 43785
L20153 43771
L20139 43757
L20111 43714
L20097 43658
L20097 43546
L20111 43517
L20125 43503
L20153 43489
L20209 43489
L20237 43503
L20252 43517
L20266 43546
L20266 43616
L20252 43644
L20237 43658
L20209 43672
L20153 43672
L20125 43658
L20111 43644
L20097 43616
" />
<path d="M114891 34631
L114891 34336
L114820 34336
L114778 34350
L114750 34378
L114736 34406
L114722 34462
L114722 34505
L114736 34561
L114750 34589
L114778 34617
L114820 34631
L114891 34631
" />
<path d="M114609 34364
L114595 34350
L114567 34336
L114497 34336
L114469 34350
L114455 34364
L114441 34392
L114441 34420
L114455 34462
L114623 34631
L114441 34631
" />
<path d="M114272 34462
L114300 34448
L114314 34434
L114328 34406
L114328 34392
L114314 34364
L114300 34350
L114272 34336
L114216 34336
L114187 34350
L114173 34364
L114159 34392
L114159 34406
L114173 34434
L114187 34448
L114216 34462
L114272 34462
L114300 34476
L114314 34491
L114328 34519
L114328 34575
L114314 34603
L114300 34617
L114272 34631
L114216 34631
L114187 34617
L114173 34603
L114159 34575
L114159 34519
L114173 34491
L114187 34476
L114216 34462
" />
<path d="M102391 36304
L102391 36009
L102320 36009
L102278 36023
L102250 36051
L102236 36079
L102222 36136
L102222 36178
L102236 36234
L102250 36262
L102278 36290
L102320 36304
L102391 36304
" />
<path d="M102109 36037
L102095 36023
L102067 36009
L101997 36009
L101969 36023
L101955 36037
L101941 36065
L101941 36093
L101955 36136
L102123 36304
L101941 36304
" />
<path d="M101842 36009
L101645 36009
L101772 36304
" />
<path d="M87391 36304
L87391 36009
L87320 36009
L87278 36023
L87250 36051
L87236 36079
L87222 36136
L87222 36178
L87236 36234
L87250 36262
L87278 36290
L87320 36304
L87391 36304
" />
<path d="M87109 36037
L87095 36023
L87067 36009
L86997 36009
L86969 36023
L86955 36037
L86941 36065
L86941 36093
L86955 36136
L87123 36304
L86941 36304
" />
<path d="M86687 36009
L86744 36009
L86772 36023
L86786 36037
L86814 36079
L86828 36136
L86828 36248
L86814 36276
L86800 36290
L86772 36304
L86716 36304
L86687 36290
L86673 36276
L86659 36248
L86659 36178
L86673 36150
L86687 36136
L86716 36122
L86772 36122
L86800 36136
L86814 36150
L86828 36178
" />
<path d="M72391 36304
L72391 36009
L72320 36009
L72278 36023
L72250 36051
L72236 36079
L72222 36136
L72222 36178
L72236 36234
L72250 36262
L72278 36290
L72320 36304
L72391 36304
" />
<path d="M72109 36037
L72095 36023
L72067 36009
L71997 36009
L71969 36023
L71955 36037
L71941 36065
L71941 36093
L71955 36136
L72123 36304
L71941 36304
" />
<path d="M71673 36009
L71814 36009
L71828 36150
L71814 36136
L71786 36122
L71716 36122
L71687 36136
L71673 36150
L71659 36178
L71659 36248
L71673 36276
L71687 36290
L71716 36304
L71786 36304
L71814 36290
L71828 36276
" />
<path d="M57391 36304
L57391 36009
L57320 36009
L57278 36023
L57250 36051
L57236 36079
L57222 36136
L57222 36178
L57236 36234
L57250 36262
L57278 36290
L57320 36304
L57391 36304
" />
<path d="M57109 36037
L57095 36023
L57067 36009
L56997 36009
L56969 36023
L56955 36037
L56941 36065
L56941 36093
L56955 36136
L57123 36304
L56941 36304
" />
<path d="M56687 36107
L56687 36304
" />
<path d="M56758 35995
L56828 36206
L56645 36206
" />
<path d="M42391 36304
L42391 36009
L42320 36009
L42278 36023
L42250 36051
L42236 36079
L42222 36136
L42222 36178
L42236 36234
L42250 36262
L42278 36290
L42320 36304
L42391 36304
" />
<path d="M42109 36037
L42095 36023
L42067 36009
L41997 36009
L41969 36023
L41955 36037
L41941 36065
L41941 36093
L41955 36136
L42123 36304
L41941 36304
" />
<path d="M41842 36009
L41659 36009
L41758 36122
L41716 36122
L41687 36136
L41673 36150
L41659 36178
L41659 36248
L41673 36276
L41687 36290
L41716 36304
L41800 36304
L41828 36290
L41842 36276
" />
<path d="M26766 36304
L26766 36009
L26695 36009
L26653 36023
L26625 36051
L26611 36079
L26597 36136
L26597 36178
L26611 36234
L26625 36262
L26653 36290
L26695 36304
L26766 36304
" />
<path d="M26484 36037
L26470 36023
L26442 36009
L26372 36009
L26344 36023
L26330 36037
L26316 36065
L26316 36093
L26330 36136
L26498 36304
L26316 36304
" />
<path d="M26203 36037
L26189 36023
L26161 36009
L26091 36009
L26062 36023
L26048 36037
L26034 36065
L26034 36093
L26048 36136
L26217 36304
L26034 36304
" />
<path d="M115939 26826
L115939 26531
L115868 26531
L115826 26545
L115798 26573
L115784 26601
L115770 26657
L115770 26699
L115784 26756
L115798 26784
L115826 26812
L115868 26826
L115939 26826
" />
<path d="M115658 26559
L115643 26545
L115615 26531
L115545 26531
L115517 26545
L115503 26559
L115489 26587
L115489 26615
L115503 26657
L115672 26826
L115489 26826
" />
<path d="M115208 26826
L115376 26826
" />
<path d="M115292 26826
L115292 26531
L115320 26573
L115348 26601
L115376 26615
" />
<path d="M98641 28726
L98641 28430
L98570 28430
L98528 28444
L98500 28473
L98486 28501
L98472 28557
L98472 28599
L98486 28655
L98500 28683
L98528 28712
L98570 28726
L98641 28726
" />
<path d="M98359 28458
L98345 28444
L98317 28430
L98247 28430
L98219 28444
L98205 28458
L98191 28487
L98191 28515
L98205 28557
L98373 28726
L98191 28726
" />
<path d="M98008 28430
L97980 28430
L97952 28444
L97937 28458
L97923 28487
L97909 28543
L97909 28613
L97923 28669
L97937 28697
L97952 28712
L97980 28726
L98008 28726
L98036 28712
L98050 28697
L98064 28669
L98078 28613
L98078 28543
L98064 28487
L98050 28458
L98036 28444
L98008 28430
" />
<path d="M83641 28726
L83641 28430
L83570 28430
L83528 28444
L83500 28473
L83486 28501
L83472 28557
L83472 28599
L83486 28655
L83500 28683
L83528 28712
L83570 28726
L83641 28726
" />
<path d="M83191 28726
L83359 28726
" />
<path d="M83275 28726
L83275 28430
L83303 28473
L83331 28501
L83359 28515
" />
<path d="M83050 28726
L82994 28726
L82966 28712
L82952 28697
L82923 28655
L82909 28599
L82909 28487
L82923 28458
L82937 28444
L82966 28430
L83022 28430
L83050 28444
L83064 28458
L83078 28487
L83078 28557
L83064 28585
L83050 28599
L83022 28613
L82966 28613
L82937 28599
L82923 28585
L82909 28557
" />
<path d="M68641 28726
L68641 28430
L68570 28430
L68528 28444
L68500 28473
L68486 28501
L68472 28557
L68472 28599
L68486 28655
L68500 28683
L68528 28712
L68570 28726
L68641 28726
" />
<path d="M68191 28726
L68359 28726
" />
<path d="M68275 28726
L68275 28430
L68303 28473
L68331 28501
L68359 28515
" />
<path d="M68022 28557
L68050 28543
L68064 28529
L68078 28501
L68078 28487
L68064 28458
L68050 28444
L68022 28430
L67966 28430
L67937 28444
L67923 28458
L67909 28487
L67909 28501
L67923 28529
L67937 28543
L67966 28557
L68022 28557
L68050 28571
L68064 28585
L68078 28613
L68078 28669
L68064 28697
L68050 28712
L68022 28726
L67966 28726
L67937 28712
L67923 28697
L67909 28669
L67909 28613
L67923 28585
L67937 28571
L67966 28557
" />
<path d="M53641 28726
L53641 28430
L53570 28430
L53528 28444
L53500 28473
L53486 28501
L53472 28557
L53472 28599
L53486 28655
L53500 28683
L53528 28712
L53570 28726
L53641 28726
" />
<path d="M53191 28726
L53359 28726
" />
<path d="M53275 28726
L53275 28430
L53303 28473
L53331 28501
L53359 28515
" />
<path d="M53092 28430
L52895 28430
L53022 28726
" />
<path d="M38641 28726
L38641 28430
L38570 28430
L38528 28444
L38500 28473
L38486 28501
L38472 28557
L38472 28599
L38486 28655
L38500 28683
L38528 28712
L38570 28726
L38641 28726
" />
<path d="M38191 28726
L38359 28726
" />
<path d="M38275 28726
L38275 28430
L38303 28473
L38331 28501
L38359 28515
" />
<path d="M37937 28430
L37994 28430
L38022 28444
L38036 28458
L38064 28501
L38078 28557
L38078 28669
L38064 28697
L38050 28712
L38022 28726
L37966 28726
L37937 28712
L37923 28697
L37909 28669
L37909 28599
L37923 28571
L37937 28557
L37966 28543
L38022 28543
L38050 28557
L38064 28571
L38078 28599
" />
<path d="M21992 31956
L21992 31661
L21922 31661
L21879 31675
L21851 31703
L21837 31731
L21823 31788
L21823 31830
L21837 31886
L21851 31914
L21879 31942
L21922 31956
L21992 31956
" />
<path d="M21542 31956
L21711 31956
" />
<path d="M21626 31956
L21626 31661
L21654 31703
L21683 31731
L21711 31745
" />
<path d="M21275 31661
L21415 31661
L21429 31802
L21415 31788
L21387 31774
L21317 31774
L21289 31788
L21275 31802
L21261 31830
L21261 31900
L21275 31928
L21289 31942
L21317 31956
L21387 31956
L21415 31942
L21429 31928
" />
<path d="M114266 19867
L114266 19572
L114195 19572
L114153 19586
L114125 19614
L114111 19642
L114097 19699
L114097 19741
L114111 19797
L114125 19825
L114153 19853
L114195 19867
L114266 19867
" />
<path d="M113816 19867
L113984 19867
" />
<path d="M113900 19867
L113900 19572
L113928 19614
L113956 19642
L113984 19656
" />
<path d="M113562 19670
L113562 19867
" />
<path d="M113633 19558
L113703 19769
L113520 19769
" />
<path d="M96746 21245
L96746 20950
L96676 20950
L96633 20964
L96605 20992
L96591 21020
L96577 21077
L96577 21119
L96591 21175
L96605 21203
L96633 21231
L96676 21245
L96746 21245
" />
<path d="M96296 21245
L96465 21245
" />
<path d="M96380 21245
L96380 20950
L96408 20992
L96437 21020
L96465 21034
" />
<path d="M96197 20950
L96015 20950
L96113 21062
L96071 21062
L96043 21077
L96029 21091
L96015 21119
L96015 21189
L96029 21217
L96043 21231
L96071 21245
L96155 21245
L96183 21231
L96197 21217
" />
<path d="M81766 21245
L81766 20950
L81695 20950
L81653 20964
L81625 20992
L81611 21020
L81597 21077
L81597 21119
L81611 21175
L81625 21203
L81653 21231
L81695 21245
L81766 21245
" />
<path d="M81316 21245
L81484 21245
" />
<path d="M81400 21245
L81400 20950
L81428 20992
L81456 21020
L81484 21034
" />
<path d="M81203 20978
L81189 20964
L81161 20950
L81091 20950
L81062 20964
L81048 20978
L81034 21006
L81034 21034
L81048 21077
L81217 21245
L81034 21245
" />
<path d="M66766 21245
L66766 20950
L66695 20950
L66653 20964
L66625 20992
L66611 21020
L66597 21077
L66597 21119
L66611 21175
L66625 21203
L66653 21231
L66695 21245
L66766 21245
" />
<path d="M66316 21245
L66484 21245
" />
<path d="M66400 21245
L66400 20950
L66428 20992
L66456 21020
L66484 21034
" />
<path d="M66034 21245
L66203 21245
" />
<path d="M66119 21245
L66119 20950
L66147 20992
L66175 21020
L66203 21034
" />
<path d="M51766 21245
L51766 20950
L51695 20950
L51653 20964
L51625 20992
L51611 21020
L51597 21077
L51597 21119
L51611 21175
L51625 21203
L51653 21231
L51695 21245
L51766 21245
" />
<path d="M51316 21245
L51484 21245
" />
<path d="M51400 21245
L51400 20950
L51428 20992
L51456 21020
L51484 21034
" />
<path d="M51133 20950
L51105 20950
L51077 20964
L51062 20978
L51048 21006
L51034 21062
L51034 21133
L51048 21189
L51062 21217
L51077 21231
L51105 21245
L51133 21245
L51161 21231
L51175 21217
L51189 21189
L51203 21133
L51203 21062
L51189 21006
L51175 20978
L51161 20964
L51133 20950
" />
<path d="M36625 21245
L36625 20950
L36555 20950
L36512 20964
L36484 20992
L36470 21020
L36456 21077
L36456 21119
L36470 21175
L36484 21203
L36512 21231
L36555 21245
L36625 21245
" />
<path d="M36316 21245
L36259 21245
L36231 21231
L36217 21217
L36189 21175
L36175 21119
L36175 21006
L36189 20978
L36203 20964
L36231 20950
L36287 20950
L36316 20964
L36330 20978
L36344 21006
L36344 21077
L36330 21105
L36316 21119
L36287 21133
L36231 21133
L36203 21119
L36189 21105
L36175 21077
" />
<path d="M20680 20455
L20680 20160
L20610 20160
L20568 20174
L20539 20202
L20525 20230
L20511 20287
L20511 20329
L20525 20385
L20539 20413
L20568 20441
L20610 20455
L20680 20455
" />
<path d="M20343 20287
L20371 20273
L20385 20259
L20399 20230
L20399 20216
L20385 20188
L20371 20174
L20343 20160
L20286 20160
L20258 20174
L20244 20188
L20230 20216
L20230 20230
L20244 20259
L20258 20273
L20286 20287
L20343 20287
L20371 20301
L20385 20315
L20399 20343
L20399 20399
L20385 20427
L20371 20441
L20343 20455
L20286 20455
L20258 20441
L20244 20427
L20230 20399
L20230 20343
L20244 20315
L20258 20301
L20286 20287
" />
<path d="M107875 13765
L107875 13470
L107805 13470
L107762 13484
L107734 13512
L107720 13540
L107706 13596
L107706 13638
L107720 13695
L107734 13723
L107762 13751
L107805 13765
L107875 13765
" />
<path d="M107608 13470
L107411 13470
L107537 13765
" />
<path d="M92875 13765
L92875 13470
L92805 13470
L92762 13484
L92734 13512
L92720 13540
L92706 13596
L92706 13638
L92720 13695
L92734 13723
L92762 13751
L92805 13765
L92875 13765
" />
<path d="M92453 13470
L92509 13470
L92537 13484
L92552 13498
L92580 13540
L92594 13596
L92594 13709
L92580 13737
L92566 13751
L92537 13765
L92481 13765
L92453 13751
L92439 13737
L92425 13709
L92425 13638
L92439 13610
L92453 13596
L92481 13582
L92537 13582
L92566 13596
L92580 13610
L92594 13638
" />
<path d="M77875 13765
L77875 13470
L77805 13470
L77762 13484
L77734 13512
L77720 13540
L77706 13596
L77706 13638
L77720 13695
L77734 13723
L77762 13751
L77805 13765
L77875 13765
" />
<path d="M77439 13470
L77580 13470
L77594 13610
L77580 13596
L77552 13582
L77481 13582
L77453 13596
L77439 13610
L77425 13638
L77425 13709
L77439 13737
L77453 13751
L77481 13765
L77552 13765
L77580 13751
L77594 13737
" />
<path d="M62875 13765
L62875 13470
L62805 13470
L62762 13484
L62734 13512
L62720 13540
L62706 13596
L62706 13638
L62720 13695
L62734 13723
L62762 13751
L62805 13765
L62875 13765
" />
<path d="M62453 13568
L62453 13765
" />
<path d="M62523 13456
L62594 13667
L62411 13667
" />
<path d="M47875 13765
L47875 13470
L47805 13470
L47762 13484
L47734 13512
L47720 13540
L47706 13596
L47706 13638
L47720 13695
L47734 13723
L47762 13751
L47805 13765
L47875 13765
" />
<path d="M47608 13470
L47425 13470
L47523 13582
L47481 13582
L47453 13596
L47439 13610
L47425 13638
L47425 13709
L47439 13737
L47453 13751
L47481 13765
L47566 13765
L47594 13751
L47608 13737
" />
<path d="M32875 13765
L32875 13470
L32805 13470
L32762 13484
L32734 13512
L32720 13540
L32706 13596
L32706 13638
L32720 13695
L32734 13723
L32762 13751
L32805 13765
L32875 13765
" />
<path d="M32594 13498
L32580 13484
L32552 13470
L32481 13470
L32453 13484
L32439 13498
L32425 13526
L32425 13554
L32439 13596
L32608 13765
L32425 13765
" />
<path d="M20847 13413
L20847 13118
L20777 13118
L20735 13132
L20707 13160
L20693 13188
L20679 13244
L20679 13287
L20693 13343
L20707 13371
L20735 13399
L20777 13413
L20847 13413
" />
<path d="M20397 13413
L20566 13413
" />
<path d="M20482 13413
L20482 13118
L20510 13160
L20538 13188
L20566 13202
" />
<g >
</g>
</g> 
</svg>
