<?xml version="1.0" standalone="no"?>
 <!DOCTYPE svg PUBLIC "-//W3C//DTD SVG 1.1//EN" 
 "http://www.w3.org/Graphics/SVG/1.1/DTD/svg11.dtd"> 
<svg xmlns="http://www.w3.org/2000/svg" version="1.1" 
    width="41.9989cm" height="29.7002cm" viewBox="0 0 165350 116930 ">
<title>SVG Picture created as Nodu-Edge_Cuts.svg date 2020/12/31 16:24:13 </title>
  <desc>Picture generated by PCBNEW </desc>
<g style="fill:#000000; fill-opacity:1;stroke:#000000; stroke-opacity:1;
stroke-linecap:round; stroke-linejoin:round; "
 transform="translate(0 0) scale(1 1)">
</g>
<g style="fill:#000000; fill-opacity:0.0; 
stroke:#000000; stroke-width:-0.000393701; stroke-opacity:1; 
stroke-linecap:round; stroke-linejoin:round;">
</g>
<g style="fill:#000000; fill-opacity:0.0; 
stroke:#000000; stroke-width:19.685; stroke-opacity:1; 
stroke-linecap:round; stroke-linejoin:round;">
<path d="M87332 41584
L88316 40600
" />
<path d="M90875 40797
L91072 40797
" />
<path d="M90482 41584
L90679 41584
" />
<path d="M82017 40600
L82214 40797
" />
<path d="M82411 39812
L82608 40009
" />
<path d="M80246 40009
L80442 39812
" />
<path d="M80639 40797
L80836 40600
" />
<path d="M45206 39812
L45009 39812
" />
<path d="M45403 40009
L45206 39812
" />
<path d="M44812 40600
L44616 40600
" />
<path d="M45009 40797
L44812 40600
" />
<path d="M41269 40600
L41466 40600
" />
<path d="M41072 40797
L41269 40600
" />
<path d="M40679 40009
L40875 39812
" />
<path d="M25324.8 40797.2 A393.701 393.701 0.0 0 0 25324.8 41584.6 " />
<path d="M105640 41584.6 A393.701 393.701 0.0 0 0 105640 40797.2 " />
<path d="M91072 40797
L105639 40797
" />
<path d="M89891 39812
L90875 40797
" />
<path d="M87923 39812
L89891 39812
" />
<path d="M86938 40797
L87923 39812
" />
<path d="M83395 40797
L86938 40797
" />
<path d="M82608 40009
L83395 40797
" />
<path d="M80442 39812
L82411 39812
" />
<path d="M79458 40797
L80246 40009
" />
<path d="M79458 40797
L79458 40797
" />
<path d="M46584 40797
L79458 40797
" />
<path d="M46190 40797
L46584 40797
" />
<path d="M45403 40009
L46190 40797
" />
<path d="M41466 39812
L45009 39812
" />
<path d="M40875 39812
L41466 39812
" />
<path d="M39891 40797
L40679 40009
" />
<path d="M90679 41584
L105639 41584
" />
<path d="M89498 40600
L90482 41584
" />
<path d="M88316 40600
L89498 40600
" />
<path d="M83001 41584
L87332 41584
" />
<path d="M82214 40797
L83001 41584
" />
<path d="M80836 40600
L82017 40600
" />
<path d="M79852 41584
L80639 40797
" />
<path d="M66269 41584
L79852 41584
" />
<path d="M45797 41584
L66269 41584
" />
<path d="M45009 40797
L45797 41584
" />
<path d="M41466 40600
L44616 40600
" />
<path d="M40285 41584
L41072 40797
" />
<path d="M25324 40797
L39891 40797
" />
<path d="M40285 41584
L25324 41584
" />
<path d="M107608 18750 A393.701 393.701 0.0 0 0 107608 17962.6 " />
<path d="M21978.3 17962.6 A393.701 393.701 0.0 0 0 21978.3 18750 " />
<path d="M107608 18750
L21978 18750
" />
<path d="M21978 17962
L107608 17962
" />
</g>
<g style="fill:#000000; fill-opacity:0.0; 
stroke:#000000; stroke-width:78.7402; stroke-opacity:1; 
stroke-linecap:round; stroke-linejoin:round;">
<path d="M10334.6 47647.6 A984.252 984.252 0.0 0 0 11318.9 48631.9 " />
<path d="M11318 11387
L121555 11387
" />
<path d="M11318.9 11387.8 A984.252 984.252 0.0 0 0 10334.6 12372 " />
<path d="M121555 48631.9 A984.252 984.252 0.0 0 0 122539 47647.6 " />
<path d="M10334 47647
L10334 12372
" />
<path d="M121555 48631
L11318 48631
" />
<path d="M122539 12372 A984.252 984.252 0.0 0 0 121555 11387.8 " />
<path d="M122539 12372
L122539 47647
" />
</g>
<g style="fill:#000000; fill-opacity:0.0; 
stroke:#000000; stroke-width:47.2441; stroke-opacity:1; 
stroke-linecap:round; stroke-linejoin:round;">
<path d="M121358 35303.6 A196.85 196.85 0.0 0 0 121358 34909.9 " />
<path d="M121358 32350.9 A196.85 196.85 0.0 0 0 121358 31957.2 " />
<path d="M120964 35303
L121358 35303
" />
<path d="M120964 34909
L121358 34909
" />
<path d="M120964 32350
L121358 32350
" />
<path d="M120964 31957
L121358 31957
" />
<path d="M120965 31957.2 A1673.23 1673.23 0.0 0 0 120965 35303.6 " />
<path d="M120965 32350.9 A1279.53 1279.53 0.0 0 0 120965 34909.9 " />
<path d="M11535.4 34931.1 A196.85 196.85 0.0 0 0 11535.4 35324.8 " />
<path d="M11535.4 31978.3 A196.85 196.85 0.0 0 0 11535.4 32372 " />
<path d="M11929 31978
L11535 31978
" />
<path d="M11929 32372
L11535 32372
" />
<path d="M11929 35324
L11535 35324
" />
<path d="M11929 34931
L11535 34931
" />
<path d="M11929.1 35324.8 A1673.23 1673.23 0.0 0 0 11929.1 31978.3 " />
<path d="M11929.1 34931.1 A1279.53 1279.53 0.0 0 0 11929.1 32372 " />
<path d="M112323 23946.9 A196.85 196.85 0.0 0 0 112323 23553.1 " />
<path d="M112323 21190.9 A1181.1 1181.1 0.0 0 0 112323 23553.1 " />
<path d="M112323 20797.2 A1574.8 1574.8 0.0 0 0 112323 23946.9 " />
<path d="M113110 23553.1 A196.85 196.85 0.0 0 0 113110 23946.9 " />
<path d="M113110 23946.9 A1574.8 1574.8 0.0 0 0 113110 20797.2 " />
<path d="M113110 23553.1 A1181.1 1181.1 0.0 0 0 113110 21190.9 " />
<path d="M112323 21190.9 A196.85 196.85 0.0 0 0 112323 20797.2 " />
<path d="M113110 20797.2 A196.85 196.85 0.0 0 0 113110 21190.9 " />
<path d="M84940.9 46505.9 A196.85 196.85 0.0 0 0 84940.9 46112.2 " />
<path d="M84940.9 43750 A1181.1 1181.1 0.0 0 0 84940.9 46112.2 " />
<path d="M84940.9 43356.3 A1574.8 1574.8 0.0 0 0 84940.9 46505.9 " />
<path d="M85728.3 46112.2 A196.85 196.85 0.0 0 0 85728.3 46505.9 " />
<path d="M85728.3 46505.9 A1574.8 1574.8 0.0 0 0 85728.3 43356.3 " />
<path d="M85728.3 46112.2 A1181.1 1181.1 0.0 0 0 85728.3 43750 " />
<path d="M84940.9 43750 A196.85 196.85 0.0 0 0 84940.9 43356.3 " />
<path d="M85728.3 43356.3 A196.85 196.85 0.0 0 0 85728.3 43750 " />
<path d="M60388.8 31338.6 A196.85 196.85 0.0 0 0 60388.8 30944.9 " />
<path d="M60388.8 28582.7 A1181.1 1181.1 0.0 0 0 60388.8 30944.9 " />
<path d="M60388.8 28189 A1574.8 1574.8 0.0 0 0 60388.8 31338.6 " />
<path d="M61176.2 30944.9 A196.85 196.85 0.0 0 0 61176.2 31338.6 " />
<path d="M61176.2 31338.6 A1574.8 1574.8 0.0 0 0 61176.2 28189 " />
<path d="M61176.2 30944.9 A1181.1 1181.1 0.0 0 0 61176.2 28582.7 " />
<path d="M60388.8 28582.7 A196.85 196.85 0.0 0 0 60388.8 28189 " />
<path d="M61176.2 28189 A196.85 196.85 0.0 0 0 61176.2 28582.7 " />
<path d="M19862.2 23946.9 A196.85 196.85 0.0 0 0 19862.2 23553.1 " />
<path d="M19862.2 21190.9 A1181.1 1181.1 0.0 0 0 19862.2 23553.1 " />
<path d="M19862.2 20797.2 A1574.8 1574.8 0.0 0 0 19862.2 23946.9 " />
<path d="M20649.6 23553.1 A196.85 196.85 0.0 0 0 20649.6 23946.9 " />
<path d="M20649.6 23946.9 A1574.8 1574.8 0.0 0 0 20649.6 20797.2 " />
<path d="M20649.6 23553.1 A1181.1 1181.1 0.0 0 0 20649.6 21190.9 " />
<path d="M19862.2 21190.9 A196.85 196.85 0.0 0 0 19862.2 20797.2 " />
<path d="M20649.6 20797.2 A196.85 196.85 0.0 0 0 20649.6 21190.9 " />
<g >
</g>
<g >
</g>
<g >
</g>
<g >
</g>
<g >
</g>
<g >
</g>
<g >
</g>
<g >
</g>
<g >
</g>
<g >
</g>
<g >
</g>
<g >
</g>
<g >
</g>
<g >
</g>
<g >
</g>
<g >
</g>
<g >
</g>
<g >
</g>
<g >
</g>
<g >
</g>
<g >
</g>
<g >
</g>
<g >
</g>
<g >
</g>
<g >
</g>
<g >
</g>
<g >
</g>
<g >
</g>
<g >
</g>
<g >
</g>
<g >
</g>
<g >
</g>
<g >
</g>
<g >
</g>
<g >
</g>
<g >
</g>
<g >
</g>
<g >
</g>
<g >
</g>
<g >
</g>
<g >
</g>
<g >
</g>
<g >
</g>
<g >
</g>
<g >
</g>
<g >
</g>
<g >
</g>
<g >
</g>
<g >
</g>
<g >
</g>
<g >
</g>
<g >
</g>
<g >
</g>
<g >
</g>
<g >
</g>
<g >
</g>
<g >
</g>
<g >
</g>
<g >
</g>
<g >
</g>
<g >
</g>
<g >
</g>
<g >
</g>
<g >
</g>
<g >
</g>
<g >
</g>
<g >
</g>
<g >
</g>
<g >
</g>
<g >
</g>
<g >
</g>
<g >
</g>
<g >
</g>
<g >
</g>
<g >
</g>
<g >
</g>
<g >
</g>
<g >
</g>
<g >
</g>
<g >
</g>
<g >
</g>
<g >
</g>
<g >
</g>
<g >
</g>
<g >
</g>
<g >
</g>
<g >
</g>
<g >
</g>
<g >
</g>
<g >
</g>
<g >
</g>
<g >
</g>
<g >
</g>
<g >
</g>
<g >
</g>
<g >
</g>
<g >
</g>
<g >
</g>
<g >
</g>
<g >
</g>
<g >
</g>
<g >
</g>
<g >
</g>
<g >
</g>
<g >
</g>
<g >
</g>
<g >
</g>
<g >
</g>
<g >
</g>
<g >
</g>
<g >
</g>
<g >
</g>
<g >
</g>
<g >
</g>
<g >
</g>
<g >
</g>
<g >
</g>
<g >
</g>
<g >
</g>
<g >
</g>
<g >
</g>
<g >
</g>
<g >
</g>
<g >
</g>
<g >
</g>
<g >
</g>
<g >
</g>
<g >
</g>
<g >
</g>
<g >
</g>
<g >
</g>
</g> 
</svg>
