G04 #@! TF.GenerationSoftware,KiCad,Pcbnew,(5.1.4)-1*
G04 #@! TF.CreationDate,2020-12-24T00:10:24-08:00*
G04 #@! TF.ProjectId,Nodu_Plate,4e6f6475-5f50-46c6-9174-652e6b696361,rev?*
G04 #@! TF.SameCoordinates,Original*
G04 #@! TF.FileFunction,Profile,NP*
%FSLAX46Y46*%
G04 Gerber Fmt 4.6, Leading zero omitted, Abs format (unit mm)*
G04 Created by KiCad (PCBNEW (5.1.4)-1) date 2020-12-24 00:10:24*
%MOMM*%
%LPD*%
G04 APERTURE LIST*
%ADD10C,0.200000*%
G04 APERTURE END LIST*
D10*
X260980750Y-68275000D02*
X260980749Y-54275000D01*
X261480749Y-68774999D02*
G75*
G02X260980750Y-68275000I0J499999D01*
G01*
X267480750Y-68775000D02*
X261480750Y-68775000D01*
X267980751Y-68274999D02*
G75*
G02X267480750Y-68775000I-500001J0D01*
G01*
X267980750Y-54275000D02*
X267980750Y-68275000D01*
X267480751Y-53774999D02*
G75*
G02X267980750Y-54275000I-1J-500000D01*
G01*
X261480750Y-53775000D02*
X267480750Y-53775000D01*
X260980750Y-54275000D02*
G75*
G02X261480750Y-53775000I500000J0D01*
G01*
X41969250Y-87325000D02*
X41969249Y-73325000D01*
X42469250Y-87824998D02*
G75*
G02X41969250Y-87325000I-1J499999D01*
G01*
X48469250Y-87825000D02*
X42469250Y-87824999D01*
X48969250Y-87325000D02*
G75*
G02X48469250Y-87825000I-500000J0D01*
G01*
X48969250Y-73325000D02*
X48969250Y-87325000D01*
X48469250Y-72825000D02*
G75*
G02X48969250Y-73325000I0J-500000D01*
G01*
X42469250Y-72825000D02*
X48469250Y-72825000D01*
X41969249Y-73324999D02*
G75*
G02X42469250Y-72825000I500000J-1D01*
G01*
X167025000Y-28174999D02*
X167025000Y-15175000D01*
X167525000Y-28674999D02*
G75*
G02X167025000Y-28174999I0J500000D01*
G01*
X180525000Y-28675000D02*
X167525000Y-28675000D01*
X181025000Y-28174998D02*
G75*
G02X180525000Y-28675000I-500001J-1D01*
G01*
X181025000Y-15175000D02*
X181025000Y-28174999D01*
X180525001Y-14674999D02*
G75*
G02X181025000Y-15175000I-1J-500000D01*
G01*
X167525000Y-14675000D02*
X180525000Y-14674999D01*
X167025000Y-15175000D02*
G75*
G02X167525000Y-14675000I500000J0D01*
G01*
X18093250Y-87325000D02*
X18093250Y-73325000D01*
X18593249Y-87824999D02*
G75*
G02X18093250Y-87325000I0J499999D01*
G01*
X24593250Y-87825000D02*
X18593250Y-87825000D01*
X25093250Y-87325000D02*
G75*
G02X24593250Y-87825000I-500000J0D01*
G01*
X25093250Y-73325000D02*
X25093250Y-87325000D01*
X24593250Y-72825000D02*
G75*
G02X25093250Y-73325000I0J-500000D01*
G01*
X18593250Y-72825000D02*
X24593249Y-72825000D01*
X18093250Y-73325000D02*
G75*
G02X18593250Y-72825000I500000J0D01*
G01*
X52725000Y-28174999D02*
X52725000Y-15175000D01*
X53224999Y-28674998D02*
G75*
G02X52725000Y-28174999I0J499999D01*
G01*
X66225000Y-28675000D02*
X53225000Y-28674999D01*
X66725000Y-28175000D02*
G75*
G02X66225000Y-28675000I-500000J0D01*
G01*
X66725000Y-15175000D02*
X66725000Y-28174999D01*
X66225001Y-14674999D02*
G75*
G02X66725000Y-15175000I-1J-500000D01*
G01*
X53225000Y-14675000D02*
X66225000Y-14675000D01*
X52725000Y-15175000D02*
G75*
G02X53225000Y-14675000I500000J0D01*
G01*
X276562499Y-47225000D02*
X276562499Y-34225000D01*
X277062499Y-47725000D02*
G75*
G02X276562499Y-47225000I0J500000D01*
G01*
X290062500Y-47725000D02*
X277062499Y-47725000D01*
X290562500Y-47224998D02*
G75*
G02X290062500Y-47725000I-500001J-1D01*
G01*
X290562500Y-34225000D02*
X290562500Y-47225000D01*
X290062500Y-33725000D02*
G75*
G02X290562500Y-34225000I0J-500000D01*
G01*
X277062499Y-33725000D02*
X290062500Y-33724999D01*
X276562499Y-34225000D02*
G75*
G02X277062499Y-33725000I500000J0D01*
G01*
X71775000Y-28174999D02*
X71775000Y-15175000D01*
X72274999Y-28675000D02*
G75*
G02X71775000Y-28174999I1J500000D01*
G01*
X85275000Y-28675000D02*
X72274999Y-28675000D01*
X85775001Y-28174999D02*
G75*
G02X85275000Y-28675000I-500001J0D01*
G01*
X85775000Y-15175000D02*
X85775000Y-28174999D01*
X85274999Y-14674999D02*
G75*
G02X85775000Y-15175000I0J-500001D01*
G01*
X72275000Y-14675000D02*
X85274999Y-14675000D01*
X71775001Y-15174999D02*
G75*
G02X72275000Y-14675000I499999J0D01*
G01*
X293550000Y-70971250D02*
G75*
G02X291564637Y-68729733I1J2000000D01*
G01*
X297850000Y-70971250D02*
X293550001Y-70971250D01*
X297850000Y-106399999D02*
X297850000Y-70971250D01*
X297850000Y-106400000D02*
G75*
G02X296850000Y-107400000I-1000000J0D01*
G01*
X13100000Y-107400000D02*
X296850000Y-107400000D01*
X13100001Y-107399999D02*
G75*
G02X12100000Y-106400000I-1J1000000D01*
G01*
X12100000Y-71025000D02*
X12100000Y-106400000D01*
X16600001Y-71025000D02*
X12100000Y-71025000D01*
X16599999Y-67025000D02*
G75*
G02X16600001Y-71025000I1J-2000000D01*
G01*
X12100000Y-67025000D02*
X16600000Y-67025000D01*
X12100000Y-13149999D02*
X12100000Y-67025000D01*
X12100000Y-13149998D02*
G75*
G02X13100000Y-12150000I999999J-1D01*
G01*
X296850000Y-12150000D02*
X13100000Y-12150000D01*
X296849999Y-12150000D02*
G75*
G02X297850000Y-13149999I1J-1000000D01*
G01*
X297850000Y-66971250D02*
X297850000Y-13149999D01*
X293550001Y-66971250D02*
X297850000Y-66971250D01*
X291856750Y-67906872D02*
G75*
G02X293550001Y-66971250I1693251J-1064378D01*
G01*
X291856750Y-54275000D02*
X291856750Y-67906871D01*
X291356751Y-53774999D02*
G75*
G02X291856750Y-54275000I-1J-500000D01*
G01*
X285356750Y-53775000D02*
X291356750Y-53775000D01*
X284856750Y-54275000D02*
G75*
G02X285356750Y-53775000I500000J0D01*
G01*
X284856750Y-68275000D02*
X284856750Y-54275000D01*
X285356749Y-68774999D02*
G75*
G02X284856750Y-68275000I0J499999D01*
G01*
X291356750Y-68775000D02*
X285356750Y-68775000D01*
X291564637Y-68729734D02*
G75*
G02X291356750Y-68775000I-207887J454734D01*
G01*
X128925000Y-28174999D02*
X128924999Y-15175000D01*
X129424999Y-28675000D02*
G75*
G02X128925000Y-28174999I1J500000D01*
G01*
X142424999Y-28675000D02*
X129425000Y-28675000D01*
X142924999Y-28175000D02*
G75*
G02X142424999Y-28675000I-500000J0D01*
G01*
X142924999Y-15175000D02*
X142924999Y-28174999D01*
X142425000Y-14674999D02*
G75*
G02X142924999Y-15175000I-1J-500000D01*
G01*
X129425000Y-14675000D02*
X142424999Y-14674999D01*
X128924999Y-15174999D02*
G75*
G02X129425000Y-14675000I500000J-1D01*
G01*
X147975000Y-28174999D02*
X147975000Y-15175000D01*
X148475000Y-28674999D02*
G75*
G02X147975000Y-28174999I0J500000D01*
G01*
X161475000Y-28675000D02*
X148475000Y-28675000D01*
X161975000Y-28175000D02*
G75*
G02X161475000Y-28675000I-500000J0D01*
G01*
X161975000Y-15175000D02*
X161975000Y-28174999D01*
X161475001Y-14674999D02*
G75*
G02X161975000Y-15175000I-1J-500000D01*
G01*
X148475000Y-14675000D02*
X161475000Y-14674999D01*
X147975000Y-15175000D02*
G75*
G02X148475000Y-14675000I500000J0D01*
G01*
X110375000Y-14675000D02*
X123375000Y-14674999D01*
X109874999Y-15174999D02*
G75*
G02X110375000Y-14675000I500000J-1D01*
G01*
X109875000Y-28174999D02*
X109874999Y-15175000D01*
X110374999Y-28675000D02*
G75*
G02X109875000Y-28174999I1J500000D01*
G01*
X123375000Y-28675000D02*
X110375000Y-28675000D01*
X123875000Y-28175000D02*
G75*
G02X123375000Y-28675000I-500000J0D01*
G01*
X123875000Y-15175000D02*
X123875000Y-28174999D01*
X123375000Y-14675000D02*
G75*
G02X123875000Y-15175000I0J-500000D01*
G01*
X90825000Y-28174999D02*
X90825000Y-15175000D01*
X91324999Y-28675000D02*
G75*
G02X90825000Y-28174999I1J500000D01*
G01*
X104325000Y-28675000D02*
X91325000Y-28675000D01*
X104825000Y-28175000D02*
G75*
G02X104325000Y-28675000I-500000J0D01*
G01*
X104825000Y-15175000D02*
X104825000Y-28174999D01*
X104325000Y-14675000D02*
G75*
G02X104825000Y-15175000I0J-500000D01*
G01*
X91325000Y-14675000D02*
X104325000Y-14674999D01*
X90825001Y-15174999D02*
G75*
G02X91325000Y-14675000I499999J0D01*
G01*
X269418750Y-66275000D02*
X269418749Y-53275000D01*
X269918749Y-66774999D02*
G75*
G02X269418750Y-66275000I0J499999D01*
G01*
X282918750Y-66775000D02*
X269918750Y-66775000D01*
X283418750Y-66274998D02*
G75*
G02X282918750Y-66775000I-500001J-1D01*
G01*
X283418750Y-53275000D02*
X283418750Y-66275000D01*
X282918751Y-52774999D02*
G75*
G02X283418750Y-53275000I-1J-500000D01*
G01*
X269918750Y-52775000D02*
X282918750Y-52775000D01*
X269418750Y-53275000D02*
G75*
G02X269918750Y-52775000I500000J0D01*
G01*
X243725000Y-14675000D02*
X256725000Y-14674999D01*
X243225000Y-15175000D02*
G75*
G02X243725000Y-14675000I500000J0D01*
G01*
X243225000Y-28174999D02*
X243225000Y-15175000D01*
X243724998Y-28674999D02*
G75*
G02X243225000Y-28174999I1J499999D01*
G01*
X256725000Y-28675000D02*
X243725000Y-28674999D01*
X257225001Y-28174999D02*
G75*
G02X256725000Y-28675000I-500001J0D01*
G01*
X257225000Y-15175000D02*
X257225000Y-28174999D01*
X256725001Y-14674999D02*
G75*
G02X257225000Y-15175000I-1J-500000D01*
G01*
X19387500Y-47225000D02*
X19387500Y-34224999D01*
X19887500Y-47725000D02*
G75*
G02X19387500Y-47225000I0J500000D01*
G01*
X32887500Y-47725000D02*
X19887499Y-47725000D01*
X33387500Y-47225000D02*
G75*
G02X32887500Y-47725000I-500000J0D01*
G01*
X33387500Y-34225000D02*
X33387500Y-47225000D01*
X32887500Y-33725000D02*
G75*
G02X33387500Y-34225000I0J-500000D01*
G01*
X19887500Y-33725000D02*
X32887499Y-33725000D01*
X19387499Y-34224999D02*
G75*
G02X19887500Y-33725000I500000J-1D01*
G01*
X33675000Y-28125000D02*
X33675000Y-15125000D01*
X34175000Y-28625000D02*
G75*
G02X33675000Y-28125000I0J500000D01*
G01*
X47175000Y-28625000D02*
X34174999Y-28625000D01*
X47675000Y-28125000D02*
G75*
G02X47175000Y-28625000I-500000J0D01*
G01*
X47675000Y-15125000D02*
X47675000Y-28125000D01*
X47175000Y-14625000D02*
G75*
G02X47675000Y-15125000I0J-500000D01*
G01*
X34175000Y-14625000D02*
X47175000Y-14625000D01*
X33675000Y-15125000D02*
G75*
G02X34175000Y-14625000I500000J0D01*
G01*
X196068750Y-103875000D02*
X190068750Y-103875000D01*
X196568751Y-103374999D02*
G75*
G02X196068750Y-103875000I-500001J0D01*
G01*
X196568750Y-89375000D02*
X196568750Y-103375000D01*
X196068751Y-88874999D02*
G75*
G02X196568750Y-89375000I-1J-500000D01*
G01*
X190068750Y-88875000D02*
X196068750Y-88875000D01*
X189568749Y-89374999D02*
G75*
G02X190068750Y-88875000I500000J-1D01*
G01*
X189568750Y-103375000D02*
X189568749Y-89375000D01*
X190068751Y-103874999D02*
G75*
G02X189568750Y-103375000I-1J500000D01*
G01*
X277062499Y-90875000D02*
X292443750Y-90875000D01*
X276562499Y-91375000D02*
G75*
G02X277062499Y-90875000I500000J0D01*
G01*
X276562499Y-104375000D02*
X276562499Y-91375000D01*
X277062499Y-104875000D02*
G75*
G02X276562499Y-104375000I0J500000D01*
G01*
X292443750Y-104875000D02*
X277062499Y-104875000D01*
X292943750Y-104375000D02*
G75*
G02X292443750Y-104875000I-500000J0D01*
G01*
X292943750Y-91375000D02*
X292943750Y-104375000D01*
X292443751Y-90874999D02*
G75*
G02X292943750Y-91375000I-1J-500000D01*
G01*
X252750000Y-91375000D02*
G75*
G02X253250000Y-90875000I500000J0D01*
G01*
X268631250Y-90875000D02*
X253250000Y-90875000D01*
X268631250Y-90875000D02*
G75*
G02X269131250Y-91375000I0J-500000D01*
G01*
X269131250Y-104375000D02*
X269131250Y-91375000D01*
X269131251Y-104374999D02*
G75*
G02X268631250Y-104875000I-500001J0D01*
G01*
X253250000Y-104875000D02*
X268631250Y-104875000D01*
X253250000Y-104875000D02*
G75*
G02X252750000Y-104375000I0J500000D01*
G01*
X252750000Y-91375000D02*
X252750000Y-104375000D01*
X41318750Y-90875000D02*
X56699999Y-90875000D01*
X40818749Y-91374999D02*
G75*
G02X41318750Y-90875000I500000J-1D01*
G01*
X40818750Y-104375000D02*
X40818749Y-91375000D01*
X41318749Y-104874999D02*
G75*
G02X40818750Y-104375000I0J499999D01*
G01*
X56700000Y-104875000D02*
X41318750Y-104875000D01*
X57200000Y-104375000D02*
G75*
G02X56700000Y-104875000I-500000J0D01*
G01*
X57199999Y-91375000D02*
X57200000Y-104375000D01*
X56699999Y-90875000D02*
G75*
G02X57199999Y-91375000I0J-500000D01*
G01*
X26531250Y-85325000D02*
X26531249Y-72325000D01*
X27031250Y-85825000D02*
G75*
G02X26531250Y-85325000I0J500000D01*
G01*
X40031250Y-85825000D02*
X27031249Y-85825000D01*
X40531250Y-85325000D02*
G75*
G02X40031250Y-85825000I-500000J0D01*
G01*
X40531250Y-72325000D02*
X40531250Y-85325000D01*
X40031250Y-71825000D02*
G75*
G02X40531250Y-72325000I0J-500000D01*
G01*
X27031250Y-71825000D02*
X40031250Y-71825000D01*
X26531249Y-72324999D02*
G75*
G02X27031250Y-71825000I500000J-1D01*
G01*
X262275000Y-15175000D02*
G75*
G02X262775000Y-14675000I500000J0D01*
G01*
X294825000Y-14675000D02*
X262775000Y-14675000D01*
X294825001Y-14674999D02*
G75*
G02X295325000Y-15175000I-1J-500000D01*
G01*
X295325000Y-28174999D02*
X295325000Y-15175000D01*
X295325001Y-28174999D02*
G75*
G02X294825000Y-28675000I-500001J0D01*
G01*
X294238000Y-28674999D02*
X294825000Y-28675000D01*
X294238000Y-30175000D02*
X294238000Y-28674999D01*
X294238001Y-30174999D02*
G75*
G02X293738000Y-30675000I-500001J0D01*
G01*
X287738000Y-30675000D02*
X293738000Y-30675000D01*
X287738001Y-30674999D02*
G75*
G02X287238000Y-30175000I-1J500000D01*
G01*
X287238000Y-28674999D02*
X287238000Y-30175000D01*
X270362000Y-28674999D02*
X287238000Y-28674999D01*
X270362000Y-30175000D02*
X270362000Y-28674999D01*
X270362001Y-30174999D02*
G75*
G02X269862000Y-30675000I-500001J0D01*
G01*
X263862000Y-30675000D02*
X269862000Y-30675000D01*
X263861999Y-30674999D02*
G75*
G02X263362000Y-30175000I0J499999D01*
G01*
X263362000Y-28674999D02*
X263362000Y-30175000D01*
X262775000Y-28674999D02*
X263362000Y-28674999D01*
X262774998Y-28674999D02*
G75*
G02X262275000Y-28174999I1J499999D01*
G01*
X262275000Y-15175000D02*
X262275000Y-28174999D01*
X136568750Y-90875000D02*
X161475000Y-90874999D01*
X136068750Y-91374998D02*
G75*
G02X136568750Y-90875000I499999J-1D01*
G01*
X136068750Y-104375000D02*
X136068750Y-91375000D01*
X136568751Y-104874999D02*
G75*
G02X136068750Y-104375000I-1J500000D01*
G01*
X161475000Y-104875000D02*
X136568750Y-104875000D01*
X161975000Y-104375000D02*
G75*
G02X161475000Y-104875000I-500000J0D01*
G01*
X161975000Y-91375000D02*
X161975000Y-104375000D01*
X161475000Y-90875000D02*
G75*
G02X161975000Y-91375000I0J-500000D01*
G01*
X224175000Y-28174999D02*
X224175000Y-15175000D01*
X224674998Y-28674999D02*
G75*
G02X224175000Y-28174999I1J499999D01*
G01*
X237675000Y-28675000D02*
X224675000Y-28674999D01*
X238175001Y-28174999D02*
G75*
G02X237675000Y-28675000I-500001J0D01*
G01*
X238175000Y-15175000D02*
X238175000Y-28174999D01*
X237675001Y-14674999D02*
G75*
G02X238175000Y-15175000I-1J-500000D01*
G01*
X224675000Y-14675000D02*
X237675000Y-14674999D01*
X224175000Y-15175000D02*
G75*
G02X224675000Y-14675000I500000J0D01*
G01*
X280094250Y-73325000D02*
G75*
G02X280594250Y-72825000I500000J0D01*
G01*
X281325000Y-72825000D02*
X280594250Y-72825000D01*
X281325000Y-72325000D02*
X281325000Y-72825000D01*
X281325000Y-72325000D02*
G75*
G02X281825000Y-71825000I500000J0D01*
G01*
X294825000Y-71825000D02*
X281825000Y-71825000D01*
X294825001Y-71824999D02*
G75*
G02X295325000Y-72325000I-1J-500000D01*
G01*
X295325000Y-85325000D02*
X295325000Y-72325000D01*
X295325001Y-85324999D02*
G75*
G02X294825000Y-85825000I-500001J0D01*
G01*
X287094250Y-85825000D02*
X294825000Y-85825000D01*
X287094250Y-87325000D02*
X287094250Y-85825000D01*
X287094251Y-87324999D02*
G75*
G02X286594250Y-87825000I-500001J0D01*
G01*
X280594250Y-87825000D02*
X286594250Y-87825000D01*
X280594250Y-87825000D02*
G75*
G02X280094250Y-87325000I0J500000D01*
G01*
X280094250Y-73325000D02*
X280094250Y-87325000D01*
X101325000Y-103375000D02*
G75*
G02X100825000Y-103875000I-500000J0D01*
G01*
X90068750Y-103875000D02*
X100825000Y-103875000D01*
X90068749Y-103874999D02*
G75*
G02X89568750Y-103375000I0J499999D01*
G01*
X89568750Y-89375000D02*
X89568750Y-103375000D01*
X89568750Y-89374998D02*
G75*
G02X90068750Y-88875000I499999J-1D01*
G01*
X100825000Y-88875000D02*
X90068750Y-88875000D01*
X100825000Y-88875000D02*
G75*
G02X101325000Y-89375000I0J-500000D01*
G01*
X101325000Y-103375000D02*
X101325000Y-89375000D01*
X17506249Y-52775000D02*
X35268750Y-52775000D01*
X17006250Y-53275001D02*
G75*
G02X17506249Y-52775000I500000J1D01*
G01*
X17006250Y-66275000D02*
X17006250Y-53275000D01*
X17506249Y-66774999D02*
G75*
G02X17006250Y-66275000I0J499999D01*
G01*
X35268750Y-66775000D02*
X17506249Y-66775000D01*
X35768750Y-66275000D02*
G75*
G02X35268750Y-66775000I-500000J0D01*
G01*
X35768750Y-53275000D02*
X35768750Y-66275000D01*
X35268750Y-52775000D02*
G75*
G02X35768750Y-53275000I0J-500000D01*
G01*
X205125000Y-28174999D02*
X205124999Y-15175000D01*
X205624999Y-28675000D02*
G75*
G02X205125000Y-28174999I1J500000D01*
G01*
X218625000Y-28675000D02*
X205625000Y-28675000D01*
X219125000Y-28174998D02*
G75*
G02X218625000Y-28675000I-500001J-1D01*
G01*
X219125000Y-15175000D02*
X219125000Y-28174999D01*
X218625001Y-14674999D02*
G75*
G02X219125000Y-15175000I-1J-500000D01*
G01*
X205625000Y-14675000D02*
X218625000Y-14674999D01*
X205125000Y-15175000D02*
G75*
G02X205625000Y-14675000I500000J0D01*
G01*
X15125000Y-14675000D02*
X28124999Y-14674999D01*
X14625000Y-15175000D02*
G75*
G02X15125000Y-14675000I500000J0D01*
G01*
X14625000Y-28174999D02*
X14625000Y-15175000D01*
X15125000Y-28674999D02*
G75*
G02X14625000Y-28174999I0J500000D01*
G01*
X28124999Y-28675000D02*
X15124999Y-28675000D01*
X28625000Y-28174999D02*
G75*
G02X28124999Y-28675000I-500001J0D01*
G01*
X28625000Y-15175000D02*
X28625000Y-28174999D01*
X28124999Y-14674999D02*
G75*
G02X28625000Y-15175000I0J-500001D01*
G01*
X275350001Y-40374999D02*
G75*
G03X275350001Y-40374999I-2750000J0D01*
G01*
X40500002Y-40374999D02*
G75*
G03X40500002Y-40374999I-2750000J0D01*
G01*
X186075000Y-28174999D02*
X186074999Y-15175000D01*
X186574999Y-28675000D02*
G75*
G02X186075000Y-28174999I1J500000D01*
G01*
X199575000Y-28675000D02*
X186575000Y-28675000D01*
X200075001Y-28174999D02*
G75*
G02X199575000Y-28675000I-500001J0D01*
G01*
X200075000Y-15175000D02*
X200075000Y-28174999D01*
X199575001Y-14674999D02*
G75*
G02X200075000Y-15175000I-1J-500000D01*
G01*
X186575000Y-14675000D02*
X199575000Y-14674999D01*
X186075000Y-15175000D02*
G75*
G02X186575000Y-14675000I500000J0D01*
G01*
X65131250Y-90875000D02*
X80512500Y-90875000D01*
X64631250Y-91375000D02*
G75*
G02X65131250Y-90875000I500000J0D01*
G01*
X64631250Y-104375000D02*
X64631250Y-91375000D01*
X65131250Y-104875000D02*
G75*
G02X64631250Y-104375000I0J500000D01*
G01*
X80512500Y-104875000D02*
X65131250Y-104875000D01*
X81012500Y-104374998D02*
G75*
G02X80512500Y-104875000I-500001J-1D01*
G01*
X81012500Y-91375000D02*
X81012500Y-104375000D01*
X80512500Y-90875000D02*
G75*
G02X81012500Y-91375000I0J-500000D01*
G01*
X205800001Y-97675000D02*
G75*
G03X205800001Y-97675000I-2750000J0D01*
G01*
X229437500Y-90875000D02*
X244818750Y-90875000D01*
X228937500Y-91375000D02*
G75*
G02X229437500Y-90875000I500000J0D01*
G01*
X228937500Y-104375000D02*
X228937500Y-91375000D01*
X229437500Y-104875000D02*
G75*
G02X228937500Y-104375000I0J500000D01*
G01*
X244818750Y-104875000D02*
X229437500Y-104875000D01*
X245318750Y-104375000D02*
G75*
G02X244818750Y-104875000I-500000J0D01*
G01*
X245318750Y-91375000D02*
X245318750Y-104375000D01*
X244818751Y-90874999D02*
G75*
G02X245318750Y-91375000I-1J-500000D01*
G01*
X209125000Y-88875000D02*
X215125000Y-88875000D01*
X208625000Y-89374998D02*
G75*
G02X209125000Y-88875000I499999J-1D01*
G01*
X208625000Y-90875000D02*
X208624999Y-89375000D01*
X208006250Y-90875000D02*
X208625000Y-90875000D01*
X207506250Y-91375000D02*
G75*
G02X208006250Y-90875000I500000J0D01*
G01*
X207506250Y-104375000D02*
X207506250Y-91375000D01*
X208006250Y-104875000D02*
G75*
G02X207506250Y-104375000I0J500000D01*
G01*
X221006250Y-104875000D02*
X208006250Y-104875000D01*
X221506250Y-104375000D02*
G75*
G02X221006250Y-104875000I-500000J0D01*
G01*
X221506250Y-91375000D02*
X221506249Y-104375000D01*
X221006251Y-90874999D02*
G75*
G02X221506250Y-91375000I-1J-500000D01*
G01*
X215625000Y-90875000D02*
X221006250Y-90875000D01*
X215625000Y-89375000D02*
X215625000Y-90875000D01*
X215125001Y-88874999D02*
G75*
G02X215625000Y-89375000I-1J-500000D01*
G01*
X17506249Y-90875000D02*
X32887500Y-90875000D01*
X17006250Y-91375001D02*
G75*
G02X17506249Y-90875000I500000J1D01*
G01*
X17006250Y-104375000D02*
X17006250Y-91375000D01*
X17506250Y-104875000D02*
G75*
G02X17006250Y-104375000I0J500000D01*
G01*
X32887500Y-104875000D02*
X17506249Y-104875000D01*
X33387499Y-104374999D02*
G75*
G02X32887500Y-104875000I-500000J-1D01*
G01*
X33387500Y-91375000D02*
X33387500Y-104375000D01*
X32887500Y-90875000D02*
G75*
G02X33387500Y-91375000I0J-500000D01*
G01*
X255131250Y-72325000D02*
G75*
G02X255631250Y-71825000I500000J0D01*
G01*
X278156249Y-71825000D02*
X255631250Y-71825000D01*
X278156251Y-71825000D02*
G75*
G02X278656249Y-72325000I-1J-499999D01*
G01*
X278656249Y-85325000D02*
X278656249Y-72325000D01*
X278656250Y-85324999D02*
G75*
G02X278156249Y-85825000I-500001J0D01*
G01*
X263218250Y-85825000D02*
X278156249Y-85825000D01*
X263218250Y-87325000D02*
X263218250Y-85825000D01*
X263218250Y-87324998D02*
G75*
G02X262718250Y-87825000I-500001J-1D01*
G01*
X256718250Y-87825000D02*
X262718250Y-87825000D01*
X256718249Y-87824999D02*
G75*
G02X256218250Y-87325000I0J499999D01*
G01*
X256218250Y-85825000D02*
X256218250Y-87325000D01*
X255631250Y-85825000D02*
X256218250Y-85825000D01*
X255631249Y-85824999D02*
G75*
G02X255131250Y-85325000I0J499999D01*
G01*
X255131250Y-72325000D02*
X255131250Y-85325000D01*
X268000000Y-51000000D02*
G75*
G02X267500000Y-51500000I-500000J0D01*
G01*
X253712500Y-51500000D02*
X267500000Y-51500000D01*
X253712500Y-70050000D02*
X253712500Y-51500000D01*
X253712500Y-70050000D02*
G75*
G02X253212500Y-70550000I-500000J0D01*
G01*
X244187500Y-70550000D02*
X253212500Y-70550000D01*
X244187500Y-86575000D02*
X244187500Y-70550000D01*
X244187500Y-86575000D02*
G75*
G02X243687500Y-87075000I-500000J0D01*
G01*
X56737500Y-87075000D02*
X243687500Y-87075000D01*
X56737499Y-87074999D02*
G75*
G02X56237500Y-86575000I0J499999D01*
G01*
X56237500Y-70550000D02*
X56237500Y-86575000D01*
X47212500Y-70550000D02*
X56237500Y-70550000D01*
X47212500Y-70550000D02*
G75*
G02X46712500Y-70050000I0J500000D01*
G01*
X46712500Y-51500000D02*
X46712500Y-70050000D01*
X42450000Y-51500000D02*
X46712500Y-51500000D01*
X42450000Y-51499999D02*
G75*
G02X41950000Y-50999999I0J500000D01*
G01*
X41950000Y-32975000D02*
X41950000Y-50999999D01*
X41950000Y-32975000D02*
G75*
G02X42450000Y-32475000I500000J0D01*
G01*
X267500000Y-32475000D02*
X42450000Y-32475000D01*
X267500001Y-32474999D02*
G75*
G02X268000000Y-32975000I-1J-500000D01*
G01*
X268000000Y-51000000D02*
X268000000Y-32975000D01*
M02*
