0
SECTION
2
HEADER
9
$INSUNITS
70
4
9
$ACADVER
1
AC1014
9
$HANDSEED
5
FFFF
0
ENDSEC
0
SECTION
2
TABLES
0
TABLE
2
VPORT
5
8
100
AcDbSymbolTable
0
ENDTAB
0
TABLE
2
LTYPE
5
5
100
AcDbSymbolTable
0
LTYPE
5
14
100
AcDbSymbolTableRecord
100
AcDbLinetypeTableRecord
2
BYBLOCK
70
0
0
LTYPE
5
15
100
AcDbSymbolTableRecord
100
AcDbLinetypeTableRecord
2
BYLAYER
70
0
0
ENDTAB
0
TABLE
2
LAYER
5
2
100
AcDbSymbolTable
70
2
0
LAYER
5
50
100
AcDbSymbolTableRecord
100
AcDbLayerTableRecord
2
0
70
0
6
CONTINUOUS
0
ENDTAB
0
TABLE
2
STYLE
5
3
100
AcDbSymbolTable
70
1
0
STYLE
5
11
100
AcDbSymbolTableRecord
100
AcDbTextStyleTableRecord
2
STANDARD
70
0
0
ENDTAB
0
TABLE
2
VIEW
5
6
100
AcDbSymbolTable
70
0
0
ENDTAB
0
TABLE
2
UCS
5
7
100
AcDbSymbolTable
70
0
0
ENDTAB
0
TABLE
2
APPID
5
9
100
AcDbSymbolTable
70
2
0
APPID
5
12
100
AcDbSymbolTableRecord
100
AcDbRegAppTableRecord
2
ACAD
70
0
0
ENDTAB
0
TABLE
2
DIMSTYLE
5
A
100
AcDbSymbolTable
70
1
0
ENDTAB
0
TABLE
2
BLOCK_RECORD
5
1
100
AcDbSymbolTable
70
1
0
BLOCK_RECORD
5
1F
100
AcDbSymbolTableRecord
100
AcDbBlockTableRecord
2
*MODEL_SPACE
0
BLOCK_RECORD
5
1B
100
AcDbSymbolTableRecord
100
AcDbBlockTableRecord
2
*PAPER_SPACE
0
ENDTAB
0
ENDSEC
0
SECTION
2
BLOCKS
0
BLOCK
5
20
100
AcDbEntity
100
AcDbBlockBegin
2
*MODEL_SPACE
0
ENDBLK
5
21
100
AcDbEntity
100
AcDbBlockEnd
0
BLOCK
5
1C
100
AcDbEntity
100
AcDbBlockBegin
2
*PAPER_SPACE
0
ENDBLK
5
1D
100
AcDbEntity
100
AcDbBlockEnd
0
ENDSEC
0
SECTION
2
ENTITIES
0
LWPOLYLINE
5
100
100
AcDbEntity
8
0
100
AcDbPolyline
90
8
70
1
43
0.0
10
-248.88074999999998
20
42.125
42
-0.41421356237307422
10
-249.38075000000001
20
41.625000000000007
10
-255.38075000000003
20
41.625
42
-0.41421356237313667
10
-255.88075000000003
20
42.125
10
-255.88075000000006
20
56.125000000000007
42
-0.41421356237307422
10
-255.38075000000003
20
56.625000000000007
10
-249.38075000000001
20
56.625000000000014
42
-0.41421356237313667
10
-248.88075000000001
20
56.125000000000007
0
LWPOLYLINE
5
101
100
AcDbEntity
8
0
100
AcDbPolyline
90
8
70
1
43
0.0
10
-135.875
20
3.0249999999999999
42
-0.41421356237307422
10
-136.375
20
2.5249999999999999
10
-149.375
20
2.5249999999999941
42
-0.41421356237309437
10
-149.875
20
3.0249999999999999
10
-149.875
20
16.024999999999999
42
-0.41421356237310675
10
-149.375
20
16.525000000000002
10
-136.375
20
16.525000000000009
42
-0.41421356237307555
10
-135.875
20
16.024999999999999
0
LWPOLYLINE
5
102
100
AcDbEntity
8
0
100
AcDbPolyline
90
8
70
1
43
0.0
10
-78.724999999999994
20
3.0249999999999999
42
-0.41421356237309664
10
-79.224999999999994
20
2.5249999999999999
10
-92.224999999999994
20
2.5249999999999941
42
-0.41421356237309437
10
-92.725000000000009
20
3.0249999999999999
10
-92.725000000000009
20
16.024999999999999
42
-0.41421356237310675
10
-92.224999999999994
20
16.525000000000002
10
-79.224999999999994
20
16.525000000000002
42
-0.41421356237309764
10
-78.724999999999994
20
16.024999999999999
0
LWPOLYLINE
5
103
100
AcDbEntity
8
0
100
AcDbPolyline
90
8
70
1
43
0.0
10
-93.012499999999989
20
41.125
42
-0.41421356237308982
10
-93.512500000000003
20
40.625
10
-106.51250000000002
20
40.624999999999993
42
-0.41421356237309503
10
-107.01250000000002
20
41.125
10
-107.01250000000002
20
54.125000000000007
42
-0.41421356237308982
10
-106.51250000000002
20
54.625
10
-93.512500000000003
20
54.625000000000014
42
-0.41421356237309503
10
-93.012499999999989
20
54.125000000000007
0
LWPOLYLINE
5
104
100
AcDbEntity
8
0
100
AcDbPolyline
90
8
70
1
43
0.0
10
-257.31874999999997
20
41.125
42
-0.41421356237307422
10
-257.81875000000002
20
40.625
10
-270.81875000000002
20
40.625000000000014
42
-0.41421356237312101
10
-271.31875000000002
20
41.125
10
-271.31875000000002
20
54.125000000000007
42
-0.4142135623730222
10
-270.81875000000002
20
54.625
10
-257.81875000000002
20
54.625
42
-0.41421356237313145
10
-257.31875000000002
20
54.125000000000007
0
LWPOLYLINE
5
105
100
AcDbEntity
8
0
100
AcDbPolyline
90
8
70
1
43
0.0
10
-5.9932500000000015
20
61.174999999999997
42
-0.4142135623730957
10
-6.4932500000000006
20
60.674999999999997
10
-12.493249999999989
20
60.674999999999997
42
-0.41421356237310281
10
-12.99325
20
61.174999999999997
10
-12.993250000000003
20
75.174999999999997
42
-0.41421356237309764
10
-12.49325
20
75.674999999999997
10
-6.4932500000000104
20
75.674999999999997
42
-0.4142135623731022
10
-5.9932499999999997
20
75.174999999999997
0
LWPOLYLINE
5
106
100
AcDbEntity
8
0
100
AcDbPolyline
90
8
70
1
43
0.0
10
-40.625
20
3.0249999999999999
42
-0.41421356237309404
10
-41.125
20
2.5249999999999999
10
-54.125000000000014
20
2.525000000000003
42
-0.41421356237308915
10
-54.625
20
3.0249999999999999
10
-54.625
20
16.024999999999999
42
-0.4142135623730937
10
-54.125000000000007
20
16.525000000000002
10
-41.125000000000007
20
16.524999999999999
42
-0.41421356237310025
10
-40.625
20
16.024999999999999
0
LWPOLYLINE
5
107
100
AcDbEntity
8
0
100
AcDbPolyline
90
8
70
1
43
0.0
10
-154.92500000000001
20
3.0249999999999999
42
-0.41421356237307422
10
-155.42500000000001
20
2.5249999999999999
10
-168.42500000000001
20
2.5249999999999817
42
-0.41421356237310153
10
-168.92500000000001
20
3.0249999999999999
10
-168.92500000000001
20
16.024999999999999
42
-0.41421356237304691
10
-168.42500000000001
20
16.525000000000002
10
-155.42500000000001
20
16.525000000000009
42
-0.41421356237307555
10
-154.92500000000001
20
16.024999999999999
0
LWPOLYLINE
5
108
100
AcDbEntity
8
0
100
AcDbPolyline
90
8
70
1
43
0.0
10
-21.575000000000003
20
2.9750002831220623
42
-0.41421356237309537
10
-22.074999999999999
20
2.4750002831220623
10
-35.075000000000003
20
2.4750002831220632
42
-0.4142135623730957
10
-35.575000000000003
20
2.9750002831220623
10
-35.575000000000003
20
15.975000283122061
42
-0.41421356237309764
10
-35.075000000000003
20
16.475000283122061
10
-22.074999999999996
20
16.475000283122064
42
-0.4142135623730937
10
-21.575000000000003
20
15.975000283122062
0
LWPOLYLINE
5
109
100
AcDbEntity
8
0
100
AcDbPolyline
90
8
70
1
43
0.0
10
-182.71250000000003
20
40.625000000000014
42
-0.41421356237312101
10
-183.21250000000003
20
41.125
10
-183.21249999999998
20
54.125000000000007
42
-0.4142135623730222
10
-182.71250000000003
20
54.625
10
-169.71250000000001
20
54.625
42
-0.41421356237313145
10
-169.21250000000001
20
54.125000000000007
10
-169.21249999999998
20
41.125
42
-0.41421356237307422
10
-169.71250000000001
20
40.625
0
LWPOLYLINE
5
110
100
AcDbEntity
8
0
100
AcDbPolyline
90
8
70
1
43
0.0
10
-193.02499999999998
20
3.0249999999999999
42
-0.41421356237307749
10
-193.52500000000003
20
2.5249999999999999
10
-206.52500000000003
20
2.5249999999999817
42
-0.41421356237310153
10
-207.02500000000003
20
3.0249999999999999
10
-207.02500000000003
20
16.024999999999999
42
-0.41421356237304691
10
-206.52500000000003
20
16.525000000000002
10
-193.52500000000003
20
16.525000000000002
42
-0.41421356237313406
10
-193.02500000000003
20
16.024999999999999
0
LWPOLYLINE
5
111
100
AcDbEntity
8
0
100
AcDbPolyline
90
8
70
1
43
0.0
10
-150.16249999999999
20
41.125
42
-0.41421356237308982
10
-150.66249999999999
20
40.625
10
-163.66250000000002
20
40.625000000000014
42
-0.41421356237312101
10
-164.16250000000002
20
41.125
10
-164.16249999999997
20
54.125000000000007
42
-0.4142135623730222
10
-163.66250000000002
20
54.625
10
-150.66249999999999
20
54.625000000000014
42
-0.41421356237309503
10
-150.16249999999999
20
54.125000000000007
0
LWPOLYLINE
5
112
100
AcDbEntity
8
0
100
AcDbPolyline
90
8
70
1
43
0.0
10
-212.07499999999999
20
3.0249999999999999
42
-0.41421356237304624
10
-212.57499999999999
20
2.5249999999999999
10
-225.57500000000002
20
2.5249999999999995
42
-0.41421356237313273
10
-226.07500000000002
20
3.0249999999999999
10
-226.07500000000005
20
16.024999999999999
42
-0.4142135623730781
10
-225.57500000000002
20
16.525000000000002
10
-212.57499999999999
20
16.524999999999984
42
-0.41421356237312362
10
-212.07499999999999
20
16.024999999999999
0
LWPOLYLINE
5
113
100
AcDbEntity
8
0
100
AcDbPolyline
90
8
70
1
43
0.0
10
-88.25
20
22.074999999999999
42
-0.41421356237310802
10
-88.75
20
21.575000000000003
10
-101.75
20
21.574999999999992
42
-0.41421356237309503
10
-102.25000000000001
20
22.074999999999999
10
-102.25000000000001
20
35.075000000000003
42
-0.41421356237310542
10
-101.75
20
35.575000000000003
10
-88.75
20
35.575000000000003
42
-0.41421356237309243
10
-88.25
20
35.075000000000003
0
LWPOLYLINE
5
114
100
AcDbEntity
8
0
100
AcDbPolyline
90
8
70
1
43
0.0
10
-50.150000000000006
20
22.074999999999999
42
-0.41421356237309503
10
-50.650000000000006
20
21.575000000000003
10
-63.65000000000002
20
21.574999999999996
42
-0.41421356237308721
10
-64.150000000000006
20
22.074999999999999
10
-64.149999999999991
20
35.075000000000003
42
-0.41421356237309764
10
-63.650000000000006
20
35.575000000000003
10
-50.650000000000013
20
35.575000000000003
42
-0.41421356237310025
10
-50.150000000000006
20
35.075000000000003
0
LWPOLYLINE
5
115
100
AcDbEntity
8
0
100
AcDbPolyline
90
8
70
1
43
0.0
10
-7.2874999999999996
20
22.074999999999996
42
-0.4142135623730937
10
-7.7875000000000005
20
21.575000000000003
10
-20.787499999999994
20
21.575000000000003
42
-0.41421356237310025
10
-21.287500000000001
20
22.074999999999999
10
-21.287500000000001
20
35.075000000000003
42
-0.41421356237309503
10
-20.787500000000001
20
35.575000000000003
10
-7.7874999999999872
20
35.575000000000003
42
-0.41421356237308721
10
-7.2874999999999996
20
35.075000000000003
0
LWPOLYLINE
5
116
100
AcDbEntity
8
0
100
AcDbPolyline
90
8
70
1
43
0.0
10
-244.62500000000003
20
2.5249999999999995
42
-0.41421356237313273
10
-245.12500000000003
20
3.0249999999999999
10
-245.12500000000006
20
16.024999999999999
42
-0.4142135623730781
10
-244.62500000000003
20
16.525000000000002
10
-231.625
20
16.524999999999984
42
-0.41421356237312362
10
-231.125
20
16.024999999999999
10
-231.125
20
3.0250000000000021
42
-0.41421356237304757
10
-231.625
20
2.5249999999999999
0
LWPOLYLINE
5
117
100
AcDbEntity
8
0
100
AcDbPolyline
90
8
70
1
43
0.0
10
-31.100000000000001
20
22.074999999999999
42
-0.41421356237309503
10
-31.600000000000001
20
21.575000000000003
10
-44.600000000000009
20
21.575000000000003
42
-0.41421356237308982
10
-45.099999999999994
20
22.074999999999999
10
-45.099999999999994
20
35.075000000000003
42
-0.41421356237309503
10
-44.600000000000001
20
35.575000000000003
10
-31.600000000000001
20
35.575000000000003
42
-0.41421356237309503
10
-31.100000000000001
20
35.075000000000003
0
LWPOLYLINE
5
118
100
AcDbEntity
8
0
100
AcDbPolyline
90
14
70
1
43
0.0
10
-243.03125
20
60.174999999999997
10
-243.03125
20
73.174999999999997
42
0.41421356237313145
10
-243.53125000000003
20
73.674999999999997
10
-244.11824999999999
20
73.674999999999997
10
-244.11824999999999
20
75.174999999999997
42
0.41421356237313667
10
-244.61825000000002
20
75.674999999999997
10
-250.61824999999999
20
75.674999999999997
42
0.4142135623730222
10
-251.11824999999999
20
75.174999999999997
10
-251.11824999999999
20
73.674999999999997
10
-266.05624999999998
20
73.674999999999997
42
0.41421356237307422
10
-266.55624999999998
20
73.174999999999997
10
-266.55624999999998
20
60.174999999999997
42
0.41421356237313667
10
-266.05624999999998
20
59.675000000000004
10
-243.53125000000003
20
59.675000000000004
42
0.41421356237307422
0
LWPOLYLINE
5
119
100
AcDbEntity
8
0
100
AcDbPolyline
90
20
70
1
43
0.0
10
-131.11250000000001
20
41.125
42
-0.41421356237308982
10
-131.61250000000001
20
40.625
10
-144.61250000000001
20
40.624999999999993
42
-0.41421356237307422
10
-145.11250000000001
20
41.125
10
-145.11250000000001
20
54.125000000000007
42
-0.41421356237310025
10
-144.61250000000001
20
54.625
10
-131.61250000000001
20
54.625000000000014
42
-0.41421356237309503
10
-131.11250000000001
20
54.125000000000007
10
-131.11250000000001
20
48.089437928475022
42
-0.65764834515839599
10
-126.06250000000001
20
48.089437928475071
10
-126.0625
20
54.125000000000007
42
-0.41421356237310025
10
-125.5625
20
54.625
10
-112.56250000000001
20
54.625000000000014
42
-0.41421356237309503
10
-112.0625
20
54.125000000000007
10
-112.0625
20
41.125
42
-0.41421356237308982
10
-112.56250000000001
20
40.625
10
-125.5625
20
40.624999999999993
42
-0.41421356237307422
10
-126.06250000000001
20
41.125
10
-126.0625
20
45.910562071524922
42
-0.6576483451584012
10
-131.11250000000004
20
45.910562071524978
0
CIRCLE
5
120
100
AcDbEntity
8
0
100
AcDbCircle
10
-25.650002000000001
20
28.224999999999998
30
0
40
2.7499999999999991
210
0
220
-0
230
1
0
CIRCLE
5
121
100
AcDbEntity
8
0
100
AcDbCircle
10
-260.500001
20
28.224999999999998
30
0
40
2.7499999999999858
210
0
220
-0
230
1
0
LWPOLYLINE
5
122
100
AcDbEntity
8
0
100
AcDbPolyline
90
8
70
1
43
0.0
10
-16.024999999999999
20
2.5249999999999986
42
-0.41421356237309309
10
-16.525000000000002
20
3.0249999999999999
10
-16.525000000000002
20
16.024999999999999
42
-0.41421356237309243
10
-16.024999999999999
20
16.525000000000002
10
-3.0249999999999844
20
16.525000000000002
42
-0.4142135623730856
10
-2.5249999999999999
20
16.024999999999999
10
-2.5249999999999999
20
3.0250000000000021
42
-0.4142135623730957
10
-3.0249999999999999
20
2.5249999999999999
0
CIRCLE
5
123
100
AcDbEntity
8
0
100
AcDbCircle
10
-190.95000099999999
20
85.525000000000006
30
0
40
2.7499999999999858
210
0
220
-0
230
1
0
LWPOLYLINE
5
124
100
AcDbEntity
8
0
100
AcDbPolyline
90
8
70
1
43
0.0
10
-188.26250000000002
20
41.125
42
-0.4142135623730222
10
-188.76249999999999
20
40.625
10
-201.76249999999999
20
40.625
42
-0.41421356237313145
10
-202.26249999999999
20
41.125
10
-202.26250000000005
20
54.125000000000007
42
-0.41421356237307422
10
-201.76249999999999
20
54.625
10
-188.76249999999999
20
54.624999999999986
42
-0.41421356237312101
10
-188.26249999999999
20
54.125000000000007
0
LWPOLYLINE
5
125
100
AcDbEntity
8
0
100
AcDbPolyline
90
8
70
1
43
0.0
10
-87.46250000000002
20
40.624999999999993
42
-0.41421356237307422
10
-87.96250000000002
20
41.125
10
-87.962500000000006
20
54.125000000000007
42
-0.41421356237310025
10
-87.46250000000002
20
54.625
10
-74.462499999999991
20
54.625
42
-0.4142135623730846
10
-73.962500000000006
20
54.125000000000007
10
-73.962500000000006
20
41.125
42
-0.41421356237309503
10
-74.462500000000006
20
40.625
0
LWPOLYLINE
5
126
100
AcDbEntity
8
0
100
AcDbPolyline
90
8
70
1
43
0.0
10
-173.97499999999997
20
3.0249999999999999
42
-0.41421356237307749
10
-174.47500000000002
20
2.5249999999999999
10
-187.47499999999999
20
2.5249999999999995
42
-0.41421356237313273
10
-187.97499999999999
20
3.0249999999999999
10
-187.97500000000002
20
16.024999999999999
42
-0.4142135623730781
10
-187.47499999999999
20
16.525000000000002
10
-174.47500000000002
20
16.525000000000002
42
-0.41421356237313406
10
-173.97500000000002
20
16.024999999999999
0
LWPOLYLINE
5
127
100
AcDbEntity
8
0
100
AcDbPolyline
90
8
70
1
43
0.0
10
-207.31250000000003
20
41.125
42
-0.4142135623730222
10
-207.8125
20
40.625
10
-220.8125
20
40.625
42
-0.41421356237313145
10
-221.3125
20
41.125
10
-221.31250000000006
20
54.125000000000007
42
-0.41421356237307422
10
-220.8125
20
54.625
10
-207.8125
20
54.624999999999986
42
-0.41421356237312101
10
-207.3125
20
54.125000000000007
0
LWPOLYLINE
5
128
100
AcDbEntity
8
0
100
AcDbPolyline
90
8
70
1
43
0.0
10
-280.34375
20
78.724999999999994
42
-0.41421356237313667
10
-280.84375
20
79.224999999999994
10
-280.84375
20
92.224999999999994
42
-0.41421356237313667
10
-280.34375
20
92.725000000000009
10
-264.96249999999998
20
92.725000000000009
42
-0.41421356237313667
10
-264.46249999999998
20
92.224999999999994
10
-264.46249999999998
20
79.224999999999994
42
-0.41421356237307422
10
-264.96249999999998
20
78.724999999999994
0
LWPOLYLINE
5
129
100
AcDbEntity
8
0
100
AcDbPolyline
90
8
70
1
43
0.0
10
-14.431249999999999
20
60.174999999999997
42
-0.41421356237309764
10
-14.93125
20
59.675000000000004
10
-27.931249999999999
20
59.675000000000011
42
-0.41421356237309764
10
-28.431249999999999
20
60.174999999999997
10
-28.431249999999999
20
73.174999999999997
42
-0.41421356237309503
10
-27.931249999999999
20
73.674999999999997
10
-14.931249999999991
20
73.674999999999997
42
-0.41421356237308854
10
-14.43125
20
73.174999999999997
0
LWPOLYLINE
5
130
100
AcDbEntity
8
0
100
AcDbPolyline
90
8
70
1
43
0.0
10
-240.65000000000001
20
22.074999999999999
42
-0.41421356237305079
10
-241.15000000000003
20
21.575000000000003
10
-254.15000000000003
20
21.574999999999996
42
-0.41421356237313406
10
-254.65000000000003
20
22.074999999999999
10
-254.65000000000006
20
35.075000000000003
42
-0.41421356237307683
10
-254.15000000000003
20
35.575000000000003
10
-241.15000000000003
20
35.575000000000017
42
-0.41421356237310025
10
-240.65000000000001
20
35.075000000000003
0
LWPOLYLINE
5
131
100
AcDbEntity
8
0
100
AcDbPolyline
90
20
70
1
43
0.0
10
-250.17500000000001
20
3.0250000000000021
10
-250.17500000000001
20
16.024999999999999
42
0.41421356237312362
10
-250.67500000000001
20
16.524999999999999
10
-251.262
20
16.524999999999999
10
-251.262
20
18.024999999999999
42
0.41421356237312235
10
-251.762
20
18.525000000000009
10
-257.76200000000006
20
18.524999999999999
42
0.41421356237304563
10
-258.26200000000006
20
18.025000000000002
10
-258.262
20
16.524999999999999
10
-275.13799999999998
20
16.524999999999999
10
-275.13799999999998
20
18.024999999999999
42
0.41421356237312235
10
-275.63800000000003
20
18.524999999999999
10
-281.63799999999998
20
18.524999999999999
42
0.41421356237307683
10
-282.13799999999998
20
18.025000000000002
10
-282.13799999999998
20
16.524999999999999
10
-282.72500000000002
20
16.525000000000002
42
0.4142135623730781
10
-283.22500000000002
20
16.024999999999999
10
-283.22500000000002
20
3.0249999999999999
42
0.41421356237313273
10
-282.72500000000002
20
2.5249999999999995
10
-250.67500000000001
20
2.5249999999999999
42
0.41421356237304757
0
LWPOLYLINE
5
132
100
AcDbEntity
8
0
100
AcDbPolyline
90
8
70
1
43
0.0
10
-240.65000000000001
20
79.224999999999994
10
-240.65000000000001
20
92.224999999999994
42
0.41421356237310542
10
-241.15000000000003
20
92.725000000000009
10
-256.53125
20
92.725000000000009
42
0.41421356237310542
10
-257.03125000000006
20
92.224999999999994
10
-257.03125000000006
20
79.224999999999994
42
0.41421356237312623
10
-256.53125
20
78.724999999999994
10
-241.15000000000003
20
78.724999999999994
42
0.4142135623730222
0
LWPOLYLINE
5
133
100
AcDbEntity
8
0
100
AcDbPolyline
90
8
70
1
43
0.0
10
-232.71875
20
78.725000000000009
42
-0.41421356237312623
10
-233.21875000000003
20
79.224999999999994
10
-233.21875
20
92.224999999999994
42
-0.41421356237310542
10
-232.71875
20
92.725000000000009
10
-217.33750000000001
20
92.725000000000023
42
-0.41421356237310542
10
-216.83750000000001
20
92.224999999999994
10
-216.83750000000003
20
79.224999999999994
42
-0.4142135623730222
10
-217.33750000000001
20
78.724999999999994
0
LWPOLYLINE
5
134
100
AcDbEntity
8
0
100
AcDbPolyline
90
14
70
1
43
0.0
10
-203.02500000000003
20
76.725000000000009
42
-0.41421356237312623
10
-203.52500000000003
20
77.224999999999994
10
-203.52500000000003
20
78.724999999999994
10
-208.90625
20
78.725000000000009
42
-0.41421356237312623
10
-209.40625
20
79.224999999999994
10
-209.40624999999997
20
92.224999999999994
42
-0.41421356237310542
10
-208.90625
20
92.725000000000009
10
-195.90625000000003
20
92.725000000000023
42
-0.41421356237310542
10
-195.40625000000003
20
92.224999999999994
10
-195.40625000000006
20
79.224999999999994
42
-0.4142135623730222
10
-195.90625000000003
20
78.724999999999994
10
-196.52500000000003
20
78.724999999999994
10
-196.52499999999998
20
77.224999999999994
42
-0.41421356237312623
10
-197.02500000000001
20
76.724999999999994
0
LWPOLYLINE
5
135
100
AcDbEntity
8
0
100
AcDbPolyline
90
8
70
1
43
0.0
10
-23.168749999999999
20
40.625
42
-0.41421356237309503
10
-23.668749999999999
20
41.125
10
-23.668749999999999
20
54.125000000000007
42
-0.41421356237309503
10
-23.168749999999999
20
54.625
10
-5.4062499999999858
20
54.625
42
-0.41421356237308593
10
-4.90625
20
54.125000000000007
10
-4.9062500000000053
20
41.125
42
-0.41421356237309309
10
-5.4062499999999991
20
40.625
0
LWPOLYLINE
5
136
100
AcDbEntity
8
0
100
AcDbPolyline
90
8
70
1
43
0.0
10
-20.787500000000001
20
78.725000000000009
42
-0.41421356237309764
10
-21.287500000000001
20
79.224999999999994
10
-21.287500000000005
20
92.224999999999994
42
-0.41421356237309243
10
-20.787500000000001
20
92.725000000000009
10
-5.4062499999999858
20
92.725000000000023
42
-0.41421356237309698
10
-4.90625
20
92.224999999999994
10
-4.9062500000000009
20
79.224999999999994
42
-0.4142135623730957
10
-5.4062499999999991
20
78.724999999999994
0
LWPOLYLINE
5
137
100
AcDbEntity
8
0
100
AcDbPolyline
90
8
70
1
43
0.0
10
-68.412499999999994
20
78.724999999999994
42
-0.41421356237309503
10
-68.912499999999994
20
79.224999999999994
10
-68.912500000000009
20
92.224999999999994
42
-0.41421356237309503
10
-68.412499999999994
20
92.725000000000009
10
-53.031250000000014
20
92.725000000000009
42
-0.41421356237309503
10
-52.531250000000007
20
92.224999999999994
10
-52.531250000000007
20
79.224999999999994
42
-0.41421356237309503
10
-53.031250000000007
20
78.724999999999994
0
LWPOLYLINE
5
138
100
AcDbEntity
8
0
100
AcDbPolyline
90
8
70
1
43
0.0
10
-44.600000000000001
20
78.724999999999994
42
-0.41421356237309503
10
-45.099999999999994
20
79.224999999999994
10
-45.100000000000009
20
92.224999999999994
42
-0.41421356237309503
10
-44.600000000000001
20
92.725000000000009
10
-29.21875
20
92.725000000000009
42
-0.41421356237310542
10
-28.71875
20
92.224999999999994
10
-28.718749999999996
20
79.224999999999994
42
-0.41421356237309764
10
-29.21875
20
78.724999999999994
0
LWPOLYLINE
5
139
100
AcDbEntity
8
0
100
AcDbPolyline
90
8
70
1
43
0.0
10
-89.225000000000009
20
91.225000000000009
10
-89.225000000000009
20
77.224999999999994
42
0.414213562373069
10
-88.725000000000023
20
76.724999999999994
10
-77.96875
20
76.724999999999994
42
0.41421356237311585
10
-77.46875
20
77.224999999999994
10
-77.46875
20
91.225000000000009
42
0.41421356237310542
10
-77.96875
20
91.724999999999994
10
-88.725000000000009
20
91.724999999999994
42
0.41421356237309503
0
LWPOLYLINE
5
140
100
AcDbEntity
8
0
100
AcDbPolyline
90
8
70
1
43
0.0
10
-149.375
20
78.72499999999998
42
-0.41421356237310025
10
-149.875
20
79.224999999999994
10
-149.875
20
92.224999999999994
42
-0.41421356237309503
10
-149.375
20
92.725000000000009
10
-124.46875
20
92.725000000000009
42
-0.41421356237307422
10
-123.96875
20
92.224999999999994
10
-123.96875000000001
20
79.224999999999994
42
-0.41421356237310542
10
-124.46875
20
78.724999999999994
0
LWPOLYLINE
5
141
100
AcDbEntity
8
0
100
AcDbPolyline
90
8
70
1
43
0.0
10
-177.96875
20
91.724999999999994
42
-0.4142135623730846
10
-177.46875
20
91.225000000000009
10
-177.46874999999994
20
77.224999999999994
42
-0.41421356237312623
10
-177.96875
20
76.724999999999994
10
-183.96875
20
76.725000000000009
42
-0.41421356237312623
10
-184.46875000000003
20
77.224999999999994
10
-184.46875
20
91.225000000000009
42
-0.41421356237307422
10
-183.96875
20
91.724999999999994
0
LWPOLYLINE
5
142
100
AcDbEntity
8
0
100
AcDbPolyline
90
8
70
1
43
0.0
10
-216.83750000000003
20
60.174999999999997
42
-0.4142135623730222
10
-217.33750000000001
20
59.675000000000004
10
-230.33750000000001
20
59.674999999999997
42
-0.41421356237313667
10
-230.83750000000003
20
60.174999999999997
10
-230.83750000000006
20
73.174999999999997
42
-0.41421356237307422
10
-230.33750000000001
20
73.674999999999997
10
-217.33750000000001
20
73.674999999999983
42
-0.41421356237312101
10
-216.83750000000001
20
73.174999999999997
0
LWPOLYLINE
5
143
100
AcDbEntity
8
0
100
AcDbPolyline
90
14
70
1
43
0.0
10
-267.99425000000002
20
61.174999999999997
10
-267.99425000000002
20
75.174999999999997
42
0.41421356237312623
10
-268.49425000000002
20
75.675000000000011
10
-274.49425000000008
20
75.674999999999997
42
0.4142135623730222
10
-274.99425000000008
20
75.174999999999997
10
-274.99425000000008
20
73.674999999999997
10
-282.72500000000002
20
73.674999999999997
42
0.41421356237307422
10
-283.22500000000002
20
73.174999999999997
10
-283.22500000000002
20
60.174999999999997
42
0.41421356237313667
10
-282.72500000000002
20
59.675000000000004
10
-269.72500000000002
20
59.675000000000004
42
0.4142135623730222
10
-269.22500000000002
20
60.174999999999997
10
-269.22500000000002
20
60.674999999999997
10
-268.49425000000002
20
60.674999999999997
42
0.4142135623730222
0
LWPOLYLINE
5
144
100
AcDbEntity
8
0
100
AcDbPolyline
90
8
70
1
43
0.0
10
-197.78749999999999
20
60.174999999999997
10
-197.78749999999999
20
73.174999999999997
42
0.41421356237312101
10
-198.28749999999999
20
73.674999999999997
10
-211.28749999999999
20
73.674999999999997
42
0.41421356237307422
10
-211.78750000000002
20
73.174999999999997
10
-211.78750000000002
20
60.174999999999997
42
0.41421356237313667
10
-211.28749999999999
20
59.675000000000004
10
-198.28749999999999
20
59.675000000000004
42
0.4142135623730222
0
LWPOLYLINE
5
145
100
AcDbEntity
8
0
100
AcDbPolyline
90
8
70
1
43
0.0
10
-159.6875
20
60.174999999999997
42
-0.41421356237309503
10
-160.1875
20
59.675000000000004
10
-173.1875
20
59.675000000000011
42
-0.41421356237312623
10
-173.68750000000003
20
60.174999999999997
10
-173.6875
20
73.174999999999997
42
-0.4142135623730222
10
-173.1875
20
73.674999999999997
10
-160.1875
20
73.675000000000011
42
-0.41421356237309503
10
-159.6875
20
73.174999999999997
0
LWPOLYLINE
5
146
100
AcDbEntity
8
0
100
AcDbPolyline
90
8
70
1
43
0.0
10
-140.63749999999999
20
60.174999999999997
10
-140.63749999999999
20
73.174999999999997
42
0.41421356237309503
10
-141.13749999999999
20
73.674999999999997
10
-154.13749999999999
20
73.674999999999997
42
0.41421356237308982
10
-154.63750000000002
20
73.174999999999997
10
-154.63750000000002
20
60.174999999999997
42
0.41421356237310025
10
-154.13749999999999
20
59.675000000000004
10
-141.13749999999999
20
59.675000000000004
42
0.41421356237310542
0
LWPOLYLINE
5
147
100
AcDbEntity
8
0
100
AcDbPolyline
90
8
70
1
43
0.0
10
-102.53749999999999
20
60.174999999999997
42
-0.41421356237310542
10
-103.03750000000001
20
59.675000000000004
10
-116.03749999999998
20
59.674999999999983
42
-0.41421356237307944
10
-116.53750000000001
20
60.174999999999997
10
-116.53749999999999
20
73.174999999999997
42
-0.41421356237310025
10
-116.03749999999999
20
73.674999999999997
10
-103.03750000000001
20
73.675000000000011
42
-0.41421356237309503
10
-102.53749999999999
20
73.174999999999997
0
LWPOLYLINE
5
148
100
AcDbEntity
8
0
100
AcDbPolyline
90
8
70
1
43
0.0
10
-121.58750000000001
20
60.174999999999997
10
-121.58750000000001
20
73.174999999999997
42
0.41421356237309503
10
-122.08750000000002
20
73.674999999999997
10
-135.08750000000001
20
73.674999999999997
42
0.41421356237310025
10
-135.58750000000001
20
73.174999999999997
10
-135.58750000000001
20
60.174999999999997
42
0.41421356237307944
10
-135.08750000000001
20
59.675000000000004
10
-122.08750000000002
20
59.675000000000004
42
0.41421356237310542
0
LWPOLYLINE
5
149
100
AcDbEntity
8
0
100
AcDbPolyline
90
8
70
1
43
0.0
10
-83.487499999999983
20
60.174999999999997
10
-83.487499999999983
20
73.174999999999997
42
0.41421356237309503
10
-83.987499999999997
20
73.675000000000011
10
-96.987500000000011
20
73.674999999999997
42
0.41421356237308982
10
-97.487500000000011
20
73.174999999999997
10
-97.487500000000011
20
60.174999999999997
42
0.41421356237310025
10
-96.987500000000011
20
59.675000000000004
10
-83.987499999999997
20
59.675000000000004
42
0.41421356237310542
0
LWPOLYLINE
5
150
100
AcDbEntity
8
0
100
AcDbPolyline
90
8
70
1
43
0.0
10
-178.73750000000001
20
60.174999999999997
10
-178.73750000000001
20
73.174999999999997
42
0.41421356237313145
10
-179.23750000000001
20
73.674999999999997
10
-192.23750000000001
20
73.674999999999997
42
0.4142135623730222
10
-192.73750000000004
20
73.174999999999997
10
-192.73750000000004
20
60.174999999999997
42
0.41421356237312623
10
-192.23750000000001
20
59.675000000000004
10
-179.23750000000001
20
59.675000000000004
42
0.41421356237307422
0
LWPOLYLINE
5
151
100
AcDbEntity
8
0
100
AcDbPolyline
90
8
70
1
43
0.0
10
-77.9375
20
59.675000000000004
42
-0.41421356237309503
10
-78.4375
20
60.174999999999997
10
-78.4375
20
73.174999999999997
42
-0.41421356237309503
10
-77.9375
20
73.674999999999997
10
-64.937499999999986
20
73.674999999999997
42
-0.4142135623730846
10
-64.4375
20
73.174999999999997
10
-64.4375
20
60.174999999999997
42
-0.41421356237310542
10
-64.9375
20
59.675000000000004
0
LWPOLYLINE
5
152
100
AcDbEntity
8
0
100
AcDbPolyline
90
8
70
1
43
0.0
10
-107.30000000000001
20
22.074999999999999
42
-0.41421356237310802
10
-107.80000000000001
20
21.575000000000003
10
-120.8
20
21.574999999999992
42
-0.41421356237307422
10
-121.30000000000001
20
22.074999999999999
10
-121.29999999999998
20
35.075000000000003
42
-0.41421356237310025
10
-120.8
20
35.575000000000003
10
-107.80000000000001
20
35.575000000000003
42
-0.41421356237309243
10
-107.30000000000001
20
35.075000000000003
0
LWPOLYLINE
5
153
100
AcDbEntity
8
0
100
AcDbPolyline
90
8
70
1
43
0.0
10
-164.44999999999999
20
22.074999999999999
42
-0.41421356237308204
10
-164.95000000000002
20
21.575000000000003
10
-177.94999999999999
20
21.574999999999996
42
-0.41421356237313406
10
-178.44999999999999
20
22.074999999999999
10
-178.45000000000002
20
35.075000000000003
42
-0.41421356237307683
10
-177.94999999999999
20
35.575000000000003
10
-164.95000000000002
20
35.575000000000003
42
-0.41421356237313145
10
-164.44999999999999
20
35.075000000000003
0
LWPOLYLINE
5
154
100
AcDbEntity
8
0
100
AcDbPolyline
90
8
70
1
43
0.0
10
-145.40000000000003
20
22.074999999999999
42
-0.4142135623730846
10
-145.90000000000001
20
21.575000000000003
10
-158.90000000000001
20
21.574999999999992
42
-0.41421356237309503
10
-159.40000000000001
20
22.074999999999999
10
-159.40000000000001
20
35.075000000000003
42
-0.41421356237310542
10
-158.90000000000001
20
35.575000000000003
10
-145.90000000000001
20
35.575000000000003
42
-0.41421356237307161
10
-145.40000000000001
20
35.075000000000003
0
LWPOLYLINE
5
155
100
AcDbEntity
8
0
100
AcDbPolyline
90
8
70
1
43
0.0
10
-126.35000000000002
20
22.074999999999999
42
-0.4142135623730846
10
-126.85000000000001
20
21.575000000000003
10
-139.84999999999999
20
21.574999999999992
42
-0.41421356237309503
10
-140.34999999999999
20
22.074999999999999
10
-140.34999999999999
20
35.075000000000003
42
-0.41421356237310542
10
-139.84999999999999
20
35.575000000000003
10
-126.85000000000001
20
35.575000000000003
42
-0.41421356237307161
10
-126.34999999999999
20
35.075000000000003
0
LWPOLYLINE
5
156
100
AcDbEntity
8
0
100
AcDbPolyline
90
8
70
1
43
0.0
10
-183.5
20
22.074999999999999
42
-0.41421356237308204
10
-184.00000000000003
20
21.575000000000003
10
-197.00000000000003
20
21.574999999999982
42
-0.41421356237310281
10
-197.50000000000003
20
22.074999999999999
10
-197.50000000000003
20
35.075000000000003
42
-0.41421356237304563
10
-197.00000000000003
20
35.575000000000003
10
-184.00000000000003
20
35.575000000000003
42
-0.41421356237313145
10
-183.5
20
35.075000000000003
0
LWPOLYLINE
5
157
100
AcDbEntity
8
0
100
AcDbPolyline
90
8
70
1
43
0.0
10
-35.862500000000004
20
41.125
42
-0.41421356237309503
10
-36.362499999999997
20
40.625
10
-49.362500000000011
20
40.625
42
-0.41421356237308982
10
-49.862499999999997
20
41.125
10
-49.862499999999997
20
54.125000000000007
42
-0.41421356237309503
10
-49.362500000000004
20
54.625
10
-36.362500000000004
20
54.625
42
-0.41421356237309764
10
-35.862500000000004
20
54.125000000000007
0
LWPOLYLINE
5
158
100
AcDbEntity
8
0
100
AcDbPolyline
90
8
70
1
43
0.0
10
-69.200000000000017
20
22.074999999999999
42
-0.41421356237309764
10
-69.700000000000003
20
21.575000000000003
10
-82.700000000000031
20
21.574999999999992
42
-0.41421356237306384
10
-83.200000000000017
20
22.074999999999999
10
-83.200000000000003
20
35.075000000000003
42
-0.41421356237310025
10
-82.700000000000017
20
35.575000000000003
10
-69.699999999999989
20
35.575000000000003
42
-0.41421356237308721
10
-69.200000000000003
20
35.075000000000003
0
LWPOLYLINE
5
159
100
AcDbEntity
8
0
100
AcDbPolyline
90
8
70
1
43
0.0
10
-202.55000000000001
20
22.074999999999999
42
-0.41421356237308204
10
-203.05000000000004
20
21.575000000000003
10
-216.05000000000004
20
21.574999999999982
42
-0.41421356237310281
10
-216.55000000000004
20
22.074999999999999
10
-216.55000000000004
20
35.075000000000003
42
-0.41421356237304563
10
-216.05000000000004
20
35.575000000000003
10
-203.05000000000004
20
35.575000000000003
42
-0.41421356237313145
10
-202.55000000000001
20
35.075000000000003
0
LWPOLYLINE
5
160
100
AcDbEntity
8
0
100
AcDbPolyline
90
8
70
1
43
0.0
10
-54.912500000000009
20
41.125
42
-0.41421356237309503
10
-55.412500000000009
20
40.625
10
-68.412499999999994
20
40.625
42
-0.41421356237310025
10
-68.912499999999994
20
41.125
10
-68.912499999999994
20
54.125000000000007
42
-0.41421356237309503
10
-68.412499999999994
20
54.625
10
-55.412500000000016
20
54.625
42
-0.41421356237310025
10
-54.912500000000009
20
54.125000000000007
0
LWPOLYLINE
5
161
100
AcDbEntity
8
0
100
AcDbPolyline
90
8
70
1
43
0.0
10
-264.46249999999998
20
22.074999999999999
42
-0.41421356237308204
10
-264.96249999999998
20
21.575000000000003
10
-277.96249999999998
20
21.574999999999982
42
-0.41421356237310281
10
-278.46250000000003
20
22.074999999999999
10
-278.46250000000003
20
35.075000000000003
42
-0.41421356237304563
10
-277.96249999999998
20
35.575000000000003
10
-264.96249999999998
20
35.575000000000003
42
-0.41421356237313145
10
-264.46249999999998
20
35.075000000000003
0
LWPOLYLINE
5
162
100
AcDbEntity
8
0
100
AcDbPolyline
90
8
70
1
43
0.0
10
-221.59999999999999
20
22.074999999999999
42
-0.41421356237305079
10
-222.10000000000002
20
21.575000000000003
10
-235.10000000000002
20
21.574999999999996
42
-0.41421356237313406
10
-235.60000000000002
20
22.074999999999999
10
-235.60000000000005
20
35.075000000000003
42
-0.41421356237307683
10
-235.10000000000002
20
35.575000000000003
10
-222.10000000000002
20
35.575000000000017
42
-0.41421356237310025
10
-221.59999999999999
20
35.075000000000003
0
LWPOLYLINE
5
163
100
AcDbEntity
8
0
100
AcDbPolyline
90
8
70
1
43
0.0
10
-59.675000000000004
20
3.0249999999999999
42
-0.41421356237309664
10
-60.174999999999997
20
2.5249999999999999
10
-73.174999999999983
20
2.525000000000003
42
-0.41421356237309959
10
-73.674999999999997
20
3.0249999999999999
10
-73.674999999999997
20
16.024999999999999
42
-0.4142135623730937
10
-73.174999999999997
20
16.525000000000002
10
-60.174999999999983
20
16.525000000000002
42
-0.41421356237308721
10
-59.675000000000004
20
16.024999999999999
0
LWPOLYLINE
5
164
100
AcDbEntity
8
0
100
AcDbPolyline
90
8
70
1
43
0.0
10
-272.75675000000007
20
42.125
42
-0.4142135623730222
10
-273.25675000000001
20
41.625000000000007
10
-279.25675000000001
20
41.625
42
-0.41421356237313667
10
-279.75675000000001
20
42.125
10
-279.75675000000007
20
56.125000000000007
42
-0.41421356237307422
10
-279.25675000000001
20
56.625000000000007
10
-273.25675000000001
20
56.625
42
-0.41421356237312623
10
-272.75675000000001
20
56.125000000000007
0
LWPOLYLINE
5
165
100
AcDbEntity
8
0
100
AcDbPolyline
90
8
70
1
43
0.0
10
-226.36250000000004
20
41.125
42
-0.4142135623730222
10
-226.86250000000001
20
40.625
10
-239.86250000000001
20
40.625
42
-0.41421356237313145
10
-240.36250000000001
20
41.125
10
-240.36250000000007
20
54.125000000000007
42
-0.41421356237307422
10
-239.86250000000001
20
54.625
10
-226.86250000000001
20
54.624999999999986
42
-0.41421356237312101
10
-226.36250000000001
20
54.125000000000007
0
LWPOLYLINE
5
166
100
AcDbEntity
8
0
100
AcDbPolyline
90
8
70
1
43
0.0
10
-116.82499999999999
20
3.0249999999999999
42
-0.41421356237310542
10
-117.32500000000002
20
2.5249999999999999
10
-130.32499999999999
20
2.5249999999999941
42
-0.41421356237309437
10
-130.82499999999999
20
3.0249999999999999
10
-130.82499999999999
20
16.024999999999999
42
-0.41421356237310675
10
-130.32499999999999
20
16.525000000000002
10
-117.32500000000002
20
16.525000000000009
42
-0.41421356237309631
10
-116.82500000000002
20
16.024999999999999
0
LWPOLYLINE
5
167
100
AcDbEntity
8
0
100
AcDbPolyline
90
8
70
1
43
0.0
10
-45.387500000000003
20
60.174999999999997
42
-0.41421356237309503
10
-45.887500000000003
20
59.675000000000004
10
-58.887500000000017
20
59.675000000000004
42
-0.41421356237308982
10
-59.387500000000003
20
60.174999999999997
10
-59.387500000000003
20
73.174999999999997
42
-0.41421356237309503
10
-58.88750000000001
20
73.674999999999997
10
-45.88750000000001
20
73.674999999999997
42
-0.41421356237310025
10
-45.387500000000003
20
73.174999999999997
0
LWPOLYLINE
5
168
100
AcDbEntity
8
0
100
AcDbPolyline
90
8
70
1
43
0.0
10
-29.869249999999997
20
61.174999999999997
42
-0.41421356237309764
10
-30.369250000000001
20
60.674999999999997
10
-36.369250000000015
20
60.675000000000011
42
-0.41421356237308982
10
-36.869250000000001
20
61.174999999999997
10
-36.869250000000008
20
75.174999999999997
42
-0.41421356237309764
10
-36.369250000000001
20
75.674999999999997
10
-30.369250000000001
20
75.674999999999983
42
-0.41421356237309764
10
-29.869250000000001
20
75.174999999999997
0
LWPOLYLINE
5
169
100
AcDbEntity
8
0
100
AcDbPolyline
90
8
70
1
43
0.0
10
-111.27500000000001
20
2.5249999999999941
42
-0.41421356237309437
10
-111.77500000000002
20
3.0249999999999999
10
-111.77500000000002
20
16.024999999999999
42
-0.41421356237310675
10
-111.27500000000001
20
16.525000000000002
10
-98.275000000000006
20
16.525000000000009
42
-0.41421356237309631
10
-97.775000000000006
20
16.024999999999999
10
-97.774999999999977
20
3.0250000000000021
42
-0.41421356237310675
10
-98.275000000000006
20
2.5249999999999999
0
LWPOLYLINE
5
170
100
AcDbEntity
8
0
100
AcDbPolyline
90
16
70
1
43
0.0
10
0
20
58.375000000000014
10
-4.5000010000000046
20
58.375000000000014
42
0.99999999999999989
10
-4.5000010000000046
20
55.375000000000007
10
0
20
55.375
10
0
20
1.0000000000000009
42
-0.41421356237309892
10
-1.0000000000000142
20
0
10
-284.75000000000006
20
1.1934897514720433e-14
42
-0.41421356237307599
10
-285.75
20
0.99999999999999645
10
-285.75
20
55.321249999999999
10
-281.45000099999999
20
55.321249999999999
42
0.99999999999999989
10
-281.45000099999999
20
58.321250000000006
10
-285.75
20
58.321250000000006
10
-285.75
20
94.249999999999986
42
-0.41421356237310025
10
-284.75
20
95.25
10
-0.99999999999999645
20
95.25
42
-0.41421356237309503
10
0
20
94.25
0
ENDSEC
0
SECTION
2
OBJECTS
0
DICTIONARY
5
C
100
AcDbDictionary
3
ACAD_GROUP
350
D
3
ACAD_MLINESTYLE
350
17
0
DICTIONARY
5
D
100
AcDbDictionary
0
DICTIONARY
5
1A
330
C
100
AcDbDictionary
0
DICTIONARY
5
17
100
AcDbDictionary
0
ENDSEC
0
EOF
