M48
; DRILL file {KiCad (5.1.4)-1} date 12/23/2020 11:42:13 PM
; FORMAT={-:-/ absolute / metric / decimal}
; #@! TF.CreationDate,2020-12-23T23:42:13-08:00
; #@! TF.GenerationSoftware,Kicad,Pcbnew,(5.1.4)-1
FMAT,2
METRIC
T1C0.400
T2C0.600
T3C1.470
T4C2.500
T5C0.650
T6C1.750
T7C3.048
T8C3.988
%
G90
G05
T1
X9.165Y-0.265
X9.725Y-31.625
X9.905Y-36.995
X10.175Y-8.525
X12.465Y-23.815
X13.425Y-16.835
X14.025Y-26.725
X14.125Y-31.625
X14.2Y-0.395
X14.225Y-36.525
X14.5Y-6.975
X16.875Y-7.425
X17.225Y-44.825
X17.4Y-28.3
X19.95Y-46.775
X20.028Y-42.028
X22.165Y-34.195
X23.105Y-17.255
X25.478Y-27.528
X26.875Y-44.575
X27.775Y-23.925
X29.725Y-25.975
X29.975Y-37.025
X30.031Y-32.318
X30.885Y-53.015
X31.464Y-26.586
X31.966Y-30.067
X32.605Y-36.005
X32.694Y-32.725
X35.808Y-46.775
X45.365Y-31.095
X45.415Y-47.185
X53.917Y-46.142
X59.695Y-31.125
X64.438Y-36.538
X64.438Y-46.775
X72.174Y-45.672
X78.725Y-31.125
X90.849Y-45.218
X97.785Y-31.055
X109.066Y-44.764
X116.825Y-31.085
X127.989Y-44.31
X135.885Y-31.095
X146.816Y-43.856
X154.955Y-31.105
X174.055Y-31.015
X180.26Y-26.734
X183.495Y-71.575
X193.155Y-31.015
X199.022Y-26.28
X217.998Y-25.826
X236.84Y-25.372
T3
X41.578Y-57.135
X47.927Y-54.595
X151.115Y0.015
X157.465Y2.555
X215.409Y-76.185
X221.759Y-73.645
X46.34Y-19.035
X52.69Y-16.495
X265.415Y0.015
X271.765Y2.555
X246.365Y0.015
X252.715Y2.555
X3.478Y-19.035
X9.827Y-16.495
X17.765Y0.015
X24.115Y2.555
X253.509Y-38.085
X259.859Y-35.545
X213.028Y-57.135
X219.377Y-54.595
X27.29Y-19.035
X33.64Y-16.495
X10.621Y-57.135
X16.971Y-54.595
X55.865Y0.015
X62.215Y2.555
X155.877Y-57.135
X162.227Y-54.595
X51.102Y-76.185
X57.453Y-73.645
X222.552Y-38.085
X228.903Y-35.545
X89.202Y-38.085
X95.552Y-35.545
X227.315Y0.015
X233.665Y2.555
X260.652Y-76.185
X267.002Y-73.645
X103.49Y-19.035
X109.84Y-16.495
X48.721Y-76.185
X55.071Y-73.645
X32.053Y-38.085
X38.402Y-35.545
X74.915Y0.015
X81.265Y2.555
X3.478Y-76.185
X9.827Y-73.645
X179.69Y-19.035
X186.04Y-16.495
X136.827Y-57.135
X143.177Y-54.595
X24.909Y-76.185
X31.259Y-73.645
X255.89Y0.015
X262.24Y2.555
X203.502Y-38.085
X209.852Y-35.545
X120.159Y-76.185
X126.509Y-73.645
X198.74Y-19.035
X205.09Y-16.495
X60.627Y-57.135
X66.977Y-54.595
X193.977Y-57.135
X200.327Y-54.595
X213.028Y-76.185
X219.377Y-73.645
X127.302Y-38.085
X133.653Y-35.545
X208.265Y0.015
X214.615Y2.555
X191.596Y-76.185
X197.946Y-73.645
X117.777Y-57.135
X124.127Y-54.595
X79.677Y-57.135
X86.027Y-54.595
X93.965Y0.015
X100.315Y2.555
X70.153Y-38.085
X76.502Y-35.545
X141.59Y-19.035
X147.94Y-16.495
X132.065Y-76.185
X138.415Y-73.645
X160.64Y-19.035
X166.99Y-16.495
X113.015Y0.015
X119.365Y2.555
X263.034Y-76.185
X269.384Y-73.645
X5.859Y-38.085
X12.209Y-35.545
X1.096Y-38.085
X7.446Y-35.545
X65.39Y-19.035
X71.74Y-16.495
X-1.285Y0.015
X5.065Y2.555
X165.403Y-38.085
X171.752Y-35.545
X170.165Y0.015
X176.515Y2.555
X1.096Y-76.185
X7.446Y-73.645
X260.652Y-19.035
X267.002Y-16.495
X108.253Y-38.085
X114.603Y-35.545
X248.746Y-57.135
X255.096Y-54.595
X236.84Y-19.035
X243.19Y-16.495
X146.352Y-38.085
X152.702Y-35.545
X189.215Y0.015
X195.565Y2.555
X174.927Y-57.135
X181.278Y-54.595
X236.84Y-76.185
X243.19Y-73.645
X98.727Y-57.135
X105.078Y-54.595
X36.815Y0.015
X43.165Y2.555
X239.221Y-57.135
X245.571Y-54.595
X27.29Y-76.185
X33.64Y-73.645
X184.452Y-38.085
X190.802Y-35.545
X51.102Y-38.085
X57.453Y-35.545
X122.54Y-19.035
X128.89Y-16.495
X239.221Y-76.185
X245.571Y-73.645
X84.44Y-19.035
X90.79Y-16.495
X132.065Y0.015
X138.415Y2.555
X265.415Y-57.135
X271.765Y-54.595
X217.79Y-19.035
X224.14Y-16.495
T5
X8.76Y2.425
X14.54Y2.425
T6
X73.645Y-2.525
X83.805Y-2.525
X2.208Y-78.725
X12.367Y-78.725
X178.42Y-21.575
X188.58Y-21.575
X135.558Y-59.675
X145.718Y-59.675
X23.639Y-78.725
X33.799Y-78.725
X254.62Y-2.525
X264.78Y-2.525
X202.232Y-40.625
X212.392Y-40.625
X118.889Y-78.725
X129.049Y-78.725
X197.47Y-21.575
X207.63Y-21.575
X59.357Y-59.675
X69.517Y-59.675
X192.707Y-59.675
X202.867Y-59.675
X211.757Y-78.725
X221.917Y-78.725
X126.032Y-40.625
X136.192Y-40.625
X206.995Y-2.525
X217.155Y-2.525
X190.326Y-78.725
X200.486Y-78.725
X116.507Y-59.675
X126.667Y-59.675
X78.407Y-59.675
X88.567Y-59.675
X92.695Y-2.525
X102.855Y-2.525
X68.882Y-40.625
X79.042Y-40.625
X140.32Y-21.575
X150.48Y-21.575
X130.795Y-78.725
X140.955Y-78.725
X159.37Y-21.575
X169.53Y-21.575
X111.745Y-2.525
X121.905Y-2.525
X261.764Y-78.725
X271.924Y-78.725
X4.589Y-40.625
X14.749Y-40.625
X-0.174Y-40.625
X9.986Y-40.625
X64.12Y-21.575
X74.28Y-21.575
X-2.555Y-2.525
X7.605Y-2.525
X164.132Y-40.625
X174.292Y-40.625
X168.895Y-2.525
X179.055Y-2.525
X-0.174Y-78.725
X9.986Y-78.725
X259.382Y-21.575
X269.542Y-21.575
X106.983Y-40.625
X117.143Y-40.625
X247.476Y-59.675
X257.636Y-59.675
X235.57Y-21.575
X245.73Y-21.575
X145.082Y-40.625
X155.243Y-40.625
X187.945Y-2.525
X198.105Y-2.525
X173.657Y-59.675
X183.817Y-59.675
X235.57Y-78.725
X245.73Y-78.725
X97.457Y-59.675
X107.617Y-59.675
X35.545Y-2.525
X45.705Y-2.525
X237.951Y-59.675
X248.111Y-59.675
X26.02Y-78.725
X36.18Y-78.725
X183.183Y-40.625
X193.343Y-40.625
X49.832Y-40.625
X59.992Y-40.625
X121.27Y-21.575
X131.43Y-21.575
X237.951Y-78.725
X248.111Y-78.725
X83.17Y-21.575
X93.33Y-21.575
X130.795Y-2.525
X140.955Y-2.525
X264.145Y-59.675
X274.305Y-59.675
X216.52Y-21.575
X226.68Y-21.575
X40.307Y-59.675
X50.468Y-59.675
X149.845Y-2.525
X160.005Y-2.525
X214.139Y-78.725
X224.299Y-78.725
X45.07Y-21.575
X55.23Y-21.575
X264.145Y-2.525
X274.305Y-2.525
X245.095Y-2.525
X255.255Y-2.525
X2.208Y-21.575
X12.367Y-21.575
X16.495Y-2.525
X26.655Y-2.525
X252.239Y-40.625
X262.399Y-40.625
X211.757Y-59.675
X221.917Y-59.675
X26.02Y-21.575
X36.18Y-21.575
X9.351Y-59.675
X19.511Y-59.675
X54.595Y-2.525
X64.755Y-2.525
X154.607Y-59.675
X164.767Y-59.675
X49.832Y-78.725
X59.992Y-78.725
X221.282Y-40.625
X231.442Y-40.625
X87.932Y-40.625
X98.092Y-40.625
X226.045Y-2.525
X236.205Y-2.525
X259.382Y-78.725
X269.542Y-78.725
X102.22Y-21.575
X112.38Y-21.575
X47.451Y-78.725
X57.611Y-78.725
X30.782Y-40.625
X40.942Y-40.625
T7
X2.525Y-52.69
X26.337Y-52.69
X247.794Y4.46
X271.606Y4.46
X73.969Y-85.71
X173.969Y-85.71
X78.725Y-85.71
X193.025Y-85.71
X240.65Y-52.69
X264.462Y-52.69
X245.412Y-33.64
X269.225Y-33.64
T8
X45.387Y-59.675
X154.925Y-2.525
X219.219Y-78.725
X50.15Y-21.575
X269.225Y-2.525
X250.175Y-2.525
X7.287Y-21.575
X21.575Y-2.525
X245.412Y-48.88
X257.319Y-40.625
X269.225Y-48.88
X216.837Y-59.675
X31.1Y-21.575
X2.525Y-67.93
X14.431Y-59.675
X26.337Y-67.93
X59.675Y-2.525
X159.688Y-59.675
X54.912Y-78.725
X226.362Y-40.625
X93.012Y-40.625
X231.125Y-2.525
X264.462Y-78.725
X107.3Y-21.575
X52.531Y-78.725
X35.862Y-40.625
X78.725Y-2.525
X7.287Y-78.725
X183.5Y-21.575
X140.637Y-59.675
X28.719Y-78.725
X247.794Y-10.78
X259.7Y-2.525
X271.606Y-10.78
X207.312Y-40.625
X73.969Y-70.47
X123.969Y-78.725
X173.969Y-70.47
X202.55Y-21.575
X64.438Y-59.675
X197.787Y-59.675
X216.837Y-78.725
X131.112Y-40.625
X212.075Y-2.525
X195.406Y-78.725
X121.587Y-59.675
X83.487Y-59.675
X97.775Y-2.525
X73.962Y-40.625
X145.4Y-21.575
X78.725Y-70.47
X135.875Y-78.725
X193.025Y-70.47
X164.45Y-21.575
X116.825Y-2.525
X266.844Y-78.725
X9.669Y-40.625
X4.906Y-40.625
X69.2Y-21.575
X2.525Y-2.525
X169.213Y-40.625
X173.975Y-2.525
X4.906Y-78.725
X264.462Y-21.575
X112.063Y-40.625
X240.65Y-67.93
X252.556Y-59.675
X264.462Y-67.93
X240.65Y-21.575
X150.162Y-40.625
X193.025Y-2.525
X178.737Y-59.675
X240.65Y-78.725
X102.537Y-59.675
X40.625Y-2.525
X243.031Y-59.675
X31.1Y-78.725
X188.262Y-40.625
X54.912Y-40.625
X126.35Y-21.575
X243.031Y-78.725
X88.25Y-21.575
X135.875Y-2.525
X269.225Y-59.675
X221.6Y-21.575
T2
G00X7.33Y6.375
M15
G01X7.33Y5.775
M16
G05
G00X7.33Y2.445
M15
G01X7.33Y1.345
M16
G05
G00X15.97Y6.375
M15
G01X15.97Y5.775
M16
G05
G00X15.97Y2.445
M15
G01X15.97Y1.345
M16
G05
T4
G00X182.7Y-78.525
M15
G01X185.2Y-78.525
M16
G05
G00X-8.0Y-49.875
M15
G01X-2.5Y-49.875
M16
G05
G00X17.4Y-21.225
M15
G01X19.9Y-21.225
M16
G05
G00X120.337Y-40.0
M15
G01X122.837Y-40.0
M16
G05
G00X252.25Y-21.225
M15
G01X254.75Y-21.225
M16
G05
G00X274.45Y-49.821
M15
G01X279.95Y-49.821
M16
G05
T0
M30
