G04 #@! TF.GenerationSoftware,KiCad,Pcbnew,(5.1.4)-1*
G04 #@! TF.CreationDate,2020-12-23T23:42:08-08:00*
G04 #@! TF.ProjectId,Nodu,4e6f6475-2e6b-4696-9361-645f70636258,rev?*
G04 #@! TF.SameCoordinates,Original*
G04 #@! TF.FileFunction,Legend,Bot*
G04 #@! TF.FilePolarity,Positive*
%FSLAX46Y46*%
G04 Gerber Fmt 4.6, Leading zero omitted, Abs format (unit mm)*
G04 Created by KiCad (PCBNEW (5.1.4)-1) date 2020-12-23 23:42:08*
%MOMM*%
%LPD*%
G04 APERTURE LIST*
%ADD10C,0.120000*%
%ADD11C,0.150000*%
%ADD12C,0.125000*%
G04 APERTURE END LIST*
D10*
X27688604Y-25465812D02*
X26415812Y-26738604D01*
X28961396Y-29284188D02*
X30234188Y-28011396D01*
X30234188Y-28011396D02*
X30128122Y-27905330D01*
X28961396Y-29284188D02*
X28855330Y-29178122D01*
X26415812Y-26738604D02*
X26521878Y-26844670D01*
X27688604Y-25465812D02*
X27794670Y-25571878D01*
X17083832Y-34225000D02*
G75*
G03X17083832Y-34225000I-565686J0D01*
G01*
D11*
X22175000Y-26906445D02*
X21697703Y-27383742D01*
X14856445Y-34225000D02*
X15263031Y-33818414D01*
X14856445Y-34225000D02*
X15333742Y-34702297D01*
X29493555Y-34225000D02*
X29016258Y-33747703D01*
X22175000Y-26906445D02*
X22652297Y-27383742D01*
X22175000Y-41543555D02*
X21697703Y-41066258D01*
X22175000Y-41543555D02*
X22652297Y-41066258D01*
X15263031Y-33818414D02*
X14361470Y-32916852D01*
X29493555Y-34225000D02*
X29016258Y-34702297D01*
D10*
X17196267Y-5485000D02*
X16853733Y-5485000D01*
X17196267Y-4465000D02*
X16853733Y-4465000D01*
X7203733Y-4515000D02*
X7546267Y-4515000D01*
X7203733Y-5535000D02*
X7546267Y-5535000D01*
X-3385000Y-26596267D02*
X-3385000Y-26253733D01*
X-2365000Y-26596267D02*
X-2365000Y-26253733D01*
X-1485000Y-26596267D02*
X-1485000Y-26253733D01*
X-465000Y-26596267D02*
X-465000Y-26253733D01*
X25210480Y-43631729D02*
X24968271Y-43389520D01*
X25931729Y-42910480D02*
X25689520Y-42668271D01*
X31828733Y-30990000D02*
X32171267Y-30990000D01*
X31828733Y-32010000D02*
X32171267Y-32010000D01*
X11115000Y-11477064D02*
X11115000Y-10272936D01*
X12935000Y-11477064D02*
X12935000Y-10272936D01*
X13225000Y-7574999D02*
X10275000Y-7574999D01*
X10825000Y-4474999D02*
X13225000Y-4474999D01*
X15235480Y-28656729D02*
X14993271Y-28414520D01*
X15956729Y-27935480D02*
X15714520Y-27693271D01*
X19106729Y-43664520D02*
X18864520Y-43906729D01*
X18385480Y-42943271D02*
X18143271Y-43185480D01*
X25793272Y-25185480D02*
X26035481Y-24943271D01*
X26514521Y-25906729D02*
X26756730Y-25664520D01*
X31853733Y-33865000D02*
X32196267Y-33865000D01*
X31853733Y-34885000D02*
X32196267Y-34885000D01*
X11946267Y-32135000D02*
X11603733Y-32135000D01*
X11946267Y-31115000D02*
X11603733Y-31115000D01*
X254930000Y-71865000D02*
X254930000Y-73325000D01*
X251770000Y-71865000D02*
X251770000Y-73325000D01*
X254930000Y-71865000D02*
X254000000Y-71865000D01*
X251770000Y-71865000D02*
X252700000Y-71865000D01*
X206511250Y-71865001D02*
X206511250Y-73325001D01*
X203351250Y-71865001D02*
X203351250Y-73325001D01*
X206511250Y-71865001D02*
X205581250Y-71865001D01*
X203351250Y-71865001D02*
X204281250Y-71865001D01*
X97767499Y-71865000D02*
X97767499Y-73325000D01*
X94607499Y-71865000D02*
X94607499Y-73325000D01*
X97767499Y-71865000D02*
X96837499Y-71865000D01*
X94607499Y-71865000D02*
X95537499Y-71865000D01*
X20773750Y-71865000D02*
X20773750Y-73325000D01*
X17613750Y-71865000D02*
X17613750Y-73325000D01*
X20773750Y-71865000D02*
X19843750Y-71865000D01*
X17613750Y-71865000D02*
X18543750Y-71865000D01*
X259692500Y-48596250D02*
X259692500Y-50056250D01*
X256532500Y-48596250D02*
X256532500Y-50056250D01*
X259692500Y-48596250D02*
X258762500Y-48596250D01*
X256532500Y-48596250D02*
X257462500Y-48596250D01*
X227942500Y-52815000D02*
X227942500Y-54275000D01*
X224782500Y-52815000D02*
X224782500Y-54275000D01*
X227942500Y-52815000D02*
X227012500Y-52815000D01*
X224782500Y-52815000D02*
X225712500Y-52815000D01*
X189842500Y-52815000D02*
X189842500Y-54275000D01*
X186682500Y-52815000D02*
X186682500Y-54275000D01*
X189842500Y-52815000D02*
X188912500Y-52815000D01*
X186682500Y-52815000D02*
X187612500Y-52815000D01*
X151742500Y-52815000D02*
X151742500Y-54275000D01*
X148582500Y-52815000D02*
X148582500Y-54275000D01*
X151742500Y-52815000D02*
X150812500Y-52815000D01*
X148582500Y-52815000D02*
X149512500Y-52815000D01*
X113642500Y-52814999D02*
X113642500Y-54274999D01*
X110482500Y-52814999D02*
X110482500Y-54274999D01*
X113642500Y-52814999D02*
X112712500Y-52814999D01*
X110482500Y-52814999D02*
X111412500Y-52814999D01*
X75542500Y-52815000D02*
X75542500Y-54275000D01*
X72382500Y-52815000D02*
X72382500Y-54275000D01*
X75542500Y-52815000D02*
X74612500Y-52815000D01*
X72382500Y-52815000D02*
X73312500Y-52815000D01*
X35855000Y-52815000D02*
X35855000Y-54275000D01*
X32695000Y-52815000D02*
X32695000Y-54275000D01*
X35855000Y-52815000D02*
X34925000Y-52815000D01*
X32695000Y-52815000D02*
X33625000Y-52815000D01*
X262355000Y-28515000D02*
X262355000Y-29975000D01*
X259195000Y-28515000D02*
X259195000Y-29975000D01*
X262355000Y-28515000D02*
X261425000Y-28515000D01*
X259195000Y-28515000D02*
X260125000Y-28515000D01*
X218417500Y-33721250D02*
X218417500Y-35181250D01*
X215257500Y-33721250D02*
X215257500Y-35181250D01*
X218417500Y-33721250D02*
X217487500Y-33721250D01*
X215257500Y-33721250D02*
X216187500Y-33721250D01*
X180317500Y-33721250D02*
X180317500Y-35181250D01*
X177157500Y-33721250D02*
X177157500Y-35181250D01*
X180317500Y-33721250D02*
X179387500Y-33721250D01*
X177157500Y-33721250D02*
X178087500Y-33721250D01*
X142217500Y-33721250D02*
X142217500Y-35181250D01*
X139057500Y-33721250D02*
X139057500Y-35181250D01*
X142217500Y-33721250D02*
X141287500Y-33721250D01*
X139057500Y-33721250D02*
X139987500Y-33721250D01*
X104117500Y-33721250D02*
X104117500Y-35181250D01*
X100957500Y-33721250D02*
X100957500Y-35181250D01*
X104117500Y-33721250D02*
X103187500Y-33721250D01*
X100957500Y-33721250D02*
X101887500Y-33721250D01*
X66017500Y-33721250D02*
X66017500Y-35181250D01*
X62857500Y-33721250D02*
X62857500Y-35181250D01*
X66017500Y-33721250D02*
X65087500Y-33721250D01*
X62857500Y-33721250D02*
X63787500Y-33721250D01*
X20570001Y-48535000D02*
X20570001Y-47075000D01*
X23730001Y-48535000D02*
X23730001Y-47075000D01*
X20570001Y-48535000D02*
X21500001Y-48535000D01*
X23730001Y-48535000D02*
X22800001Y-48535000D01*
X254930000Y-13671250D02*
X254930000Y-15131250D01*
X251770000Y-13671250D02*
X251770000Y-15131250D01*
X254930000Y-13671250D02*
X254000000Y-13671250D01*
X251770000Y-13671250D02*
X252700000Y-13671250D01*
X213655000Y-14671250D02*
X213655000Y-16131250D01*
X210495000Y-14671250D02*
X210495000Y-16131250D01*
X213655000Y-14671250D02*
X212725000Y-14671250D01*
X210495000Y-14671250D02*
X211425000Y-14671250D01*
X175555000Y-14671250D02*
X175555000Y-16131250D01*
X172395000Y-14671250D02*
X172395000Y-16131250D01*
X175555000Y-14671250D02*
X174625000Y-14671250D01*
X172395000Y-14671250D02*
X173325000Y-14671250D01*
X137455000Y-14671250D02*
X137455000Y-16131250D01*
X134295000Y-14671250D02*
X134295000Y-16131250D01*
X137455000Y-14671250D02*
X136525000Y-14671250D01*
X134295000Y-14671250D02*
X135225000Y-14671250D01*
X99355000Y-14671250D02*
X99355000Y-16131250D01*
X96195000Y-14671250D02*
X96195000Y-16131250D01*
X99355000Y-14671250D02*
X98425000Y-14671250D01*
X96195000Y-14671250D02*
X97125000Y-14671250D01*
X61255000Y-14671251D02*
X61255000Y-16131251D01*
X58095000Y-14671251D02*
X58095000Y-16131251D01*
X61255000Y-14671251D02*
X60325000Y-14671251D01*
X58095000Y-14671251D02*
X59025000Y-14671251D01*
X20755000Y-12665000D02*
X20755000Y-14125000D01*
X17595000Y-12665000D02*
X17595000Y-14125000D01*
X20755000Y-12665000D02*
X19825000Y-12665000D01*
X17595000Y-12665000D02*
X18525000Y-12665000D01*
X242230000Y4291250D02*
X242230000Y2831250D01*
X239070000Y4291250D02*
X239070000Y2831250D01*
X242230000Y4291250D02*
X241300000Y4291250D01*
X239070000Y4291250D02*
X240000000Y4291250D01*
X204130000Y4291250D02*
X204130000Y2831250D01*
X200970000Y4291250D02*
X200970000Y2831250D01*
X204130000Y4291250D02*
X203200000Y4291250D01*
X200970000Y4291250D02*
X201900000Y4291250D01*
X166030000Y4291250D02*
X166030000Y2831250D01*
X162870000Y4291250D02*
X162870000Y2831250D01*
X166030000Y4291250D02*
X165100000Y4291250D01*
X162870000Y4291250D02*
X163800000Y4291250D01*
X127930000Y4291250D02*
X127930000Y2831250D01*
X124770000Y4291250D02*
X124770000Y2831250D01*
X127930000Y4291250D02*
X127000000Y4291250D01*
X124770000Y4291250D02*
X125700000Y4291250D01*
X89830000Y4291250D02*
X89830000Y2831250D01*
X86670000Y4291250D02*
X86670000Y2831250D01*
X89830000Y4291250D02*
X88900000Y4291250D01*
X86670000Y4291250D02*
X87600000Y4291250D01*
X51730000Y4291250D02*
X51730000Y2831250D01*
X48570000Y4291250D02*
X48570000Y2831250D01*
X51730000Y4291250D02*
X50800000Y4291250D01*
X48570000Y4291250D02*
X49500000Y4291250D01*
X21180000Y5185000D02*
X21180000Y3725000D01*
X18020000Y5185000D02*
X18020000Y3725000D01*
X21180000Y5185000D02*
X20250000Y5185000D01*
X18020000Y5185000D02*
X18950000Y5185000D01*
D11*
X39327380Y-29927380D02*
X39660714Y-29451190D01*
X39898809Y-29927380D02*
X39898809Y-28927380D01*
X39517857Y-28927380D01*
X39422619Y-28975000D01*
X39375000Y-29022619D01*
X39327380Y-29117857D01*
X39327380Y-29260714D01*
X39375000Y-29355952D01*
X39422619Y-29403571D01*
X39517857Y-29451190D01*
X39898809Y-29451190D01*
X38898809Y-29403571D02*
X38565476Y-29403571D01*
X38422619Y-29927380D02*
X38898809Y-29927380D01*
X38898809Y-28927380D01*
X38422619Y-28927380D01*
X38041666Y-29879761D02*
X37898809Y-29927380D01*
X37660714Y-29927380D01*
X37565476Y-29879761D01*
X37517857Y-29832142D01*
X37470238Y-29736904D01*
X37470238Y-29641666D01*
X37517857Y-29546428D01*
X37565476Y-29498809D01*
X37660714Y-29451190D01*
X37851190Y-29403571D01*
X37946428Y-29355952D01*
X37994047Y-29308333D01*
X38041666Y-29213095D01*
X38041666Y-29117857D01*
X37994047Y-29022619D01*
X37946428Y-28975000D01*
X37851190Y-28927380D01*
X37613095Y-28927380D01*
X37470238Y-28975000D01*
X37041666Y-29403571D02*
X36708333Y-29403571D01*
X36565476Y-29927380D02*
X37041666Y-29927380D01*
X37041666Y-28927380D01*
X36565476Y-28927380D01*
X36279761Y-28927380D02*
X35708333Y-28927380D01*
X35994047Y-29927380D02*
X35994047Y-28927380D01*
X18114285Y-5964285D02*
X18471428Y-5964285D01*
X18507142Y-6321428D01*
X18471428Y-6285714D01*
X18400000Y-6250000D01*
X18221428Y-6250000D01*
X18150000Y-6285714D01*
X18114285Y-6321428D01*
X18078571Y-6392857D01*
X18078571Y-6571428D01*
X18114285Y-6642857D01*
X18150000Y-6678571D01*
X18221428Y-6714285D01*
X18400000Y-6714285D01*
X18471428Y-6678571D01*
X18507142Y-6642857D01*
X17757142Y-6642857D02*
X17721428Y-6678571D01*
X17757142Y-6714285D01*
X17792857Y-6678571D01*
X17757142Y-6642857D01*
X17757142Y-6714285D01*
X17007142Y-6714285D02*
X17435714Y-6714285D01*
X17221428Y-6714285D02*
X17221428Y-5964285D01*
X17292857Y-6071428D01*
X17364285Y-6142857D01*
X17435714Y-6178571D01*
X16685714Y-6714285D02*
X16685714Y-5964285D01*
X16614285Y-6428571D02*
X16400000Y-6714285D01*
X16400000Y-6214285D02*
X16685714Y-6500000D01*
X16114285Y-6714285D02*
X15935714Y-6714285D01*
X15935714Y-6571428D01*
X16007142Y-6535714D01*
X16078571Y-6464285D01*
X16114285Y-6357142D01*
X16114285Y-6178571D01*
X16078571Y-6071428D01*
X16007142Y-6000000D01*
X15900000Y-5964285D01*
X15757142Y-5964285D01*
X15650000Y-6000000D01*
X15578571Y-6071428D01*
X15542857Y-6178571D01*
X15542857Y-6357142D01*
X15578571Y-6464285D01*
X15650000Y-6535714D01*
X15721428Y-6571428D01*
X15721428Y-6714285D01*
X15542857Y-6714285D01*
X8464285Y-6014285D02*
X8821428Y-6014285D01*
X8857142Y-6371428D01*
X8821428Y-6335714D01*
X8750000Y-6300000D01*
X8571428Y-6300000D01*
X8500000Y-6335714D01*
X8464285Y-6371428D01*
X8428571Y-6442857D01*
X8428571Y-6621428D01*
X8464285Y-6692857D01*
X8500000Y-6728571D01*
X8571428Y-6764285D01*
X8750000Y-6764285D01*
X8821428Y-6728571D01*
X8857142Y-6692857D01*
X8107142Y-6692857D02*
X8071428Y-6728571D01*
X8107142Y-6764285D01*
X8142857Y-6728571D01*
X8107142Y-6692857D01*
X8107142Y-6764285D01*
X7357142Y-6764285D02*
X7785714Y-6764285D01*
X7571428Y-6764285D02*
X7571428Y-6014285D01*
X7642857Y-6121428D01*
X7714285Y-6192857D01*
X7785714Y-6228571D01*
X7035714Y-6764285D02*
X7035714Y-6014285D01*
X6964285Y-6478571D02*
X6749999Y-6764285D01*
X6749999Y-6264285D02*
X7035714Y-6550000D01*
X6464285Y-6764285D02*
X6285714Y-6764285D01*
X6285714Y-6621428D01*
X6357142Y-6585714D01*
X6428571Y-6514285D01*
X6464285Y-6407142D01*
X6464285Y-6228571D01*
X6428571Y-6121428D01*
X6357142Y-6050000D01*
X6249999Y-6014285D01*
X6107142Y-6014285D01*
X5999999Y-6050000D01*
X5928571Y-6121428D01*
X5892857Y-6228571D01*
X5892857Y-6407142D01*
X5928571Y-6514285D01*
X5999999Y-6585714D01*
X6071428Y-6621428D01*
X6071428Y-6764285D01*
X5892857Y-6764285D01*
X-4614285Y-25425000D02*
X-4650000Y-25460714D01*
X-4685714Y-25532142D01*
X-4685714Y-25710714D01*
X-4650000Y-25782142D01*
X-4614285Y-25817857D01*
X-4542857Y-25853571D01*
X-4471428Y-25853571D01*
X-4364285Y-25817857D01*
X-3935714Y-25389285D01*
X-3935714Y-25853571D01*
X-4614285Y-26139285D02*
X-4650000Y-26175000D01*
X-4685714Y-26246428D01*
X-4685714Y-26425000D01*
X-4650000Y-26496428D01*
X-4614285Y-26532142D01*
X-4542857Y-26567857D01*
X-4471428Y-26567857D01*
X-4364285Y-26532142D01*
X-3935714Y-26103571D01*
X-3935714Y-26567857D01*
X-3935714Y-26853571D02*
X-3935714Y-27032142D01*
X-4078571Y-27032142D01*
X-4114285Y-26960714D01*
X-4185714Y-26889285D01*
X-4292857Y-26853571D01*
X-4471428Y-26853571D01*
X-4578571Y-26889285D01*
X-4650000Y-26960714D01*
X-4685714Y-27067857D01*
X-4685714Y-27210714D01*
X-4650000Y-27317857D01*
X-4578571Y-27389285D01*
X-4471428Y-27425000D01*
X-4292857Y-27425000D01*
X-4185714Y-27389285D01*
X-4114285Y-27317857D01*
X-4078571Y-27246428D01*
X-3935714Y-27246428D01*
X-3935714Y-27425000D01*
X35714Y-25425000D02*
X0Y-25460714D01*
X-35714Y-25532142D01*
X-35714Y-25710714D01*
X0Y-25782142D01*
X35714Y-25817857D01*
X107142Y-25853571D01*
X178571Y-25853571D01*
X285714Y-25817857D01*
X714285Y-25389285D01*
X714285Y-25853571D01*
X35714Y-26139285D02*
X0Y-26175000D01*
X-35714Y-26246428D01*
X-35714Y-26425000D01*
X0Y-26496428D01*
X35714Y-26532142D01*
X107142Y-26567857D01*
X178571Y-26567857D01*
X285714Y-26532142D01*
X714285Y-26103571D01*
X714285Y-26567857D01*
X714285Y-26853571D02*
X714285Y-27032142D01*
X571428Y-27032142D01*
X535714Y-26960714D01*
X464285Y-26889285D01*
X357142Y-26853571D01*
X178571Y-26853571D01*
X71428Y-26889285D01*
X0Y-26960714D01*
X-35714Y-27067857D01*
X-35714Y-27210714D01*
X0Y-27317857D01*
X71428Y-27389285D01*
X178571Y-27425000D01*
X357142Y-27425000D01*
X464285Y-27389285D01*
X535714Y-27317857D01*
X571428Y-27246428D01*
X714285Y-27246428D01*
X714285Y-27425000D01*
X24838858Y-44998578D02*
X25141903Y-45301624D01*
X24990381Y-45150101D02*
X25520711Y-44619771D01*
X25495457Y-44746040D01*
X25495457Y-44847055D01*
X25520711Y-44922817D01*
X25040888Y-44139949D02*
X24990381Y-44089441D01*
X24914619Y-44064187D01*
X24864112Y-44064187D01*
X24788350Y-44089441D01*
X24662081Y-44165202D01*
X24535812Y-44291471D01*
X24460050Y-44417740D01*
X24434797Y-44493502D01*
X24434797Y-44544010D01*
X24460051Y-44619771D01*
X24510558Y-44670279D01*
X24586320Y-44695532D01*
X24636827Y-44695532D01*
X24712589Y-44670279D01*
X24838858Y-44594517D01*
X24965127Y-44468248D01*
X25040888Y-44341979D01*
X25066142Y-44266218D01*
X25066142Y-44215710D01*
X25040888Y-44139949D01*
X24106497Y-44266218D02*
X24636827Y-43735887D01*
X24258020Y-44013679D02*
X23904467Y-44064187D01*
X24258020Y-43710634D02*
X24258020Y-44114695D01*
X23702436Y-43862157D02*
X23576167Y-43735887D01*
X23677182Y-43634872D01*
X23752944Y-43660126D01*
X23853959Y-43660126D01*
X23954974Y-43609618D01*
X24081243Y-43483349D01*
X24131751Y-43382334D01*
X24131751Y-43281319D01*
X24081243Y-43180304D01*
X23980228Y-43079288D01*
X23879213Y-43028781D01*
X23778198Y-43028781D01*
X23677182Y-43079288D01*
X23550913Y-43205557D01*
X23500406Y-43306573D01*
X23500406Y-43407588D01*
X23525659Y-43483349D01*
X23424644Y-43584365D01*
X23298375Y-43458096D01*
X32875000Y-30514285D02*
X33303571Y-30514285D01*
X33089285Y-30514285D02*
X33089285Y-29764285D01*
X33160714Y-29871428D01*
X33232142Y-29942857D01*
X33303571Y-29978571D01*
X32410714Y-29764285D02*
X32339285Y-29764285D01*
X32267857Y-29800000D01*
X32232142Y-29835714D01*
X32196428Y-29907142D01*
X32160714Y-30050000D01*
X32160714Y-30228571D01*
X32196428Y-30371428D01*
X32232142Y-30442857D01*
X32267857Y-30478571D01*
X32339285Y-30514285D01*
X32410714Y-30514285D01*
X32482142Y-30478571D01*
X32517857Y-30442857D01*
X32553571Y-30371428D01*
X32589285Y-30228571D01*
X32589285Y-30050000D01*
X32553571Y-29907142D01*
X32517857Y-29835714D01*
X32482142Y-29800000D01*
X32410714Y-29764285D01*
X31839285Y-30514285D02*
X31839285Y-29764285D01*
X31767857Y-30228571D02*
X31553571Y-30514285D01*
X31553571Y-30014285D02*
X31839285Y-30300000D01*
X31267857Y-30514285D02*
X31089285Y-30514285D01*
X31089285Y-30371428D01*
X31160714Y-30335714D01*
X31232142Y-30264285D01*
X31267857Y-30157142D01*
X31267857Y-29978571D01*
X31232142Y-29871428D01*
X31160714Y-29800000D01*
X31053571Y-29764285D01*
X30910714Y-29764285D01*
X30803571Y-29800000D01*
X30732142Y-29871428D01*
X30696428Y-29978571D01*
X30696428Y-30157142D01*
X30732142Y-30264285D01*
X30803571Y-30335714D01*
X30875000Y-30371428D01*
X30875000Y-30514285D01*
X30696428Y-30514285D01*
X9794285Y-9517857D02*
X9794285Y-9160714D01*
X10151428Y-9125000D01*
X10115714Y-9160714D01*
X10080000Y-9232142D01*
X10080000Y-9410714D01*
X10115714Y-9482142D01*
X10151428Y-9517857D01*
X10222857Y-9553571D01*
X10401428Y-9553571D01*
X10472857Y-9517857D01*
X10508571Y-9482142D01*
X10544285Y-9410714D01*
X10544285Y-9232142D01*
X10508571Y-9160714D01*
X10472857Y-9125000D01*
X9794285Y-10017857D02*
X9794285Y-10089285D01*
X9830000Y-10160714D01*
X9865714Y-10196428D01*
X9937142Y-10232142D01*
X10080000Y-10267857D01*
X10258571Y-10267857D01*
X10401428Y-10232142D01*
X10472857Y-10196428D01*
X10508571Y-10160714D01*
X10544285Y-10089285D01*
X10544285Y-10017857D01*
X10508571Y-9946428D01*
X10472857Y-9910714D01*
X10401428Y-9875000D01*
X10258571Y-9839285D01*
X10080000Y-9839285D01*
X9937142Y-9875000D01*
X9865714Y-9910714D01*
X9830000Y-9946428D01*
X9794285Y-10017857D01*
X9794285Y-10732142D02*
X9794285Y-10803571D01*
X9830000Y-10875000D01*
X9865714Y-10910714D01*
X9937142Y-10946428D01*
X10080000Y-10982142D01*
X10258571Y-10982142D01*
X10401428Y-10946428D01*
X10472857Y-10910714D01*
X10508571Y-10875000D01*
X10544285Y-10803571D01*
X10544285Y-10732142D01*
X10508571Y-10660714D01*
X10472857Y-10625000D01*
X10401428Y-10589285D01*
X10258571Y-10553571D01*
X10080000Y-10553571D01*
X9937142Y-10589285D01*
X9865714Y-10625000D01*
X9830000Y-10660714D01*
X9794285Y-10732142D01*
X10544285Y-11303571D02*
X10044285Y-11303571D01*
X10115714Y-11303571D02*
X10080000Y-11339285D01*
X10044285Y-11410714D01*
X10044285Y-11517857D01*
X10080000Y-11589285D01*
X10151428Y-11625000D01*
X10544285Y-11625000D01*
X10151428Y-11625000D02*
X10080000Y-11660714D01*
X10044285Y-11732142D01*
X10044285Y-11839285D01*
X10080000Y-11910714D01*
X10151428Y-11946428D01*
X10544285Y-11946428D01*
X10330000Y-12267857D02*
X10330000Y-12625000D01*
X10544285Y-12196428D02*
X9794285Y-12446428D01*
X10544285Y-12696428D01*
D12*
X13995000Y-3771189D02*
X13995000Y-3271189D01*
X13804523Y-3271189D01*
X13756904Y-3294999D01*
X13733095Y-3318808D01*
X13709285Y-3366427D01*
X13709285Y-3437856D01*
X13733095Y-3485475D01*
X13756904Y-3509284D01*
X13804523Y-3533094D01*
X13995000Y-3533094D01*
X13209285Y-3771189D02*
X13375952Y-3533094D01*
X13495000Y-3771189D02*
X13495000Y-3271189D01*
X13304523Y-3271189D01*
X13256904Y-3294999D01*
X13233095Y-3318808D01*
X13209285Y-3366427D01*
X13209285Y-3437856D01*
X13233095Y-3485475D01*
X13256904Y-3509284D01*
X13304523Y-3533094D01*
X13495000Y-3533094D01*
X13066428Y-3271189D02*
X12780714Y-3271189D01*
X12923571Y-3771189D02*
X12923571Y-3271189D01*
X12328333Y-3771189D02*
X12495000Y-3533094D01*
X12614047Y-3771189D02*
X12614047Y-3271189D01*
X12423571Y-3271189D01*
X12375952Y-3294999D01*
X12352142Y-3318808D01*
X12328333Y-3366427D01*
X12328333Y-3437856D01*
X12352142Y-3485475D01*
X12375952Y-3509284D01*
X12423571Y-3533094D01*
X12614047Y-3533094D01*
X11875952Y-3271189D02*
X12114047Y-3271189D01*
X12137857Y-3509284D01*
X12114047Y-3485475D01*
X12066428Y-3461665D01*
X11947380Y-3461665D01*
X11899761Y-3485475D01*
X11875952Y-3509284D01*
X11852142Y-3556903D01*
X11852142Y-3675951D01*
X11875952Y-3723570D01*
X11899761Y-3747379D01*
X11947380Y-3771189D01*
X12066428Y-3771189D01*
X12114047Y-3747379D01*
X12137857Y-3723570D01*
X11709285Y-3271189D02*
X11542619Y-3771189D01*
X11375952Y-3271189D01*
X11114047Y-3271189D02*
X11066428Y-3271189D01*
X11018809Y-3294999D01*
X10995000Y-3318808D01*
X10971190Y-3366427D01*
X10947380Y-3461665D01*
X10947380Y-3580713D01*
X10971190Y-3675951D01*
X10995000Y-3723570D01*
X11018809Y-3747379D01*
X11066428Y-3771189D01*
X11114047Y-3771189D01*
X11161666Y-3747379D01*
X11185476Y-3723570D01*
X11209285Y-3675951D01*
X11233095Y-3580713D01*
X11233095Y-3461665D01*
X11209285Y-3366427D01*
X11185476Y-3318808D01*
X11161666Y-3294999D01*
X11114047Y-3271189D01*
X10733095Y-3271189D02*
X10733095Y-3675951D01*
X10709285Y-3723570D01*
X10685476Y-3747379D01*
X10637857Y-3771189D01*
X10542619Y-3771189D01*
X10495000Y-3747379D01*
X10471190Y-3723570D01*
X10447380Y-3675951D01*
X10447380Y-3271189D01*
X10233095Y-3318808D02*
X10209285Y-3294999D01*
X10161666Y-3271189D01*
X10042619Y-3271189D01*
X9995000Y-3294999D01*
X9971190Y-3318808D01*
X9947380Y-3366427D01*
X9947380Y-3414046D01*
X9971190Y-3485475D01*
X10256904Y-3771189D01*
X9947380Y-3771189D01*
X9780714Y-3271189D02*
X9447380Y-3771189D01*
X9447380Y-3271189D02*
X9780714Y-3771189D01*
D11*
X14598693Y-29758413D02*
X14901738Y-30061459D01*
X14750216Y-29909936D02*
X15280546Y-29379606D01*
X15255292Y-29505875D01*
X15255292Y-29606890D01*
X15280546Y-29682652D01*
X14724962Y-29177575D02*
X14194632Y-29707905D01*
X14194632Y-29202829D02*
X14118870Y-29228083D01*
X14043109Y-29202829D01*
X14447170Y-29455367D02*
X14371408Y-29480621D01*
X14295647Y-29455367D01*
X14194632Y-29354352D01*
X14169378Y-29278591D01*
X14194632Y-29202829D01*
X14472424Y-28925037D01*
X13916840Y-28520976D02*
X14093616Y-28697753D01*
X13815824Y-28975545D02*
X14346155Y-28445215D01*
X14093616Y-28192677D01*
X20675609Y-43834111D02*
X20978654Y-43531065D01*
X20827132Y-43682588D02*
X20296801Y-43152258D01*
X20423071Y-43177512D01*
X20524086Y-43177512D01*
X20599847Y-43152258D01*
X19816979Y-43632080D02*
X19766471Y-43682588D01*
X19741218Y-43758349D01*
X19741218Y-43808857D01*
X19766471Y-43884618D01*
X19842233Y-44010887D01*
X19968502Y-44137157D01*
X20094771Y-44212918D01*
X20170532Y-44238172D01*
X20221040Y-44238172D01*
X20296801Y-44212918D01*
X20347309Y-44162410D01*
X20372563Y-44086649D01*
X20372563Y-44036141D01*
X20347309Y-43960380D01*
X20271548Y-43834111D01*
X20145279Y-43707842D01*
X20019010Y-43632080D01*
X19943248Y-43606826D01*
X19892740Y-43606826D01*
X19816979Y-43632080D01*
X19311903Y-44137157D02*
X19261395Y-44187664D01*
X19236141Y-44263426D01*
X19236141Y-44313933D01*
X19261395Y-44389695D01*
X19337157Y-44515964D01*
X19463426Y-44642233D01*
X19589695Y-44717994D01*
X19665456Y-44743248D01*
X19715964Y-44743248D01*
X19791725Y-44717994D01*
X19842233Y-44667487D01*
X19867487Y-44591725D01*
X19867487Y-44541218D01*
X19842233Y-44465456D01*
X19766471Y-44339187D01*
X19640202Y-44212918D01*
X19513933Y-44137157D01*
X19438172Y-44111903D01*
X19387664Y-44111903D01*
X19311903Y-44137157D01*
X19084618Y-44717994D02*
X19438172Y-45071548D01*
X19135126Y-44768502D02*
X19084618Y-44768502D01*
X19008857Y-44793756D01*
X18933096Y-44869517D01*
X18907842Y-44945279D01*
X18933096Y-45021040D01*
X19210887Y-45298832D01*
X18503781Y-45450355D02*
X18680557Y-45273578D01*
X18958349Y-45551370D02*
X18428019Y-45021040D01*
X18175481Y-45273578D01*
X26345712Y-23854213D02*
X26648757Y-23551167D01*
X26497235Y-23702690D02*
X25966904Y-23172360D01*
X26093174Y-23197614D01*
X26194189Y-23197614D01*
X26269950Y-23172360D01*
X25487082Y-23652182D02*
X25436574Y-23702690D01*
X25411321Y-23778451D01*
X25411321Y-23828959D01*
X25436574Y-23904720D01*
X25512336Y-24030989D01*
X25638605Y-24157259D01*
X25764874Y-24233020D01*
X25840635Y-24258274D01*
X25891143Y-24258274D01*
X25966904Y-24233020D01*
X26017412Y-24182512D01*
X26042666Y-24106751D01*
X26042666Y-24056243D01*
X26017412Y-23980482D01*
X25941651Y-23854213D01*
X25815382Y-23727944D01*
X25689113Y-23652182D01*
X25613351Y-23626928D01*
X25562843Y-23626928D01*
X25487082Y-23652182D01*
X24982006Y-24157259D02*
X24931498Y-24207766D01*
X24906244Y-24283528D01*
X24906244Y-24334035D01*
X24931498Y-24409797D01*
X25007260Y-24536066D01*
X25133529Y-24662335D01*
X25259798Y-24738096D01*
X25335559Y-24763350D01*
X25386067Y-24763350D01*
X25461828Y-24738096D01*
X25512336Y-24687589D01*
X25537590Y-24611827D01*
X25537590Y-24561320D01*
X25512336Y-24485558D01*
X25436574Y-24359289D01*
X25310305Y-24233020D01*
X25184036Y-24157259D01*
X25108275Y-24132005D01*
X25057767Y-24132005D01*
X24982006Y-24157259D01*
X24754721Y-24738096D02*
X25108275Y-25091650D01*
X24805229Y-24788604D02*
X24754721Y-24788604D01*
X24678960Y-24813858D01*
X24603199Y-24889619D01*
X24577945Y-24965381D01*
X24603199Y-25041142D01*
X24880990Y-25318934D01*
X24173884Y-25470457D02*
X24350660Y-25293680D01*
X24628452Y-25571472D02*
X24098122Y-25041142D01*
X23845584Y-25293680D01*
X33185714Y-33314285D02*
X33614285Y-33314285D01*
X33400000Y-33314285D02*
X33400000Y-32564285D01*
X33471428Y-32671428D01*
X33542857Y-32742857D01*
X33614285Y-32778571D01*
X32721428Y-32564285D02*
X32650000Y-32564285D01*
X32578571Y-32600000D01*
X32542857Y-32635714D01*
X32507142Y-32707142D01*
X32471428Y-32850000D01*
X32471428Y-33028571D01*
X32507142Y-33171428D01*
X32542857Y-33242857D01*
X32578571Y-33278571D01*
X32650000Y-33314285D01*
X32721428Y-33314285D01*
X32792857Y-33278571D01*
X32828571Y-33242857D01*
X32864285Y-33171428D01*
X32900000Y-33028571D01*
X32900000Y-32850000D01*
X32864285Y-32707142D01*
X32828571Y-32635714D01*
X32792857Y-32600000D01*
X32721428Y-32564285D01*
X32007142Y-32564285D02*
X31935714Y-32564285D01*
X31864285Y-32600000D01*
X31828571Y-32635714D01*
X31792857Y-32707142D01*
X31757142Y-32850000D01*
X31757142Y-33028571D01*
X31792857Y-33171428D01*
X31828571Y-33242857D01*
X31864285Y-33278571D01*
X31935714Y-33314285D01*
X32007142Y-33314285D01*
X32078571Y-33278571D01*
X32114285Y-33242857D01*
X32150000Y-33171428D01*
X32185714Y-33028571D01*
X32185714Y-32850000D01*
X32150000Y-32707142D01*
X32114285Y-32635714D01*
X32078571Y-32600000D01*
X32007142Y-32564285D01*
X31435714Y-32814285D02*
X31435714Y-33314285D01*
X31435714Y-32885714D02*
X31400000Y-32850000D01*
X31328571Y-32814285D01*
X31221428Y-32814285D01*
X31150000Y-32850000D01*
X31114285Y-32921428D01*
X31114285Y-33314285D01*
X30507142Y-32921428D02*
X30757142Y-32921428D01*
X30757142Y-33314285D02*
X30757142Y-32564285D01*
X30400000Y-32564285D01*
X12632142Y-33364285D02*
X13060714Y-33364285D01*
X12846428Y-33364285D02*
X12846428Y-32614285D01*
X12917857Y-32721428D01*
X12989285Y-32792857D01*
X13060714Y-32828571D01*
X12167857Y-32614285D02*
X12096428Y-32614285D01*
X12025000Y-32650000D01*
X11989285Y-32685714D01*
X11953571Y-32757142D01*
X11917857Y-32900000D01*
X11917857Y-33078571D01*
X11953571Y-33221428D01*
X11989285Y-33292857D01*
X12025000Y-33328571D01*
X12096428Y-33364285D01*
X12167857Y-33364285D01*
X12239285Y-33328571D01*
X12275000Y-33292857D01*
X12310714Y-33221428D01*
X12346428Y-33078571D01*
X12346428Y-32900000D01*
X12310714Y-32757142D01*
X12275000Y-32685714D01*
X12239285Y-32650000D01*
X12167857Y-32614285D01*
X11596428Y-32864285D02*
X11596428Y-33614285D01*
X11239285Y-33257142D02*
X11203571Y-33328571D01*
X11132142Y-33364285D01*
X11596428Y-33257142D02*
X11560714Y-33328571D01*
X11489285Y-33364285D01*
X11346428Y-33364285D01*
X11275000Y-33328571D01*
X11239285Y-33257142D01*
X11239285Y-32864285D01*
X10560714Y-32971428D02*
X10810714Y-32971428D01*
X10810714Y-33364285D02*
X10810714Y-32614285D01*
X10453571Y-32614285D01*
X254260714Y-75614285D02*
X254260714Y-74864285D01*
X254082142Y-74864285D01*
X253975000Y-74900000D01*
X253903571Y-74971428D01*
X253867857Y-75042857D01*
X253832142Y-75185714D01*
X253832142Y-75292857D01*
X253867857Y-75435714D01*
X253903571Y-75507142D01*
X253975000Y-75578571D01*
X254082142Y-75614285D01*
X254260714Y-75614285D01*
X253582142Y-74864285D02*
X253117857Y-74864285D01*
X253367857Y-75150000D01*
X253260714Y-75150000D01*
X253189285Y-75185714D01*
X253153571Y-75221428D01*
X253117857Y-75292857D01*
X253117857Y-75471428D01*
X253153571Y-75542857D01*
X253189285Y-75578571D01*
X253260714Y-75614285D01*
X253475000Y-75614285D01*
X253546428Y-75578571D01*
X253582142Y-75542857D01*
X252832142Y-74935714D02*
X252796428Y-74900000D01*
X252725000Y-74864285D01*
X252546428Y-74864285D01*
X252475000Y-74900000D01*
X252439285Y-74935714D01*
X252403571Y-75007142D01*
X252403571Y-75078571D01*
X252439285Y-75185714D01*
X252867857Y-75614285D01*
X252403571Y-75614285D01*
X205841964Y-75614286D02*
X205841964Y-74864286D01*
X205663392Y-74864286D01*
X205556250Y-74900001D01*
X205484821Y-74971429D01*
X205449107Y-75042858D01*
X205413392Y-75185715D01*
X205413392Y-75292858D01*
X205449107Y-75435715D01*
X205484821Y-75507143D01*
X205556250Y-75578572D01*
X205663392Y-75614286D01*
X205841964Y-75614286D01*
X205163392Y-74864286D02*
X204699107Y-74864286D01*
X204949107Y-75150001D01*
X204841964Y-75150001D01*
X204770535Y-75185715D01*
X204734821Y-75221429D01*
X204699107Y-75292858D01*
X204699107Y-75471429D01*
X204734821Y-75542858D01*
X204770535Y-75578572D01*
X204841964Y-75614286D01*
X205056250Y-75614286D01*
X205127678Y-75578572D01*
X205163392Y-75542858D01*
X203984821Y-75614286D02*
X204413392Y-75614286D01*
X204199107Y-75614286D02*
X204199107Y-74864286D01*
X204270535Y-74971429D01*
X204341964Y-75042858D01*
X204413392Y-75078572D01*
X97098213Y-75614285D02*
X97098213Y-74864285D01*
X96919641Y-74864285D01*
X96812499Y-74900000D01*
X96741070Y-74971428D01*
X96705356Y-75042857D01*
X96669641Y-75185714D01*
X96669641Y-75292857D01*
X96705356Y-75435714D01*
X96741070Y-75507142D01*
X96812499Y-75578571D01*
X96919641Y-75614285D01*
X97098213Y-75614285D01*
X96419641Y-74864285D02*
X95955356Y-74864285D01*
X96205356Y-75150000D01*
X96098213Y-75150000D01*
X96026784Y-75185714D01*
X95991070Y-75221428D01*
X95955356Y-75292857D01*
X95955356Y-75471428D01*
X95991070Y-75542857D01*
X96026784Y-75578571D01*
X96098213Y-75614285D01*
X96312499Y-75614285D01*
X96383927Y-75578571D01*
X96419641Y-75542857D01*
X95491070Y-74864285D02*
X95419641Y-74864285D01*
X95348213Y-74900000D01*
X95312499Y-74935714D01*
X95276784Y-75007142D01*
X95241070Y-75150000D01*
X95241070Y-75328571D01*
X95276784Y-75471428D01*
X95312499Y-75542857D01*
X95348213Y-75578571D01*
X95419641Y-75614285D01*
X95491070Y-75614285D01*
X95562499Y-75578571D01*
X95598213Y-75542857D01*
X95633927Y-75471428D01*
X95669641Y-75328571D01*
X95669641Y-75150000D01*
X95633927Y-75007142D01*
X95598213Y-74935714D01*
X95562499Y-74900000D01*
X95491070Y-74864285D01*
X20104464Y-75614285D02*
X20104464Y-74864285D01*
X19925892Y-74864285D01*
X19818750Y-74900000D01*
X19747321Y-74971428D01*
X19711607Y-75042857D01*
X19675892Y-75185714D01*
X19675892Y-75292857D01*
X19711607Y-75435714D01*
X19747321Y-75507142D01*
X19818750Y-75578571D01*
X19925892Y-75614285D01*
X20104464Y-75614285D01*
X19390178Y-74935714D02*
X19354464Y-74900000D01*
X19283035Y-74864285D01*
X19104464Y-74864285D01*
X19033035Y-74900000D01*
X18997321Y-74935714D01*
X18961607Y-75007142D01*
X18961607Y-75078571D01*
X18997321Y-75185714D01*
X19425892Y-75614285D01*
X18961607Y-75614285D01*
X18604464Y-75614285D02*
X18461607Y-75614285D01*
X18390178Y-75578571D01*
X18354464Y-75542857D01*
X18283035Y-75435714D01*
X18247321Y-75292857D01*
X18247321Y-75007142D01*
X18283035Y-74935714D01*
X18318750Y-74900000D01*
X18390178Y-74864285D01*
X18533035Y-74864285D01*
X18604464Y-74900000D01*
X18640178Y-74935714D01*
X18675892Y-75007142D01*
X18675892Y-75185714D01*
X18640178Y-75257142D01*
X18604464Y-75292857D01*
X18533035Y-75328571D01*
X18390178Y-75328571D01*
X18318750Y-75292857D01*
X18283035Y-75257142D01*
X18247321Y-75185714D01*
X259023214Y-52364285D02*
X259023214Y-51614285D01*
X258844642Y-51614285D01*
X258737500Y-51650000D01*
X258666071Y-51721428D01*
X258630357Y-51792857D01*
X258594642Y-51935714D01*
X258594642Y-52042857D01*
X258630357Y-52185714D01*
X258666071Y-52257142D01*
X258737500Y-52328571D01*
X258844642Y-52364285D01*
X259023214Y-52364285D01*
X258308928Y-51685714D02*
X258273214Y-51650000D01*
X258201785Y-51614285D01*
X258023214Y-51614285D01*
X257951785Y-51650000D01*
X257916071Y-51685714D01*
X257880357Y-51757142D01*
X257880357Y-51828571D01*
X257916071Y-51935714D01*
X258344642Y-52364285D01*
X257880357Y-52364285D01*
X257451785Y-51935714D02*
X257523214Y-51900000D01*
X257558928Y-51864285D01*
X257594642Y-51792857D01*
X257594642Y-51757142D01*
X257558928Y-51685714D01*
X257523214Y-51650000D01*
X257451785Y-51614285D01*
X257308928Y-51614285D01*
X257237500Y-51650000D01*
X257201785Y-51685714D01*
X257166071Y-51757142D01*
X257166071Y-51792857D01*
X257201785Y-51864285D01*
X257237500Y-51900000D01*
X257308928Y-51935714D01*
X257451785Y-51935714D01*
X257523214Y-51971428D01*
X257558928Y-52007142D01*
X257594642Y-52078571D01*
X257594642Y-52221428D01*
X257558928Y-52292857D01*
X257523214Y-52328571D01*
X257451785Y-52364285D01*
X257308928Y-52364285D01*
X257237500Y-52328571D01*
X257201785Y-52292857D01*
X257166071Y-52221428D01*
X257166071Y-52078571D01*
X257201785Y-52007142D01*
X257237500Y-51971428D01*
X257308928Y-51935714D01*
X227273214Y-56614285D02*
X227273214Y-55864285D01*
X227094642Y-55864285D01*
X226987500Y-55900000D01*
X226916071Y-55971428D01*
X226880357Y-56042857D01*
X226844642Y-56185714D01*
X226844642Y-56292857D01*
X226880357Y-56435714D01*
X226916071Y-56507142D01*
X226987500Y-56578571D01*
X227094642Y-56614285D01*
X227273214Y-56614285D01*
X226558928Y-55935714D02*
X226523214Y-55900000D01*
X226451785Y-55864285D01*
X226273214Y-55864285D01*
X226201785Y-55900000D01*
X226166071Y-55935714D01*
X226130357Y-56007142D01*
X226130357Y-56078571D01*
X226166071Y-56185714D01*
X226594642Y-56614285D01*
X226130357Y-56614285D01*
X225880357Y-55864285D02*
X225380357Y-55864285D01*
X225701785Y-56614285D01*
X189173214Y-56614285D02*
X189173214Y-55864285D01*
X188994642Y-55864285D01*
X188887500Y-55900000D01*
X188816071Y-55971428D01*
X188780357Y-56042857D01*
X188744642Y-56185714D01*
X188744642Y-56292857D01*
X188780357Y-56435714D01*
X188816071Y-56507142D01*
X188887500Y-56578571D01*
X188994642Y-56614285D01*
X189173214Y-56614285D01*
X188458928Y-55935714D02*
X188423214Y-55900000D01*
X188351785Y-55864285D01*
X188173214Y-55864285D01*
X188101785Y-55900000D01*
X188066071Y-55935714D01*
X188030357Y-56007142D01*
X188030357Y-56078571D01*
X188066071Y-56185714D01*
X188494642Y-56614285D01*
X188030357Y-56614285D01*
X187387500Y-55864285D02*
X187530357Y-55864285D01*
X187601785Y-55900000D01*
X187637500Y-55935714D01*
X187708928Y-56042857D01*
X187744642Y-56185714D01*
X187744642Y-56471428D01*
X187708928Y-56542857D01*
X187673214Y-56578571D01*
X187601785Y-56614285D01*
X187458928Y-56614285D01*
X187387500Y-56578571D01*
X187351785Y-56542857D01*
X187316071Y-56471428D01*
X187316071Y-56292857D01*
X187351785Y-56221428D01*
X187387500Y-56185714D01*
X187458928Y-56150000D01*
X187601785Y-56150000D01*
X187673214Y-56185714D01*
X187708928Y-56221428D01*
X187744642Y-56292857D01*
X151073214Y-56614285D02*
X151073214Y-55864285D01*
X150894642Y-55864285D01*
X150787500Y-55900000D01*
X150716071Y-55971428D01*
X150680357Y-56042857D01*
X150644642Y-56185714D01*
X150644642Y-56292857D01*
X150680357Y-56435714D01*
X150716071Y-56507142D01*
X150787500Y-56578571D01*
X150894642Y-56614285D01*
X151073214Y-56614285D01*
X150358928Y-55935714D02*
X150323214Y-55900000D01*
X150251785Y-55864285D01*
X150073214Y-55864285D01*
X150001785Y-55900000D01*
X149966071Y-55935714D01*
X149930357Y-56007142D01*
X149930357Y-56078571D01*
X149966071Y-56185714D01*
X150394642Y-56614285D01*
X149930357Y-56614285D01*
X149251785Y-55864285D02*
X149608928Y-55864285D01*
X149644642Y-56221428D01*
X149608928Y-56185714D01*
X149537500Y-56150000D01*
X149358928Y-56150000D01*
X149287500Y-56185714D01*
X149251785Y-56221428D01*
X149216071Y-56292857D01*
X149216071Y-56471428D01*
X149251785Y-56542857D01*
X149287500Y-56578571D01*
X149358928Y-56614285D01*
X149537500Y-56614285D01*
X149608928Y-56578571D01*
X149644642Y-56542857D01*
X112973214Y-56614284D02*
X112973214Y-55864284D01*
X112794642Y-55864284D01*
X112687500Y-55899999D01*
X112616071Y-55971427D01*
X112580357Y-56042856D01*
X112544642Y-56185713D01*
X112544642Y-56292856D01*
X112580357Y-56435713D01*
X112616071Y-56507141D01*
X112687500Y-56578570D01*
X112794642Y-56614284D01*
X112973214Y-56614284D01*
X112258928Y-55935713D02*
X112223214Y-55899999D01*
X112151785Y-55864284D01*
X111973214Y-55864284D01*
X111901785Y-55899999D01*
X111866071Y-55935713D01*
X111830357Y-56007141D01*
X111830357Y-56078570D01*
X111866071Y-56185713D01*
X112294642Y-56614284D01*
X111830357Y-56614284D01*
X111187500Y-56114284D02*
X111187500Y-56614284D01*
X111366071Y-55828570D02*
X111544642Y-56364284D01*
X111080357Y-56364284D01*
X74873214Y-56614285D02*
X74873214Y-55864285D01*
X74694642Y-55864285D01*
X74587500Y-55900000D01*
X74516071Y-55971428D01*
X74480357Y-56042857D01*
X74444642Y-56185714D01*
X74444642Y-56292857D01*
X74480357Y-56435714D01*
X74516071Y-56507142D01*
X74587500Y-56578571D01*
X74694642Y-56614285D01*
X74873214Y-56614285D01*
X74158928Y-55935714D02*
X74123214Y-55900000D01*
X74051785Y-55864285D01*
X73873214Y-55864285D01*
X73801785Y-55900000D01*
X73766071Y-55935714D01*
X73730357Y-56007142D01*
X73730357Y-56078571D01*
X73766071Y-56185714D01*
X74194642Y-56614285D01*
X73730357Y-56614285D01*
X73480357Y-55864285D02*
X73016071Y-55864285D01*
X73266071Y-56150000D01*
X73158928Y-56150000D01*
X73087500Y-56185714D01*
X73051785Y-56221428D01*
X73016071Y-56292857D01*
X73016071Y-56471428D01*
X73051785Y-56542857D01*
X73087500Y-56578571D01*
X73158928Y-56614285D01*
X73373214Y-56614285D01*
X73444642Y-56578571D01*
X73480357Y-56542857D01*
X35185714Y-56614285D02*
X35185714Y-55864285D01*
X35007142Y-55864285D01*
X34900000Y-55900000D01*
X34828571Y-55971428D01*
X34792857Y-56042857D01*
X34757142Y-56185714D01*
X34757142Y-56292857D01*
X34792857Y-56435714D01*
X34828571Y-56507142D01*
X34900000Y-56578571D01*
X35007142Y-56614285D01*
X35185714Y-56614285D01*
X34471428Y-55935714D02*
X34435714Y-55900000D01*
X34364285Y-55864285D01*
X34185714Y-55864285D01*
X34114285Y-55900000D01*
X34078571Y-55935714D01*
X34042857Y-56007142D01*
X34042857Y-56078571D01*
X34078571Y-56185714D01*
X34507142Y-56614285D01*
X34042857Y-56614285D01*
X33757142Y-55935714D02*
X33721428Y-55900000D01*
X33650000Y-55864285D01*
X33471428Y-55864285D01*
X33400000Y-55900000D01*
X33364285Y-55935714D01*
X33328571Y-56007142D01*
X33328571Y-56078571D01*
X33364285Y-56185714D01*
X33792857Y-56614285D01*
X33328571Y-56614285D01*
X261685714Y-32539285D02*
X261685714Y-31789285D01*
X261507142Y-31789285D01*
X261400000Y-31825000D01*
X261328571Y-31896428D01*
X261292857Y-31967857D01*
X261257142Y-32110714D01*
X261257142Y-32217857D01*
X261292857Y-32360714D01*
X261328571Y-32432142D01*
X261400000Y-32503571D01*
X261507142Y-32539285D01*
X261685714Y-32539285D01*
X260971428Y-31860714D02*
X260935714Y-31825000D01*
X260864285Y-31789285D01*
X260685714Y-31789285D01*
X260614285Y-31825000D01*
X260578571Y-31860714D01*
X260542857Y-31932142D01*
X260542857Y-32003571D01*
X260578571Y-32110714D01*
X261007142Y-32539285D01*
X260542857Y-32539285D01*
X259828571Y-32539285D02*
X260257142Y-32539285D01*
X260042857Y-32539285D02*
X260042857Y-31789285D01*
X260114285Y-31896428D01*
X260185714Y-31967857D01*
X260257142Y-32003571D01*
X217748214Y-37364285D02*
X217748214Y-36614285D01*
X217569642Y-36614285D01*
X217462500Y-36650000D01*
X217391071Y-36721428D01*
X217355357Y-36792857D01*
X217319642Y-36935714D01*
X217319642Y-37042857D01*
X217355357Y-37185714D01*
X217391071Y-37257142D01*
X217462500Y-37328571D01*
X217569642Y-37364285D01*
X217748214Y-37364285D01*
X217033928Y-36685714D02*
X216998214Y-36650000D01*
X216926785Y-36614285D01*
X216748214Y-36614285D01*
X216676785Y-36650000D01*
X216641071Y-36685714D01*
X216605357Y-36757142D01*
X216605357Y-36828571D01*
X216641071Y-36935714D01*
X217069642Y-37364285D01*
X216605357Y-37364285D01*
X216141071Y-36614285D02*
X216069642Y-36614285D01*
X215998214Y-36650000D01*
X215962500Y-36685714D01*
X215926785Y-36757142D01*
X215891071Y-36900000D01*
X215891071Y-37078571D01*
X215926785Y-37221428D01*
X215962500Y-37292857D01*
X215998214Y-37328571D01*
X216069642Y-37364285D01*
X216141071Y-37364285D01*
X216212500Y-37328571D01*
X216248214Y-37292857D01*
X216283928Y-37221428D01*
X216319642Y-37078571D01*
X216319642Y-36900000D01*
X216283928Y-36757142D01*
X216248214Y-36685714D01*
X216212500Y-36650000D01*
X216141071Y-36614285D01*
X179648214Y-37364285D02*
X179648214Y-36614285D01*
X179469642Y-36614285D01*
X179362500Y-36650000D01*
X179291071Y-36721428D01*
X179255357Y-36792857D01*
X179219642Y-36935714D01*
X179219642Y-37042857D01*
X179255357Y-37185714D01*
X179291071Y-37257142D01*
X179362500Y-37328571D01*
X179469642Y-37364285D01*
X179648214Y-37364285D01*
X178505357Y-37364285D02*
X178933928Y-37364285D01*
X178719642Y-37364285D02*
X178719642Y-36614285D01*
X178791071Y-36721428D01*
X178862500Y-36792857D01*
X178933928Y-36828571D01*
X178148214Y-37364285D02*
X178005357Y-37364285D01*
X177933928Y-37328571D01*
X177898214Y-37292857D01*
X177826785Y-37185714D01*
X177791071Y-37042857D01*
X177791071Y-36757142D01*
X177826785Y-36685714D01*
X177862500Y-36650000D01*
X177933928Y-36614285D01*
X178076785Y-36614285D01*
X178148214Y-36650000D01*
X178183928Y-36685714D01*
X178219642Y-36757142D01*
X178219642Y-36935714D01*
X178183928Y-37007142D01*
X178148214Y-37042857D01*
X178076785Y-37078571D01*
X177933928Y-37078571D01*
X177862500Y-37042857D01*
X177826785Y-37007142D01*
X177791071Y-36935714D01*
X141548214Y-37364285D02*
X141548214Y-36614285D01*
X141369642Y-36614285D01*
X141262500Y-36650000D01*
X141191071Y-36721428D01*
X141155357Y-36792857D01*
X141119642Y-36935714D01*
X141119642Y-37042857D01*
X141155357Y-37185714D01*
X141191071Y-37257142D01*
X141262500Y-37328571D01*
X141369642Y-37364285D01*
X141548214Y-37364285D01*
X140405357Y-37364285D02*
X140833928Y-37364285D01*
X140619642Y-37364285D02*
X140619642Y-36614285D01*
X140691071Y-36721428D01*
X140762500Y-36792857D01*
X140833928Y-36828571D01*
X139976785Y-36935714D02*
X140048214Y-36900000D01*
X140083928Y-36864285D01*
X140119642Y-36792857D01*
X140119642Y-36757142D01*
X140083928Y-36685714D01*
X140048214Y-36650000D01*
X139976785Y-36614285D01*
X139833928Y-36614285D01*
X139762500Y-36650000D01*
X139726785Y-36685714D01*
X139691071Y-36757142D01*
X139691071Y-36792857D01*
X139726785Y-36864285D01*
X139762500Y-36900000D01*
X139833928Y-36935714D01*
X139976785Y-36935714D01*
X140048214Y-36971428D01*
X140083928Y-37007142D01*
X140119642Y-37078571D01*
X140119642Y-37221428D01*
X140083928Y-37292857D01*
X140048214Y-37328571D01*
X139976785Y-37364285D01*
X139833928Y-37364285D01*
X139762500Y-37328571D01*
X139726785Y-37292857D01*
X139691071Y-37221428D01*
X139691071Y-37078571D01*
X139726785Y-37007142D01*
X139762500Y-36971428D01*
X139833928Y-36935714D01*
X103448214Y-37364285D02*
X103448214Y-36614285D01*
X103269642Y-36614285D01*
X103162500Y-36650000D01*
X103091071Y-36721428D01*
X103055357Y-36792857D01*
X103019642Y-36935714D01*
X103019642Y-37042857D01*
X103055357Y-37185714D01*
X103091071Y-37257142D01*
X103162500Y-37328571D01*
X103269642Y-37364285D01*
X103448214Y-37364285D01*
X102305357Y-37364285D02*
X102733928Y-37364285D01*
X102519642Y-37364285D02*
X102519642Y-36614285D01*
X102591071Y-36721428D01*
X102662500Y-36792857D01*
X102733928Y-36828571D01*
X102055357Y-36614285D02*
X101555357Y-36614285D01*
X101876785Y-37364285D01*
X65348214Y-37364285D02*
X65348214Y-36614285D01*
X65169642Y-36614285D01*
X65062500Y-36650000D01*
X64991071Y-36721428D01*
X64955357Y-36792857D01*
X64919642Y-36935714D01*
X64919642Y-37042857D01*
X64955357Y-37185714D01*
X64991071Y-37257142D01*
X65062500Y-37328571D01*
X65169642Y-37364285D01*
X65348214Y-37364285D01*
X64205357Y-37364285D02*
X64633928Y-37364285D01*
X64419642Y-37364285D02*
X64419642Y-36614285D01*
X64491071Y-36721428D01*
X64562500Y-36792857D01*
X64633928Y-36828571D01*
X63562500Y-36614285D02*
X63705357Y-36614285D01*
X63776785Y-36650000D01*
X63812500Y-36685714D01*
X63883928Y-36792857D01*
X63919642Y-36935714D01*
X63919642Y-37221428D01*
X63883928Y-37292857D01*
X63848214Y-37328571D01*
X63776785Y-37364285D01*
X63633928Y-37364285D01*
X63562500Y-37328571D01*
X63526785Y-37292857D01*
X63491071Y-37221428D01*
X63491071Y-37042857D01*
X63526785Y-36971428D01*
X63562500Y-36935714D01*
X63633928Y-36900000D01*
X63776785Y-36900000D01*
X63848214Y-36935714D01*
X63883928Y-36971428D01*
X63919642Y-37042857D01*
X23060715Y-45570535D02*
X23060715Y-44820535D01*
X22882143Y-44820535D01*
X22775001Y-44856250D01*
X22703572Y-44927678D01*
X22667858Y-44999107D01*
X22632143Y-45141964D01*
X22632143Y-45249107D01*
X22667858Y-45391964D01*
X22703572Y-45463392D01*
X22775001Y-45534821D01*
X22882143Y-45570535D01*
X23060715Y-45570535D01*
X21917858Y-45570535D02*
X22346429Y-45570535D01*
X22132143Y-45570535D02*
X22132143Y-44820535D01*
X22203572Y-44927678D01*
X22275001Y-44999107D01*
X22346429Y-45034821D01*
X21239286Y-44820535D02*
X21596429Y-44820535D01*
X21632143Y-45177678D01*
X21596429Y-45141964D01*
X21525001Y-45106250D01*
X21346429Y-45106250D01*
X21275001Y-45141964D01*
X21239286Y-45177678D01*
X21203572Y-45249107D01*
X21203572Y-45427678D01*
X21239286Y-45499107D01*
X21275001Y-45534821D01*
X21346429Y-45570535D01*
X21525001Y-45570535D01*
X21596429Y-45534821D01*
X21632143Y-45499107D01*
X257435714Y-14864285D02*
X257435714Y-14114285D01*
X257257142Y-14114285D01*
X257150000Y-14150000D01*
X257078571Y-14221428D01*
X257042857Y-14292857D01*
X257007142Y-14435714D01*
X257007142Y-14542857D01*
X257042857Y-14685714D01*
X257078571Y-14757142D01*
X257150000Y-14828571D01*
X257257142Y-14864285D01*
X257435714Y-14864285D01*
X256292857Y-14864285D02*
X256721428Y-14864285D01*
X256507142Y-14864285D02*
X256507142Y-14114285D01*
X256578571Y-14221428D01*
X256650000Y-14292857D01*
X256721428Y-14328571D01*
X255650000Y-14364285D02*
X255650000Y-14864285D01*
X255828571Y-14078571D02*
X256007142Y-14614285D01*
X255542857Y-14614285D01*
X212935714Y-18364285D02*
X212935714Y-17614285D01*
X212757142Y-17614285D01*
X212650000Y-17650000D01*
X212578571Y-17721428D01*
X212542857Y-17792857D01*
X212507142Y-17935714D01*
X212507142Y-18042857D01*
X212542857Y-18185714D01*
X212578571Y-18257142D01*
X212650000Y-18328571D01*
X212757142Y-18364285D01*
X212935714Y-18364285D01*
X211792857Y-18364285D02*
X212221428Y-18364285D01*
X212007142Y-18364285D02*
X212007142Y-17614285D01*
X212078571Y-17721428D01*
X212150000Y-17792857D01*
X212221428Y-17828571D01*
X211542857Y-17614285D02*
X211078571Y-17614285D01*
X211328571Y-17900000D01*
X211221428Y-17900000D01*
X211150000Y-17935714D01*
X211114285Y-17971428D01*
X211078571Y-18042857D01*
X211078571Y-18221428D01*
X211114285Y-18292857D01*
X211150000Y-18328571D01*
X211221428Y-18364285D01*
X211435714Y-18364285D01*
X211507142Y-18328571D01*
X211542857Y-18292857D01*
X174885714Y-18364285D02*
X174885714Y-17614285D01*
X174707142Y-17614285D01*
X174600000Y-17650000D01*
X174528571Y-17721428D01*
X174492857Y-17792857D01*
X174457142Y-17935714D01*
X174457142Y-18042857D01*
X174492857Y-18185714D01*
X174528571Y-18257142D01*
X174600000Y-18328571D01*
X174707142Y-18364285D01*
X174885714Y-18364285D01*
X173742857Y-18364285D02*
X174171428Y-18364285D01*
X173957142Y-18364285D02*
X173957142Y-17614285D01*
X174028571Y-17721428D01*
X174100000Y-17792857D01*
X174171428Y-17828571D01*
X173457142Y-17685714D02*
X173421428Y-17650000D01*
X173350000Y-17614285D01*
X173171428Y-17614285D01*
X173100000Y-17650000D01*
X173064285Y-17685714D01*
X173028571Y-17757142D01*
X173028571Y-17828571D01*
X173064285Y-17935714D01*
X173492857Y-18364285D01*
X173028571Y-18364285D01*
X136785714Y-18364285D02*
X136785714Y-17614285D01*
X136607142Y-17614285D01*
X136500000Y-17650000D01*
X136428571Y-17721428D01*
X136392857Y-17792857D01*
X136357142Y-17935714D01*
X136357142Y-18042857D01*
X136392857Y-18185714D01*
X136428571Y-18257142D01*
X136500000Y-18328571D01*
X136607142Y-18364285D01*
X136785714Y-18364285D01*
X135642857Y-18364285D02*
X136071428Y-18364285D01*
X135857142Y-18364285D02*
X135857142Y-17614285D01*
X135928571Y-17721428D01*
X136000000Y-17792857D01*
X136071428Y-17828571D01*
X134928571Y-18364285D02*
X135357142Y-18364285D01*
X135142857Y-18364285D02*
X135142857Y-17614285D01*
X135214285Y-17721428D01*
X135285714Y-17792857D01*
X135357142Y-17828571D01*
X98685714Y-18364285D02*
X98685714Y-17614285D01*
X98507142Y-17614285D01*
X98400000Y-17650000D01*
X98328571Y-17721428D01*
X98292857Y-17792857D01*
X98257142Y-17935714D01*
X98257142Y-18042857D01*
X98292857Y-18185714D01*
X98328571Y-18257142D01*
X98400000Y-18328571D01*
X98507142Y-18364285D01*
X98685714Y-18364285D01*
X97542857Y-18364285D02*
X97971428Y-18364285D01*
X97757142Y-18364285D02*
X97757142Y-17614285D01*
X97828571Y-17721428D01*
X97900000Y-17792857D01*
X97971428Y-17828571D01*
X97078571Y-17614285D02*
X97007142Y-17614285D01*
X96935714Y-17650000D01*
X96900000Y-17685714D01*
X96864285Y-17757142D01*
X96828571Y-17900000D01*
X96828571Y-18078571D01*
X96864285Y-18221428D01*
X96900000Y-18292857D01*
X96935714Y-18328571D01*
X97007142Y-18364285D01*
X97078571Y-18364285D01*
X97150000Y-18328571D01*
X97185714Y-18292857D01*
X97221428Y-18221428D01*
X97257142Y-18078571D01*
X97257142Y-17900000D01*
X97221428Y-17757142D01*
X97185714Y-17685714D01*
X97150000Y-17650000D01*
X97078571Y-17614285D01*
X60228571Y-18364286D02*
X60228571Y-17614286D01*
X60050000Y-17614286D01*
X59942857Y-17650001D01*
X59871428Y-17721429D01*
X59835714Y-17792858D01*
X59800000Y-17935715D01*
X59800000Y-18042858D01*
X59835714Y-18185715D01*
X59871428Y-18257143D01*
X59942857Y-18328572D01*
X60050000Y-18364286D01*
X60228571Y-18364286D01*
X59442857Y-18364286D02*
X59300000Y-18364286D01*
X59228571Y-18328572D01*
X59192857Y-18292858D01*
X59121428Y-18185715D01*
X59085714Y-18042858D01*
X59085714Y-17757143D01*
X59121428Y-17685715D01*
X59157142Y-17650001D01*
X59228571Y-17614286D01*
X59371428Y-17614286D01*
X59442857Y-17650001D01*
X59478571Y-17685715D01*
X59514285Y-17757143D01*
X59514285Y-17935715D01*
X59478571Y-18007143D01*
X59442857Y-18042858D01*
X59371428Y-18078572D01*
X59228571Y-18078572D01*
X59157142Y-18042858D01*
X59121428Y-18007143D01*
X59085714Y-17935715D01*
X19728571Y-16358035D02*
X19728571Y-15608035D01*
X19550000Y-15608035D01*
X19442857Y-15643750D01*
X19371428Y-15715178D01*
X19335714Y-15786607D01*
X19300000Y-15929464D01*
X19300000Y-16036607D01*
X19335714Y-16179464D01*
X19371428Y-16250892D01*
X19442857Y-16322321D01*
X19550000Y-16358035D01*
X19728571Y-16358035D01*
X18871428Y-15929464D02*
X18942857Y-15893750D01*
X18978571Y-15858035D01*
X19014285Y-15786607D01*
X19014285Y-15750892D01*
X18978571Y-15679464D01*
X18942857Y-15643750D01*
X18871428Y-15608035D01*
X18728571Y-15608035D01*
X18657142Y-15643750D01*
X18621428Y-15679464D01*
X18585714Y-15750892D01*
X18585714Y-15786607D01*
X18621428Y-15858035D01*
X18657142Y-15893750D01*
X18728571Y-15929464D01*
X18871428Y-15929464D01*
X18942857Y-15965178D01*
X18978571Y-16000892D01*
X19014285Y-16072321D01*
X19014285Y-16215178D01*
X18978571Y-16286607D01*
X18942857Y-16322321D01*
X18871428Y-16358035D01*
X18728571Y-16358035D01*
X18657142Y-16322321D01*
X18621428Y-16286607D01*
X18585714Y-16215178D01*
X18585714Y-16072321D01*
X18621428Y-16000892D01*
X18657142Y-15965178D01*
X18728571Y-15929464D01*
X241203571Y635714D02*
X241203571Y1385714D01*
X241025000Y1385714D01*
X240917857Y1350000D01*
X240846428Y1278571D01*
X240810714Y1207142D01*
X240775000Y1064285D01*
X240775000Y957142D01*
X240810714Y814285D01*
X240846428Y742857D01*
X240917857Y671428D01*
X241025000Y635714D01*
X241203571Y635714D01*
X240525000Y1385714D02*
X240025000Y1385714D01*
X240346428Y635714D01*
X203103571Y635714D02*
X203103571Y1385714D01*
X202925000Y1385714D01*
X202817857Y1350000D01*
X202746428Y1278571D01*
X202710714Y1207142D01*
X202675000Y1064285D01*
X202675000Y957142D01*
X202710714Y814285D01*
X202746428Y742857D01*
X202817857Y671428D01*
X202925000Y635714D01*
X203103571Y635714D01*
X202032142Y1385714D02*
X202175000Y1385714D01*
X202246428Y1350000D01*
X202282142Y1314285D01*
X202353571Y1207142D01*
X202389285Y1064285D01*
X202389285Y778571D01*
X202353571Y707142D01*
X202317857Y671428D01*
X202246428Y635714D01*
X202103571Y635714D01*
X202032142Y671428D01*
X201996428Y707142D01*
X201960714Y778571D01*
X201960714Y957142D01*
X201996428Y1028571D01*
X202032142Y1064285D01*
X202103571Y1100000D01*
X202246428Y1100000D01*
X202317857Y1064285D01*
X202353571Y1028571D01*
X202389285Y957142D01*
X165003571Y635714D02*
X165003571Y1385714D01*
X164825000Y1385714D01*
X164717857Y1350000D01*
X164646428Y1278571D01*
X164610714Y1207142D01*
X164575000Y1064285D01*
X164575000Y957142D01*
X164610714Y814285D01*
X164646428Y742857D01*
X164717857Y671428D01*
X164825000Y635714D01*
X165003571Y635714D01*
X163896428Y1385714D02*
X164253571Y1385714D01*
X164289285Y1028571D01*
X164253571Y1064285D01*
X164182142Y1100000D01*
X164003571Y1100000D01*
X163932142Y1064285D01*
X163896428Y1028571D01*
X163860714Y957142D01*
X163860714Y778571D01*
X163896428Y707142D01*
X163932142Y671428D01*
X164003571Y635714D01*
X164182142Y635714D01*
X164253571Y671428D01*
X164289285Y707142D01*
X126903571Y635714D02*
X126903571Y1385714D01*
X126725000Y1385714D01*
X126617857Y1350000D01*
X126546428Y1278571D01*
X126510714Y1207142D01*
X126475000Y1064285D01*
X126475000Y957142D01*
X126510714Y814285D01*
X126546428Y742857D01*
X126617857Y671428D01*
X126725000Y635714D01*
X126903571Y635714D01*
X125832142Y1135714D02*
X125832142Y635714D01*
X126010714Y1421428D02*
X126189285Y885714D01*
X125725000Y885714D01*
X88803571Y635714D02*
X88803571Y1385714D01*
X88625000Y1385714D01*
X88517857Y1350000D01*
X88446428Y1278571D01*
X88410714Y1207142D01*
X88375000Y1064285D01*
X88375000Y957142D01*
X88410714Y814285D01*
X88446428Y742857D01*
X88517857Y671428D01*
X88625000Y635714D01*
X88803571Y635714D01*
X88125000Y1385714D02*
X87660714Y1385714D01*
X87910714Y1100000D01*
X87803571Y1100000D01*
X87732142Y1064285D01*
X87696428Y1028571D01*
X87660714Y957142D01*
X87660714Y778571D01*
X87696428Y707142D01*
X87732142Y671428D01*
X87803571Y635714D01*
X88017857Y635714D01*
X88089285Y671428D01*
X88125000Y707142D01*
X50703571Y635714D02*
X50703571Y1385714D01*
X50525000Y1385714D01*
X50417857Y1350000D01*
X50346428Y1278571D01*
X50310714Y1207142D01*
X50275000Y1064285D01*
X50275000Y957142D01*
X50310714Y814285D01*
X50346428Y742857D01*
X50417857Y671428D01*
X50525000Y635714D01*
X50703571Y635714D01*
X49989285Y1314285D02*
X49953571Y1350000D01*
X49882142Y1385714D01*
X49703571Y1385714D01*
X49632142Y1350000D01*
X49596428Y1314285D01*
X49560714Y1242857D01*
X49560714Y1171428D01*
X49596428Y1064285D01*
X50025000Y635714D01*
X49560714Y635714D01*
X20153571Y1529464D02*
X20153571Y2279464D01*
X19975000Y2279464D01*
X19867857Y2243750D01*
X19796428Y2172321D01*
X19760714Y2100892D01*
X19725000Y1958035D01*
X19725000Y1850892D01*
X19760714Y1708035D01*
X19796428Y1636607D01*
X19867857Y1565178D01*
X19975000Y1529464D01*
X20153571Y1529464D01*
X19010714Y1529464D02*
X19439285Y1529464D01*
X19225000Y1529464D02*
X19225000Y2279464D01*
X19296428Y2172321D01*
X19367857Y2100892D01*
X19439285Y2065178D01*
M02*
