<?xml version="1.0" standalone="no"?>
 <!DOCTYPE svg PUBLIC "-//W3C//DTD SVG 1.1//EN" 
 "http://www.w3.org/Graphics/SVG/1.1/DTD/svg11.dtd"> 
<svg xmlns="http://www.w3.org/2000/svg" version="1.1" 
    width="41.9989cm" height="29.7002cm" viewBox="0 0 165350 116930 ">
<title>SVG Picture created as Flex60-B_SilkS.svg date 2020/12/14 14:48:38 </title>
  <desc>Picture generated by PCBNEW </desc>
<g style="fill:#000000; fill-opacity:1;stroke:#000000; stroke-opacity:1;
stroke-linecap:round; stroke-linejoin:round; "
 transform="translate(0 0) scale(1 1)">
</g>
<g style="fill:#000000; fill-opacity:0.0; 
stroke:#000000; stroke-width:-0.000393701; stroke-opacity:1; 
stroke-linecap:round; stroke-linejoin:round;">
</g>
<g style="fill:#000000; fill-opacity:0.0; 
stroke:#000000; stroke-width:47.2441; stroke-opacity:1; 
stroke-linecap:round; stroke-linejoin:round;">
<path d="M10901 10025
L10399 10527
" />
<path d="M11402 11529
L11903 11028
" />
<path d="M11903 11028
L11861 10986
" />
<path d="M11402 11529
L11360 11487
" />
<path d="M10399 10527
L10441 10568
" />
<path d="M10901 10025
L10942 10067
" />
<circle cx="6503.21" cy="13474.4" r="222.711" /> 
</g>
<g style="fill:#000000; fill-opacity:0.0; 
stroke:#000000; stroke-width:59.0551; stroke-opacity:1; 
stroke-linecap:round; stroke-linejoin:round;">
<path d="M8730 10593
L8542 10781
" />
<path d="M5848 13474
L6009 13314
" />
<path d="M5848 13474
L6036 13662
" />
<path d="M11611 13474
L11423 13286
" />
<path d="M8730 10593
L8918 10781
" />
<path d="M8730 16355
L8542 16167
" />
<path d="M8730 16355
L8918 16167
" />
<path d="M6009 13314
L5654 12959
" />
<path d="M11611 13474
L11423 13662
" />
</g>
<g style="fill:#000000; fill-opacity:0.0; 
stroke:#000000; stroke-width:47.2441; stroke-opacity:1; 
stroke-linecap:round; stroke-linejoin:round;">
<path d="M6770 2159
L6635 2159
" />
<path d="M6770 1757
L6635 1757
" />
<path d="M2836 1777
L2970 1777
" />
<path d="M2836 2179
L2970 2179
" />
<path d="M-1332 10470
L-1332 10336
" />
<path d="M-931 10470
L-931 10336
" />
<path d="M-584 10470
L-584 10336
" />
<path d="M-183 10470
L-183 10336
" />
<path d="M9925 17177
L9830 17082
" />
<path d="M10209 16893
L10113 16798
" />
<path d="M12530 12200
L12665 12200
" />
<path d="M12530 12602
L12665 12602
" />
<path d="M4375 4518
L4375 4044
" />
<path d="M5092 4518
L5092 4044
" />
<path d="M5206 2982
L4045 2982
" />
<path d="M4261 1761
L5206 1761
" />
<path d="M5998 11282
L5902 11186
" />
<path d="M6282 10998
L6186 10902
" />
<path d="M7522 17190
L7426 17286
" />
<path d="M7238 16906
L7143 17002
" />
<path d="M10154 9915
L10250 9820
" />
<path d="M10438 10199
L10534 10104
" />
<path d="M12540 13332
L12675 13332
" />
<path d="M12540 13734
L12675 13734
" />
<path d="M4703 12651
L4568 12651
" />
<path d="M4703 12250
L4568 12250
" />
<path d="M100366 28293
L100366 28868
" />
<path d="M99122 28293
L99122 28868
" />
<path d="M100366 28293
L100000 28293
" />
<path d="M99122 28293
L99488 28293
" />
<path d="M81303 28293
L81303 28868
" />
<path d="M80059 28293
L80059 28868
" />
<path d="M81303 28293
L80937 28293
" />
<path d="M80059 28293
L80425 28293
" />
<path d="M38491 28293
L38491 28868
" />
<path d="M37247 28293
L37247 28868
" />
<path d="M38491 28293
L38124 28293
" />
<path d="M37247 28293
L37613 28293
" />
<path d="M8178 28293
L8178 28868
" />
<path d="M6934 28293
L6934 28868
" />
<path d="M8178 28293
L7812 28293
" />
<path d="M6934 28293
L7300 28293
" />
<path d="M102241 19132
L102241 19707
" />
<path d="M100997 19132
L100997 19707
" />
<path d="M102241 19132
L101875 19132
" />
<path d="M100997 19132
L101363 19132
" />
<path d="M89741 20793
L89741 21368
" />
<path d="M88497 20793
L88497 21368
" />
<path d="M89741 20793
L89375 20793
" />
<path d="M88497 20793
L88863 20793
" />
<path d="M74741 20793
L74741 21368
" />
<path d="M73497 20793
L73497 21368
" />
<path d="M74741 20793
L74375 20793
" />
<path d="M73497 20793
L73863 20793
" />
<path d="M59741 20793
L59741 21368
" />
<path d="M58497 20793
L58497 21368
" />
<path d="M59741 20793
L59375 20793
" />
<path d="M58497 20793
L58863 20793
" />
<path d="M44741 20793
L44741 21368
" />
<path d="M43497 20793
L43497 21368
" />
<path d="M44741 20793
L44375 20793
" />
<path d="M43497 20793
L43863 20793
" />
<path d="M29741 20793
L29741 21368
" />
<path d="M28497 20793
L28497 21368
" />
<path d="M29741 20793
L29375 20793
" />
<path d="M28497 20793
L28863 20793
" />
<path d="M14116 20793
L14116 21368
" />
<path d="M12872 20793
L12872 21368
" />
<path d="M14116 20793
L13750 20793
" />
<path d="M12872 20793
L13238 20793
" />
<path d="M103289 11226
L103289 11801
" />
<path d="M102045 11226
L102045 11801
" />
<path d="M103289 11226
L102923 11226
" />
<path d="M102045 11226
L102411 11226
" />
<path d="M85991 13276
L85991 13850
" />
<path d="M84747 13276
L84747 13850
" />
<path d="M85991 13276
L85625 13276
" />
<path d="M84747 13276
L85113 13276
" />
<path d="M70991 13276
L70991 13850
" />
<path d="M69747 13276
L69747 13850
" />
<path d="M70991 13276
L70625 13276
" />
<path d="M69747 13276
L70113 13276
" />
<path d="M55991 13276
L55991 13850
" />
<path d="M54747 13276
L54747 13850
" />
<path d="M55991 13276
L55625 13276
" />
<path d="M54747 13276
L55113 13276
" />
<path d="M40991 13276
L40991 13850
" />
<path d="M39747 13276
L39747 13850
" />
<path d="M40991 13276
L40625 13276
" />
<path d="M39747 13276
L40113 13276
" />
<path d="M25991 13276
L25991 13850
" />
<path d="M24747 13276
L24747 13850
" />
<path d="M25991 13276
L25625 13276
" />
<path d="M24747 13276
L25113 13276
" />
<path d="M8098 19108
L8098 18533
" />
<path d="M9342 19108
L9342 18533
" />
<path d="M8098 19108
L8464 19108
" />
<path d="M9342 19108
L8976 19108
" />
<path d="M100366 5382
L100366 5957
" />
<path d="M99122 5382
L99122 5957
" />
<path d="M100366 5382
L100000 5382
" />
<path d="M99122 5382
L99488 5382
" />
<path d="M84116 5776
L84116 6350
" />
<path d="M82872 5776
L82872 6350
" />
<path d="M84116 5776
L83750 5776
" />
<path d="M82872 5776
L83238 5776
" />
<path d="M69116 5776
L69116 6350
" />
<path d="M67872 5776
L67872 6350
" />
<path d="M69116 5776
L68750 5776
" />
<path d="M67872 5776
L68238 5776
" />
<path d="M54116 5776
L54116 6350
" />
<path d="M52872 5776
L52872 6350
" />
<path d="M54116 5776
L53750 5776
" />
<path d="M52872 5776
L53238 5776
" />
<path d="M39116 5776
L39116 6350
" />
<path d="M37872 5776
L37872 6350
" />
<path d="M39116 5776
L38750 5776
" />
<path d="M37872 5776
L38238 5776
" />
<path d="M24116 5776
L24116 6350
" />
<path d="M22872 5776
L22872 6350
" />
<path d="M24116 5776
L23750 5776
" />
<path d="M22872 5776
L23238 5776
" />
<path d="M8171 4986
L8171 5561
" />
<path d="M6927 4986
L6927 5561
" />
<path d="M8171 4986
L7805 4986
" />
<path d="M6927 4986
L7293 4986
" />
<path d="M95366 -1689
L95366 -1114
" />
<path d="M94122 -1689
L94122 -1114
" />
<path d="M95366 -1689
L95000 -1689
" />
<path d="M94122 -1689
L94488 -1689
" />
<path d="M80366 -1689
L80366 -1114
" />
<path d="M79122 -1689
L79122 -1114
" />
<path d="M80366 -1689
L80000 -1689
" />
<path d="M79122 -1689
L79488 -1689
" />
<path d="M65366 -1689
L65366 -1114
" />
<path d="M64122 -1689
L64122 -1114
" />
<path d="M65366 -1689
L65000 -1689
" />
<path d="M64122 -1689
L64488 -1689
" />
<path d="M50366 -1689
L50366 -1114
" />
<path d="M49122 -1689
L49122 -1114
" />
<path d="M50366 -1689
L50000 -1689
" />
<path d="M49122 -1689
L49488 -1689
" />
<path d="M35366 -1689
L35366 -1114
" />
<path d="M34122 -1689
L34122 -1114
" />
<path d="M35366 -1689
L35000 -1689
" />
<path d="M34122 -1689
L34488 -1689
" />
<path d="M20366 -1689
L20366 -1114
" />
<path d="M19122 -1689
L19122 -1114
" />
<path d="M20366 -1689
L20000 -1689
" />
<path d="M19122 -1689
L19488 -1689
" />
<path d="M8338 -2041
L8338 -1466
" />
<path d="M7094 -2041
L7094 -1466
" />
<path d="M8338 -2041
L7972 -2041
" />
<path d="M7094 -2041
L7460 -2041
" />
</g>
<g style="fill:#000000; fill-opacity:0.0; 
stroke:#000000; stroke-width:59.0551; stroke-opacity:1; 
stroke-linecap:round; stroke-linejoin:round;">
<path d="M15483 11782
L15614 11594
" />
<path d="M15708 11782
L15708 11388
L15558 11388
L15520 11407
L15501 11426
L15483 11463
L15483 11519
L15501 11557
L15520 11576
L15558 11594
L15708 11594
" />
<path d="M15314 11576
L15183 11576
" />
<path d="M15127 11782
L15314 11782
L15314 11388
L15127 11388
" />
<path d="M14977 11763
L14920 11782
L14827 11782
L14789 11763
L14770 11744
L14752 11707
L14752 11669
L14770 11632
L14789 11613
L14827 11594
L14902 11576
L14939 11557
L14958 11538
L14977 11501
L14977 11463
L14958 11426
L14939 11407
L14902 11388
L14808 11388
L14752 11407
" />
<path d="M14583 11576
L14452 11576
" />
<path d="M14395 11782
L14583 11782
L14583 11388
L14395 11388
" />
<path d="M14283 11388
L14058 11388
" />
<path d="M14170 11782
L14170 11388
" />
<path d="M7131 2348
L7272 2348
L7286 2488
L7272 2474
L7244 2460
L7173 2460
L7145 2474
L7131 2488
L7117 2516
L7117 2587
L7131 2615
L7145 2629
L7173 2643
L7244 2643
L7272 2629
L7286 2615
" />
<path d="M6991 2615
L6976 2629
L6991 2643
L7005 2629
L6991 2615
L6991 2643
" />
<path d="M6695 2643
L6864 2643
" />
<path d="M6780 2643
L6780 2348
L6808 2390
L6836 2418
L6864 2432
" />
<path d="M6569 2643
L6569 2348
" />
<path d="M6541 2530
L6456 2643
" />
<path d="M6456 2446
L6569 2559
" />
<path d="M6344 2643
L6273 2643
L6273 2587
L6302 2573
L6330 2544
L6344 2502
L6344 2432
L6330 2390
L6302 2362
L6259 2348
L6203 2348
L6161 2362
L6133 2390
L6119 2432
L6119 2502
L6133 2544
L6161 2573
L6189 2587
L6189 2643
L6119 2643
" />
<path d="M3332 2367
L3473 2367
L3487 2508
L3473 2494
L3444 2480
L3374 2480
L3346 2494
L3332 2508
L3318 2536
L3318 2606
L3332 2634
L3346 2649
L3374 2663
L3444 2663
L3473 2649
L3487 2634
" />
<path d="M3191 2634
L3177 2649
L3191 2663
L3205 2649
L3191 2634
L3191 2663
" />
<path d="M2896 2663
L3065 2663
" />
<path d="M2980 2663
L2980 2367
L3008 2410
L3037 2438
L3065 2452
" />
<path d="M2769 2663
L2769 2367
" />
<path d="M2741 2550
L2657 2663
" />
<path d="M2657 2466
L2769 2578
" />
<path d="M2544 2663
L2474 2663
L2474 2606
L2502 2592
L2530 2564
L2544 2522
L2544 2452
L2530 2410
L2502 2381
L2460 2367
L2404 2367
L2362 2381
L2334 2410
L2320 2452
L2320 2522
L2334 2564
L2362 2592
L2390 2606
L2390 2663
L2320 2663
" />
<path d="M-1816 10009
L-1830 10023
L-1844 10052
L-1844 10122
L-1830 10150
L-1816 10164
L-1788 10178
L-1760 10178
L-1718 10164
L-1549 9995
L-1549 10178
" />
<path d="M-1816 10291
L-1830 10305
L-1844 10333
L-1844 10403
L-1830 10431
L-1816 10445
L-1788 10459
L-1760 10459
L-1718 10445
L-1549 10276
L-1549 10459
" />
<path d="M-1549 10572
L-1549 10642
L-1605 10642
L-1619 10614
L-1647 10586
L-1690 10572
L-1760 10572
L-1802 10586
L-1830 10614
L-1844 10656
L-1844 10712
L-1830 10755
L-1802 10783
L-1760 10797
L-1690 10797
L-1647 10783
L-1619 10755
L-1605 10726
L-1549 10726
L-1549 10797
" />
<path d="M14 10009
L0 10023
L-14 10052
L-14 10122
L0 10150
L14 10164
L42 10178
L70 10178
L112 10164
L281 9995
L281 10178
" />
<path d="M14 10291
L0 10305
L-14 10333
L-14 10403
L0 10431
L14 10445
L42 10459
L70 10459
L112 10445
L281 10276
L281 10459
" />
<path d="M281 10572
L281 10642
L224 10642
L210 10614
L182 10586
L140 10572
L70 10572
L28 10586
L0 10614
L-14 10656
L-14 10712
L0 10755
L28 10783
L70 10797
L140 10797
L182 10783
L210 10755
L224 10726
L281 10726
L281 10797
" />
<path d="M9779 17715
L9898 17835
" />
<path d="M9838 17775
L10047 17566
L10037 17616
L10037 17656
L10047 17686
" />
<path d="M9858 17377
L9838 17358
L9808 17348
L9789 17348
L9759 17358
L9709 17387
L9659 17437
L9629 17487
L9619 17517
L9619 17537
L9629 17566
L9649 17586
L9679 17596
L9699 17596
L9729 17586
L9779 17556
L9828 17507
L9858 17457
L9868 17427
L9868 17407
L9858 17377
" />
<path d="M9490 17427
L9699 17218
" />
<path d="M9550 17328
L9411 17348
" />
<path d="M9550 17208
L9550 17367
" />
<path d="M9331 17268
L9281 17218
L9321 17179
L9351 17189
L9391 17189
L9431 17169
L9480 17119
L9500 17079
L9500 17039
L9480 17000
L9441 16960
L9401 16940
L9361 16940
L9321 16960
L9272 17010
L9252 17049
L9252 17089
L9262 17119
L9222 17159
L9172 17109
" />
<path d="M12942 12013
L13111 12013
" />
<path d="M13027 12013
L13027 11718
L13055 11760
L13083 11788
L13111 11802
" />
<path d="M12760 11718
L12732 11718
L12703 11732
L12689 11746
L12675 11774
L12661 11830
L12661 11901
L12675 11957
L12689 11985
L12703 11999
L12732 12013
L12760 12013
L12788 11999
L12802 11985
L12816 11957
L12830 11901
L12830 11830
L12816 11774
L12802 11746
L12788 11732
L12760 11718
" />
<path d="M12535 12013
L12535 11718
" />
<path d="M12507 11901
L12422 12013
" />
<path d="M12422 11816
L12535 11929
" />
<path d="M12310 12013
L12239 12013
L12239 11957
L12267 11943
L12296 11915
L12310 11872
L12310 11802
L12296 11760
L12267 11732
L12225 11718
L12169 11718
L12127 11732
L12099 11760
L12085 11802
L12085 11872
L12099 11915
L12127 11943
L12155 11957
L12155 12013
L12085 12013
" />
<path d="M3856 3747
L3856 3606
L3996 3592
L3982 3606
L3968 3634
L3968 3705
L3982 3733
L3996 3747
L4024 3761
L4095 3761
L4123 3747
L4137 3733
L4151 3705
L4151 3634
L4137 3606
L4123 3592
" />
<path d="M3856 3944
L3856 3972
L3870 4000
L3884 4014
L3912 4028
L3968 4042
L4038 4042
L4095 4028
L4123 4014
L4137 4000
L4151 3972
L4151 3944
L4137 3915
L4123 3901
L4095 3887
L4038 3873
L3968 3873
L3912 3887
L3884 3901
L3870 3915
L3856 3944
" />
<path d="M3856 4225
L3856 4253
L3870 4281
L3884 4295
L3912 4309
L3968 4323
L4038 4323
L4095 4309
L4123 4295
L4137 4281
L4151 4253
L4151 4225
L4137 4197
L4123 4183
L4095 4169
L4038 4154
L3968 4154
L3912 4169
L3884 4183
L3870 4197
L3856 4225
" />
<path d="M4151 4450
L3954 4450
" />
<path d="M3982 4450
L3968 4464
L3954 4492
L3954 4534
L3968 4562
L3996 4576
L4151 4576
" />
<path d="M3996 4576
L3968 4590
L3954 4618
L3954 4661
L3968 4689
L3996 4703
L4151 4703
" />
<path d="M4066 4829
L4066 4970
" />
<path d="M4151 4801
L3856 4900
L4151 4998
" />
</g>
<g style="fill:#000000; fill-opacity:0.0; 
stroke:#000000; stroke-width:49.2126; stroke-opacity:1; 
stroke-linecap:round; stroke-linejoin:round;">
<path d="M5509 1484
L5509 1287
L5434 1287
L5416 1297
L5406 1306
L5397 1325
L5397 1353
L5406 1372
L5416 1381
L5434 1390
L5509 1390
" />
<path d="M5200 1484
L5266 1390
" />
<path d="M5312 1484
L5312 1287
L5238 1287
L5219 1297
L5209 1306
L5200 1325
L5200 1353
L5209 1372
L5219 1381
L5238 1390
L5312 1390
" />
<path d="M5144 1287
L5031 1287
" />
<path d="M5088 1484
L5088 1287
" />
<path d="M4853 1484
L4919 1390
" />
<path d="M4966 1484
L4966 1287
L4891 1287
L4872 1297
L4863 1306
L4853 1325
L4853 1353
L4863 1372
L4872 1381
L4891 1390
L4966 1390
" />
<path d="M4675 1287
L4769 1287
L4778 1381
L4769 1372
L4750 1362
L4703 1362
L4684 1372
L4675 1381
L4666 1400
L4666 1447
L4675 1465
L4684 1475
L4703 1484
L4750 1484
L4769 1475
L4778 1465
" />
<path d="M4609 1287
L4544 1484
L4478 1287
" />
<path d="M4375 1287
L4356 1287
L4338 1297
L4328 1306
L4319 1325
L4309 1362
L4309 1409
L4319 1447
L4328 1465
L4338 1475
L4356 1484
L4375 1484
L4394 1475
L4403 1465
L4413 1447
L4422 1409
L4422 1362
L4413 1325
L4403 1306
L4394 1297
L4375 1287
" />
<path d="M4225 1287
L4225 1447
L4216 1465
L4206 1475
L4188 1484
L4150 1484
L4131 1475
L4122 1465
L4113 1447
L4113 1287
" />
<path d="M4028 1306
L4019 1297
L4000 1287
L3953 1287
L3935 1297
L3925 1306
L3916 1325
L3916 1344
L3925 1372
L4038 1484
L3916 1484
" />
<path d="M3850 1287
L3719 1484
" />
<path d="M3719 1287
L3850 1484
" />
</g>
<g style="fill:#000000; fill-opacity:0.0; 
stroke:#000000; stroke-width:59.0551; stroke-opacity:1; 
stroke-linecap:round; stroke-linejoin:round;">
<path d="M5747 11715
L5866 11835
" />
<path d="M5807 11775
L6015 11566
L6006 11616
L6006 11656
L6015 11686
" />
<path d="M5797 11487
L5588 11696
" />
<path d="M5588 11497
L5558 11507
L5528 11497
" />
<path d="M5687 11596
L5658 11606
L5628 11596
L5588 11556
L5578 11527
L5588 11497
L5697 11387
" />
<path d="M5479 11228
L5548 11298
" />
<path d="M5439 11407
L5648 11198
L5548 11099
" />
<path d="M8140 17257
L8259 17138
" />
<path d="M8199 17197
L7990 16989
L8040 16999
L8080 16999
L8110 16989
" />
<path d="M7801 17177
L7782 17197
L7772 17227
L7772 17247
L7782 17277
L7811 17327
L7861 17376
L7911 17406
L7941 17416
L7961 17416
L7990 17406
L8010 17386
L8020 17356
L8020 17337
L8010 17307
L7980 17257
L7931 17207
L7881 17177
L7851 17168
L7831 17168
L7801 17177
" />
<path d="M7603 17376
L7583 17396
L7573 17426
L7573 17446
L7583 17476
L7613 17525
L7662 17575
L7712 17605
L7742 17615
L7762 17615
L7792 17605
L7811 17585
L7821 17555
L7821 17535
L7811 17506
L7782 17456
L7732 17406
L7682 17376
L7652 17366
L7632 17366
L7603 17376
" />
<path d="M7513 17605
L7652 17744
" />
<path d="M7533 17625
L7513 17625
L7483 17635
L7453 17665
L7444 17694
L7453 17724
L7563 17834
" />
<path d="M7284 17893
L7354 17824
" />
<path d="M7463 17933
L7255 17724
L7155 17824
" />
<path d="M10372 9391
L10491 9272
" />
<path d="M10431 9331
L10223 9122
L10272 9132
L10312 9132
L10342 9122
" />
<path d="M10034 9311
L10014 9331
L10004 9361
L10004 9381
L10014 9411
L10044 9461
L10093 9510
L10143 9540
L10173 9550
L10193 9550
L10223 9540
L10243 9520
L10253 9490
L10253 9470
L10243 9441
L10213 9391
L10163 9341
L10113 9311
L10083 9301
L10064 9301
L10034 9311
" />
<path d="M9835 9510
L9815 9530
L9805 9560
L9805 9580
L9815 9610
L9845 9659
L9895 9709
L9944 9739
L9974 9749
L9994 9749
L10024 9739
L10044 9719
L10054 9689
L10054 9669
L10044 9639
L10014 9590
L9964 9540
L9914 9510
L9885 9500
L9865 9500
L9835 9510
" />
<path d="M9745 9739
L9885 9878
" />
<path d="M9765 9759
L9745 9759
L9716 9769
L9686 9799
L9676 9828
L9686 9858
L9795 9968
" />
<path d="M9517 10027
L9586 9958
" />
<path d="M9696 10067
L9487 9858
L9388 9958
" />
<path d="M13065 13115
L13233 13115
" />
<path d="M13149 13115
L13149 12820
L13177 12862
L13205 12890
L13233 12904
" />
<path d="M12882 12820
L12854 12820
L12826 12834
L12812 12848
L12798 12876
L12784 12933
L12784 13003
L12798 13059
L12812 13087
L12826 13101
L12854 13115
L12882 13115
L12910 13101
L12924 13087
L12938 13059
L12952 13003
L12952 12933
L12938 12876
L12924 12848
L12910 12834
L12882 12820
" />
<path d="M12601 12820
L12573 12820
L12544 12834
L12530 12848
L12516 12876
L12502 12933
L12502 13003
L12516 13059
L12530 13087
L12544 13101
L12573 13115
L12601 13115
L12629 13101
L12643 13087
L12657 13059
L12671 13003
L12671 12933
L12657 12876
L12643 12848
L12629 12834
L12601 12820
" />
<path d="M12376 12919
L12376 13115
" />
<path d="M12376 12947
L12362 12933
L12334 12919
L12291 12919
L12263 12933
L12249 12961
L12249 13115
" />
<path d="M12010 12961
L12109 12961
" />
<path d="M12109 13115
L12109 12820
L11968 12820
" />
<path d="M4973 13135
L5142 13135
" />
<path d="M5057 13135
L5057 12840
L5085 12882
L5113 12910
L5142 12924
" />
<path d="M4790 12840
L4762 12840
L4734 12854
L4720 12868
L4706 12896
L4692 12952
L4692 13023
L4706 13079
L4720 13107
L4734 13121
L4762 13135
L4790 13135
L4818 13121
L4832 13107
L4846 13079
L4860 13023
L4860 12952
L4846 12896
L4832 12868
L4818 12854
L4790 12840
" />
<path d="M4565 12938
L4565 13233
" />
<path d="M4424 13093
L4410 13121
L4382 13135
" />
<path d="M4565 13093
L4551 13121
L4523 13135
L4467 13135
L4438 13121
L4424 13093
L4424 12938
" />
<path d="M4157 12980
L4256 12980
" />
<path d="M4256 13135
L4256 12840
L4115 12840
" />
<path d="M100102 29769
L100102 29474
L100032 29474
L99990 29488
L99962 29516
L99947 29544
L99933 29600
L99933 29642
L99947 29699
L99962 29727
L99990 29755
L100032 29769
L100102 29769
" />
<path d="M99835 29474
L99652 29474
L99751 29586
L99708 29586
L99680 29600
L99666 29614
L99652 29642
L99652 29713
L99666 29741
L99680 29755
L99708 29769
L99793 29769
L99821 29755
L99835 29741
" />
<path d="M99540 29502
L99526 29488
L99498 29474
L99427 29474
L99399 29488
L99385 29502
L99371 29530
L99371 29558
L99385 29600
L99554 29769
L99371 29769
" />
<path d="M81040 29769
L81040 29474
L80969 29474
L80927 29488
L80899 29516
L80885 29544
L80871 29600
L80871 29642
L80885 29699
L80899 29727
L80927 29755
L80969 29769
L81040 29769
" />
<path d="M80772 29474
L80590 29474
L80688 29586
L80646 29586
L80618 29600
L80604 29614
L80590 29642
L80590 29713
L80604 29741
L80618 29755
L80646 29769
L80730 29769
L80758 29755
L80772 29741
" />
<path d="M80308 29769
L80477 29769
" />
<path d="M80393 29769
L80393 29474
L80421 29516
L80449 29544
L80477 29558
" />
<path d="M38227 29769
L38227 29474
L38157 29474
L38115 29488
L38087 29516
L38072 29544
L38058 29600
L38058 29642
L38072 29699
L38087 29727
L38115 29755
L38157 29769
L38227 29769
" />
<path d="M37960 29474
L37777 29474
L37876 29586
L37833 29586
L37805 29600
L37791 29614
L37777 29642
L37777 29713
L37791 29741
L37805 29755
L37833 29769
L37918 29769
L37946 29755
L37960 29741
" />
<path d="M37594 29474
L37566 29474
L37538 29488
L37524 29502
L37510 29530
L37496 29586
L37496 29656
L37510 29713
L37524 29741
L37538 29755
L37566 29769
L37594 29769
L37623 29755
L37637 29741
L37651 29713
L37665 29656
L37665 29586
L37651 29530
L37637 29502
L37623 29488
L37594 29474
" />
<path d="M7915 29769
L7915 29474
L7844 29474
L7802 29488
L7774 29516
L7760 29544
L7746 29600
L7746 29642
L7760 29699
L7774 29727
L7802 29755
L7844 29769
L7915 29769
" />
<path d="M7633 29502
L7619 29488
L7591 29474
L7521 29474
L7493 29488
L7479 29502
L7465 29530
L7465 29558
L7479 29600
L7647 29769
L7465 29769
" />
<path d="M7324 29769
L7268 29769
L7240 29755
L7226 29741
L7198 29699
L7183 29642
L7183 29530
L7198 29502
L7212 29488
L7240 29474
L7296 29474
L7324 29488
L7338 29502
L7352 29530
L7352 29600
L7338 29628
L7324 29642
L7296 29656
L7240 29656
L7212 29642
L7198 29628
L7183 29600
" />
<path d="M101977 20615
L101977 20320
L101907 20320
L101865 20334
L101837 20362
L101822 20390
L101808 20447
L101808 20489
L101822 20545
L101837 20573
L101865 20601
L101907 20615
L101977 20615
" />
<path d="M101696 20348
L101682 20334
L101654 20320
L101583 20320
L101555 20334
L101541 20348
L101527 20376
L101527 20404
L101541 20447
L101710 20615
L101527 20615
" />
<path d="M101358 20447
L101387 20433
L101401 20419
L101415 20390
L101415 20376
L101401 20348
L101387 20334
L101358 20320
L101302 20320
L101274 20334
L101260 20348
L101246 20376
L101246 20390
L101260 20419
L101274 20433
L101302 20447
L101358 20447
L101387 20461
L101401 20475
L101415 20503
L101415 20559
L101401 20587
L101387 20601
L101358 20615
L101302 20615
L101274 20601
L101260 20587
L101246 20559
L101246 20503
L101260 20475
L101274 20461
L101302 20447
" />
<path d="M89477 22289
L89477 21993
L89407 21993
L89365 22007
L89337 22035
L89322 22064
L89308 22120
L89308 22162
L89322 22218
L89337 22246
L89365 22275
L89407 22289
L89477 22289
" />
<path d="M89196 22021
L89182 22007
L89154 21993
L89083 21993
L89055 22007
L89041 22021
L89027 22050
L89027 22078
L89041 22120
L89210 22289
L89027 22289
" />
<path d="M88929 21993
L88732 21993
L88858 22289
" />
<path d="M74477 22289
L74477 21993
L74407 21993
L74365 22007
L74337 22035
L74322 22064
L74308 22120
L74308 22162
L74322 22218
L74337 22246
L74365 22275
L74407 22289
L74477 22289
" />
<path d="M74196 22021
L74182 22007
L74154 21993
L74083 21993
L74055 22007
L74041 22021
L74027 22050
L74027 22078
L74041 22120
L74210 22289
L74027 22289
" />
<path d="M73774 21993
L73830 21993
L73858 22007
L73873 22021
L73901 22064
L73915 22120
L73915 22232
L73901 22260
L73887 22275
L73858 22289
L73802 22289
L73774 22275
L73760 22260
L73746 22232
L73746 22162
L73760 22134
L73774 22120
L73802 22106
L73858 22106
L73887 22120
L73901 22134
L73915 22162
" />
<path d="M59477 22289
L59477 21993
L59407 21993
L59365 22007
L59337 22035
L59322 22064
L59308 22120
L59308 22162
L59322 22218
L59337 22246
L59365 22275
L59407 22289
L59477 22289
" />
<path d="M59196 22021
L59182 22007
L59154 21993
L59083 21993
L59055 22007
L59041 22021
L59027 22050
L59027 22078
L59041 22120
L59210 22289
L59027 22289
" />
<path d="M58760 21993
L58901 21993
L58915 22134
L58901 22120
L58873 22106
L58802 22106
L58774 22120
L58760 22134
L58746 22162
L58746 22232
L58760 22260
L58774 22275
L58802 22289
L58873 22289
L58901 22275
L58915 22260
" />
<path d="M44477 22289
L44477 21993
L44407 21993
L44365 22007
L44337 22035
L44322 22064
L44308 22120
L44308 22162
L44322 22218
L44337 22246
L44365 22275
L44407 22289
L44477 22289
" />
<path d="M44196 22021
L44182 22007
L44154 21993
L44083 21993
L44055 22007
L44041 22021
L44027 22050
L44027 22078
L44041 22120
L44210 22289
L44027 22289
" />
<path d="M43774 22092
L43774 22289
" />
<path d="M43844 21979
L43915 22190
L43732 22190
" />
<path d="M29477 22289
L29477 21993
L29407 21993
L29365 22007
L29337 22035
L29322 22064
L29308 22120
L29308 22162
L29322 22218
L29337 22246
L29365 22275
L29407 22289
L29477 22289
" />
<path d="M29196 22021
L29182 22007
L29154 21993
L29083 21993
L29055 22007
L29041 22021
L29027 22050
L29027 22078
L29041 22120
L29210 22289
L29027 22289
" />
<path d="M28929 21993
L28746 21993
L28844 22106
L28802 22106
L28774 22120
L28760 22134
L28746 22162
L28746 22232
L28760 22260
L28774 22275
L28802 22289
L28887 22289
L28915 22275
L28929 22260
" />
<path d="M13852 22289
L13852 21993
L13782 21993
L13740 22007
L13712 22035
L13697 22064
L13683 22120
L13683 22162
L13697 22218
L13712 22246
L13740 22275
L13782 22289
L13852 22289
" />
<path d="M13571 22021
L13557 22007
L13529 21993
L13458 21993
L13430 22007
L13416 22021
L13402 22050
L13402 22078
L13416 22120
L13585 22289
L13402 22289
" />
<path d="M13290 22021
L13276 22007
L13248 21993
L13177 21993
L13149 22007
L13135 22021
L13121 22050
L13121 22078
L13135 22120
L13304 22289
L13121 22289
" />
<path d="M103025 12810
L103025 12515
L102955 12515
L102913 12529
L102885 12557
L102871 12585
L102857 12642
L102857 12684
L102871 12740
L102885 12768
L102913 12796
L102955 12810
L103025 12810
" />
<path d="M102744 12543
L102730 12529
L102702 12515
L102632 12515
L102604 12529
L102589 12543
L102575 12571
L102575 12599
L102589 12642
L102758 12810
L102575 12810
" />
<path d="M102294 12810
L102463 12810
" />
<path d="M102379 12810
L102379 12515
L102407 12557
L102435 12585
L102463 12599
" />
<path d="M85727 14710
L85727 14415
L85657 14415
L85615 14429
L85587 14457
L85572 14485
L85558 14541
L85558 14583
L85572 14640
L85587 14668
L85615 14696
L85657 14710
L85727 14710
" />
<path d="M85446 14443
L85432 14429
L85404 14415
L85333 14415
L85305 14429
L85291 14443
L85277 14471
L85277 14499
L85291 14541
L85460 14710
L85277 14710
" />
<path d="M85094 14415
L85066 14415
L85038 14429
L85024 14443
L85010 14471
L84996 14527
L84996 14597
L85010 14654
L85024 14682
L85038 14696
L85066 14710
L85094 14710
L85123 14696
L85137 14682
L85151 14654
L85165 14597
L85165 14527
L85151 14471
L85137 14443
L85123 14429
L85094 14415
" />
<path d="M70727 14710
L70727 14415
L70657 14415
L70615 14429
L70587 14457
L70572 14485
L70558 14541
L70558 14583
L70572 14640
L70587 14668
L70615 14696
L70657 14710
L70727 14710
" />
<path d="M70277 14710
L70446 14710
" />
<path d="M70362 14710
L70362 14415
L70390 14457
L70418 14485
L70446 14499
" />
<path d="M70137 14710
L70080 14710
L70052 14696
L70038 14682
L70010 14640
L69996 14583
L69996 14471
L70010 14443
L70024 14429
L70052 14415
L70108 14415
L70137 14429
L70151 14443
L70165 14471
L70165 14541
L70151 14569
L70137 14583
L70108 14597
L70052 14597
L70024 14583
L70010 14569
L69996 14541
" />
<path d="M55727 14710
L55727 14415
L55657 14415
L55615 14429
L55587 14457
L55572 14485
L55558 14541
L55558 14583
L55572 14640
L55587 14668
L55615 14696
L55657 14710
L55727 14710
" />
<path d="M55277 14710
L55446 14710
" />
<path d="M55362 14710
L55362 14415
L55390 14457
L55418 14485
L55446 14499
" />
<path d="M55108 14541
L55137 14527
L55151 14513
L55165 14485
L55165 14471
L55151 14443
L55137 14429
L55108 14415
L55052 14415
L55024 14429
L55010 14443
L54996 14471
L54996 14485
L55010 14513
L55024 14527
L55052 14541
L55108 14541
L55137 14555
L55151 14569
L55165 14597
L55165 14654
L55151 14682
L55137 14696
L55108 14710
L55052 14710
L55024 14696
L55010 14682
L54996 14654
L54996 14597
L55010 14569
L55024 14555
L55052 14541
" />
<path d="M40727 14710
L40727 14415
L40657 14415
L40615 14429
L40587 14457
L40572 14485
L40558 14541
L40558 14583
L40572 14640
L40587 14668
L40615 14696
L40657 14710
L40727 14710
" />
<path d="M40277 14710
L40446 14710
" />
<path d="M40362 14710
L40362 14415
L40390 14457
L40418 14485
L40446 14499
" />
<path d="M40179 14415
L39982 14415
L40108 14710
" />
<path d="M25727 14710
L25727 14415
L25657 14415
L25615 14429
L25587 14457
L25572 14485
L25558 14541
L25558 14583
L25572 14640
L25587 14668
L25615 14696
L25657 14710
L25727 14710
" />
<path d="M25277 14710
L25446 14710
" />
<path d="M25362 14710
L25362 14415
L25390 14457
L25418 14485
L25446 14499
" />
<path d="M25024 14415
L25080 14415
L25108 14429
L25123 14443
L25151 14485
L25165 14541
L25165 14654
L25151 14682
L25137 14696
L25108 14710
L25052 14710
L25024 14696
L25010 14682
L24996 14654
L24996 14583
L25010 14555
L25024 14541
L25052 14527
L25108 14527
L25137 14541
L25151 14555
L25165 14583
" />
<path d="M9079 17941
L9079 17645
L9008 17645
L8966 17659
L8938 17688
L8924 17716
L8910 17772
L8910 17814
L8924 17870
L8938 17898
L8966 17927
L9008 17941
L9079 17941
" />
<path d="M8629 17941
L8797 17941
" />
<path d="M8713 17941
L8713 17645
L8741 17688
L8769 17716
L8797 17730
" />
<path d="M8361 17645
L8502 17645
L8516 17786
L8502 17772
L8474 17758
L8404 17758
L8375 17772
L8361 17786
L8347 17814
L8347 17884
L8361 17913
L8375 17927
L8404 17941
L8474 17941
L8502 17927
L8516 17913
" />
<path d="M101352 5852
L101352 5556
L101282 5556
L101240 5570
L101212 5598
L101197 5627
L101183 5683
L101183 5725
L101197 5781
L101212 5809
L101240 5838
L101282 5852
L101352 5852
" />
<path d="M100902 5852
L101071 5852
" />
<path d="M100987 5852
L100987 5556
L101015 5598
L101043 5627
L101071 5641
" />
<path d="M100649 5655
L100649 5852
" />
<path d="M100719 5542
L100790 5753
L100607 5753
" />
<path d="M83832 7230
L83832 6934
L83762 6934
L83720 6948
L83692 6976
L83678 7005
L83664 7061
L83664 7103
L83678 7159
L83692 7187
L83720 7215
L83762 7230
L83832 7230
" />
<path d="M83383 7230
L83551 7230
" />
<path d="M83467 7230
L83467 6934
L83495 6976
L83523 7005
L83551 7019
" />
<path d="M83284 6934
L83101 6934
L83200 7047
L83158 7047
L83129 7061
L83115 7075
L83101 7103
L83101 7173
L83115 7201
L83129 7215
L83158 7230
L83242 7230
L83270 7215
L83284 7201
" />
<path d="M68852 7230
L68852 6934
L68782 6934
L68740 6948
L68712 6976
L68697 7005
L68683 7061
L68683 7103
L68697 7159
L68712 7187
L68740 7215
L68782 7230
L68852 7230
" />
<path d="M68402 7230
L68571 7230
" />
<path d="M68487 7230
L68487 6934
L68515 6976
L68543 7005
L68571 7019
" />
<path d="M68290 6962
L68276 6948
L68248 6934
L68177 6934
L68149 6948
L68135 6962
L68121 6991
L68121 7019
L68135 7061
L68304 7230
L68121 7230
" />
<path d="M53852 7230
L53852 6934
L53782 6934
L53740 6948
L53712 6976
L53697 7005
L53683 7061
L53683 7103
L53697 7159
L53712 7187
L53740 7215
L53782 7230
L53852 7230
" />
<path d="M53402 7230
L53571 7230
" />
<path d="M53487 7230
L53487 6934
L53515 6976
L53543 7005
L53571 7019
" />
<path d="M53121 7230
L53290 7230
" />
<path d="M53205 7230
L53205 6934
L53233 6976
L53262 7005
L53290 7019
" />
<path d="M38852 7230
L38852 6934
L38782 6934
L38740 6948
L38712 6976
L38697 7005
L38683 7061
L38683 7103
L38697 7159
L38712 7187
L38740 7215
L38782 7230
L38852 7230
" />
<path d="M38402 7230
L38571 7230
" />
<path d="M38487 7230
L38487 6934
L38515 6976
L38543 7005
L38571 7019
" />
<path d="M38219 6934
L38191 6934
L38163 6948
L38149 6962
L38135 6991
L38121 7047
L38121 7117
L38135 7173
L38149 7201
L38163 7215
L38191 7230
L38219 7230
L38248 7215
L38262 7201
L38276 7173
L38290 7117
L38290 7047
L38276 6991
L38262 6962
L38248 6948
L38219 6934
" />
<path d="M23712 7230
L23712 6934
L23641 6934
L23599 6948
L23571 6976
L23557 7005
L23543 7061
L23543 7103
L23557 7159
L23571 7187
L23599 7215
L23641 7230
L23712 7230
" />
<path d="M23402 7230
L23346 7230
L23318 7215
L23304 7201
L23276 7159
L23262 7103
L23262 6991
L23276 6962
L23290 6948
L23318 6934
L23374 6934
L23402 6948
L23416 6962
L23430 6991
L23430 7061
L23416 7089
L23402 7103
L23374 7117
L23318 7117
L23290 7103
L23276 7089
L23262 7061
" />
<path d="M7767 6440
L7767 6144
L7696 6144
L7654 6158
L7626 6187
L7612 6215
L7598 6271
L7598 6313
L7612 6369
L7626 6397
L7654 6426
L7696 6440
L7767 6440
" />
<path d="M7429 6271
L7457 6257
L7471 6243
L7485 6215
L7485 6201
L7471 6173
L7457 6158
L7429 6144
L7373 6144
L7345 6158
L7331 6173
L7317 6201
L7317 6215
L7331 6243
L7345 6257
L7373 6271
L7429 6271
L7457 6285
L7471 6299
L7485 6327
L7485 6383
L7471 6412
L7457 6426
L7429 6440
L7373 6440
L7345 6426
L7331 6412
L7317 6383
L7317 6327
L7331 6299
L7345 6285
L7373 6271
" />
<path d="M94962 -250
L94962 -545
L94891 -545
L94849 -531
L94821 -503
L94807 -475
L94793 -419
L94793 -376
L94807 -320
L94821 -292
L94849 -264
L94891 -250
L94962 -250
" />
<path d="M94694 -545
L94498 -545
L94624 -250
" />
<path d="M79962 -250
L79962 -545
L79891 -545
L79849 -531
L79821 -503
L79807 -475
L79793 -419
L79793 -376
L79807 -320
L79821 -292
L79849 -264
L79891 -250
L79962 -250
" />
<path d="M79540 -545
L79596 -545
L79624 -531
L79638 -517
L79666 -475
L79680 -419
L79680 -306
L79666 -278
L79652 -264
L79624 -250
L79568 -250
L79540 -264
L79526 -278
L79512 -306
L79512 -376
L79526 -404
L79540 -419
L79568 -433
L79624 -433
L79652 -419
L79666 -404
L79680 -376
" />
<path d="M64962 -250
L64962 -545
L64891 -545
L64849 -531
L64821 -503
L64807 -475
L64793 -419
L64793 -376
L64807 -320
L64821 -292
L64849 -264
L64891 -250
L64962 -250
" />
<path d="M64526 -545
L64666 -545
L64680 -404
L64666 -419
L64638 -433
L64568 -433
L64540 -419
L64526 -404
L64512 -376
L64512 -306
L64526 -278
L64540 -264
L64568 -250
L64638 -250
L64666 -264
L64680 -278
" />
<path d="M49962 -250
L49962 -545
L49891 -545
L49849 -531
L49821 -503
L49807 -475
L49793 -419
L49793 -376
L49807 -320
L49821 -292
L49849 -264
L49891 -250
L49962 -250
" />
<path d="M49540 -447
L49540 -250
" />
<path d="M49610 -559
L49680 -348
L49498 -348
" />
<path d="M34962 -250
L34962 -545
L34891 -545
L34849 -531
L34821 -503
L34807 -475
L34793 -419
L34793 -376
L34807 -320
L34821 -292
L34849 -264
L34891 -250
L34962 -250
" />
<path d="M34694 -545
L34512 -545
L34610 -433
L34568 -433
L34540 -419
L34526 -404
L34512 -376
L34512 -306
L34526 -278
L34540 -264
L34568 -250
L34652 -250
L34680 -264
L34694 -278
" />
<path d="M19962 -250
L19962 -545
L19891 -545
L19849 -531
L19821 -503
L19807 -475
L19793 -419
L19793 -376
L19807 -320
L19821 -292
L19849 -264
L19891 -250
L19962 -250
" />
<path d="M19680 -517
L19666 -531
L19638 -545
L19568 -545
L19540 -531
L19526 -517
L19512 -489
L19512 -461
L19526 -419
L19694 -250
L19512 -250
" />
<path d="M7934 -602
L7934 -897
L7864 -897
L7821 -883
L7793 -855
L7779 -827
L7765 -770
L7765 -728
L7779 -672
L7793 -644
L7821 -616
L7864 -602
L7934 -602
" />
<path d="M7484 -602
L7653 -602
" />
<path d="M7568 -602
L7568 -897
L7597 -855
L7625 -827
L7653 -813
" />
<g >
</g>
</g> 
</svg>
